<svg width="38" height="56" viewBox="0 0 38 56" fill="none" xmlns="http://www.w3.org/2000/svg">
<path d="M15 26.8839V29.1161L10.1161 34H7.88372L3 29.1163L3 26.8837L7.88372 22H10.1161L15 26.8839Z" fill="white"/>
<path d="M15 26.8839V29.1161L10.1161 34H7.88372L3 29.1163L3 26.8837L7.88372 22H10.1161L15 26.8839Z" fill="url(#paint0_linear_119_2129)"/>
<path d="M9.17305 0C8.85951 2.361 8.75254 7.50356 10.8329 9.18577C11.3851 9.63225 12.4059 10.2306 13.725 11.0039C33.8091 22.7771 33.8092 33.2229 13.7251 44.9961C12.4059 45.7693 11.3851 46.3677 10.8329 46.8142C8.75254 48.4964 8.85951 53.639 9.17305 56L38 30.4348L38 25.5652L9.17305 0Z" fill="url(#paint1_linear_119_2129)"/>
<path d="M18 26.3258V29.6742L10.6742 37H7.32558L0 29.6744L0 26.3256L7.32558 19H10.6742L18 26.3258ZM3.13953 27.626V28.374L8.62595 33.8605H9.37384L14.8605 28.3738V27.6262L9.37384 22.1395H8.62595L3.13953 27.626Z" fill="url(#paint2_linear_119_2129)"/>
<defs>
<linearGradient id="paint0_linear_119_2129" x1="9" y1="22.8571" x2="9" y2="33.1429" gradientUnits="userSpaceOnUse">
<stop stop-color="#17181D"/>
<stop offset="0.317308" stop-color="#1D1E22"/>
<stop offset="1"/>
</linearGradient>
<linearGradient id="paint1_linear_119_2129" x1="14.25" y1="0" x2="14.25" y2="46.9412" gradientUnits="userSpaceOnUse">
<stop stop-color="#F8F8F8"/>
<stop offset="0.7" stop-color="#FADFAE"/>
<stop offset="1" stop-color="#FBD298"/>
</linearGradient>
<linearGradient id="paint2_linear_119_2129" x1="14.25" y1="0" x2="14.25" y2="46.9412" gradientUnits="userSpaceOnUse">
<stop stop-color="#F8F8F8"/>
<stop offset="0.7" stop-color="#FADFAE"/>
<stop offset="1" stop-color="#FBD298"/>
</linearGradient>
</defs>
</svg>
