<svg width="360" height="76" viewBox="0 0 360 76" fill="none" xmlns="http://www.w3.org/2000/svg">
<path d="M303.59 74.4772H56.4919L16.2485 37.9976L56.4919 1.51801H303.59L344.347 37.9976L303.59 74.4772Z" fill="url(#paint0_linear_116_5)"/>
<path d="M303.59 74.4772H56.4919L16.2485 37.9976L56.4919 1.51801H303.59L344.347 37.9976L303.59 74.4772Z" fill="url(#paint1_linear_116_5)"/>
<path d="M40.9335 75.1071L-0.00195312 38.001L40.9335 0.894897L42.3253 2.15305L2.77595 38.001L42.3253 73.8489L40.9335 75.1071Z" fill="url(#paint2_linear_116_5)"/>
<path d="M40.9335 75.1071L-0.00195312 38.001L40.9335 0.894897L42.3253 2.15305L2.77595 38.001L42.3253 73.8489L40.9335 75.1071Z" fill="url(#paint3_linear_116_5)"/>
<path d="M319.063 75.1071L317.671 73.8489L357.22 38.001L317.671 2.15305L319.063 0.894897L359.998 38.001L319.063 75.1071Z" fill="url(#paint4_linear_116_5)"/>
<path d="M319.063 75.1071L317.671 73.8489L357.22 38.001L317.671 2.15305L319.063 0.894897L359.998 38.001L319.063 75.1071Z" fill="url(#paint5_linear_116_5)"/>
<defs>
<linearGradient id="paint0_linear_116_5" x1="191.236" y1="-16.5663" x2="79.4446" y2="123.782" gradientUnits="userSpaceOnUse">
<stop stop-color="#E26F2C"/>
<stop offset="0.545" stop-color="#F1C8A5" stop-opacity="0.525"/>
<stop offset="1" stop-color="white" stop-opacity="0"/>
</linearGradient>
<linearGradient id="paint1_linear_116_5" x1="36.7564" y1="-81.9436" x2="211.123" y2="97.1013" gradientUnits="userSpaceOnUse">
<stop stop-color="#273244"/>
<stop offset="0.485" stop-color="#273244" stop-opacity="0.515"/>
<stop offset="1" stop-color="white" stop-opacity="0"/>
</linearGradient>
<linearGradient id="paint2_linear_116_5" x1="22.5728" y1="-17.5" x2="-13.6617" y2="-11.7305" gradientUnits="userSpaceOnUse">
<stop stop-color="#E26F2C"/>
<stop offset="0.545" stop-color="#F1C8A5" stop-opacity="0.525"/>
<stop offset="1" stop-color="white" stop-opacity="0"/>
</linearGradient>
<linearGradient id="paint3_linear_116_5" x1="2.64373" y1="-84" x2="48.0856" y2="-78.082" gradientUnits="userSpaceOnUse">
<stop stop-color="#273244"/>
<stop offset="0.485" stop-color="#273244" stop-opacity="0.515"/>
<stop offset="1" stop-color="white" stop-opacity="0"/>
</linearGradient>
<linearGradient id="paint4_linear_116_5" x1="340.245" y1="-17.5" x2="304.011" y2="-11.7305" gradientUnits="userSpaceOnUse">
<stop stop-color="#E26F2C"/>
<stop offset="0.545" stop-color="#F1C8A5" stop-opacity="0.525"/>
<stop offset="1" stop-color="white" stop-opacity="0"/>
</linearGradient>
<linearGradient id="paint5_linear_116_5" x1="320.316" y1="-84" x2="365.758" y2="-78.082" gradientUnits="userSpaceOnUse">
<stop stop-color="#273244"/>
<stop offset="0.485" stop-color="#273244" stop-opacity="0.515"/>
<stop offset="1" stop-color="white" stop-opacity="0"/>
</linearGradient>
</defs>
</svg>






