<svg width="360" height="80" viewBox="0 0 360 80" fill="none" xmlns="http://www.w3.org/2000/svg">
<g clip-path="url(#clip0_116_4)">
<path d="M303.59 76.4772H56.4919L16.2485 39.9976L56.4919 3.51801H303.59L344.347 39.9976L303.59 76.4772Z" fill="url(#paint0_linear_116_4)"/>
<path d="M303.59 76.4772H56.4919L16.2485 39.9976L56.4919 3.51801H303.59L344.347 39.9976L303.59 76.4772Z" fill="url(#paint1_linear_116_4)" fill-opacity="0.21"/>
<path d="M40.9335 77.1071L-0.00195312 40.001L40.9335 2.8949L42.3253 4.15305L2.77595 40.001L42.3253 75.8489L40.9335 77.1071Z" fill="url(#paint2_linear_116_4)"/>
<path d="M40.9335 77.1071L-0.00195312 40.001L40.9335 2.8949L42.3253 4.15305L2.77595 40.001L42.3253 75.8489L40.9335 77.1071Z" fill="url(#paint3_linear_116_4)" fill-opacity="0.21"/>
<path d="M319.063 77.1071L317.671 75.8489L357.22 40.001L317.671 4.15305L319.063 2.8949L359.998 40.001L319.063 77.1071Z" fill="url(#paint4_linear_116_4)"/>
<path d="M319.063 77.1071L317.671 75.8489L357.22 40.001L317.671 4.15305L319.063 2.8949L359.998 40.001L319.063 77.1071Z" fill="url(#paint5_linear_116_4)" fill-opacity="0.21"/>
</g>
<defs>
<linearGradient id="paint0_linear_116_4" x1="180.298" y1="3.51801" x2="180.298" y2="143.224" gradientUnits="userSpaceOnUse">
<stop stop-color="#E26F2C"/>
<stop offset="0.545" stop-color="#F1C8A5" stop-opacity="0.525"/>
<stop offset="1" stop-color="white" stop-opacity="0"/>
</linearGradient>
<linearGradient id="paint1_linear_116_4" x1="181.211" y1="77.8466" x2="181.211" y2="-2.76892" gradientUnits="userSpaceOnUse">
<stop stop-color="#1C202C"/>
<stop offset="0.0001" stop-color="#2E3A46" stop-opacity="0.883613"/>
<stop offset="0.569045" stop-color="#384756" stop-opacity="0.857681"/>
<stop offset="0.9997" stop-color="#2E3A46" stop-opacity="0.883613"/>
<stop offset="0.9998"/>
<stop offset="0.9999" stop-color="#5F7791" stop-opacity="0.729673"/>
<stop offset="1" stop-color="#5F7791" stop-opacity="0"/>
</linearGradient>
<linearGradient id="paint2_linear_116_4" x1="21.1617" y1="2.8949" x2="21.1617" y2="145" gradientUnits="userSpaceOnUse">
<stop stop-color="#E26F2C"/>
<stop offset="0.545" stop-color="#F1C8A5" stop-opacity="0.525"/>
<stop offset="1" stop-color="white" stop-opacity="0"/>
</linearGradient>
<linearGradient id="paint3_linear_116_4" x1="21.2795" y1="78.5" x2="21.2795" y2="-3.5" gradientUnits="userSpaceOnUse">
<stop stop-color="#1C202C"/>
<stop offset="0.0001" stop-color="#2E3A46" stop-opacity="0.883613"/>
<stop offset="0.569045" stop-color="#384756" stop-opacity="0.857681"/>
<stop offset="0.9997" stop-color="#2E3A46" stop-opacity="0.883613"/>
<stop offset="0.9998"/>
<stop offset="0.9999" stop-color="#5F7791" stop-opacity="0.729673"/>
<stop offset="1" stop-color="#5F7791" stop-opacity="0"/>
</linearGradient>
<linearGradient id="paint4_linear_116_4" x1="338.834" y1="2.8949" x2="338.834" y2="145" gradientUnits="userSpaceOnUse">
<stop stop-color="#E26F2C"/>
<stop offset="0.545" stop-color="#F1C8A5" stop-opacity="0.525"/>
<stop offset="1" stop-color="white" stop-opacity="0"/>
</linearGradient>
<linearGradient id="paint5_linear_116_4" x1="338.952" y1="78.5" x2="338.952" y2="-3.5" gradientUnits="userSpaceOnUse">
<stop stop-color="#1C202C"/>
<stop offset="0.0001" stop-color="#2E3A46" stop-opacity="0.883613"/>
<stop offset="0.569045" stop-color="#384756" stop-opacity="0.857681"/>
<stop offset="0.9997" stop-color="#2E3A46" stop-opacity="0.883613"/>
<stop offset="0.9998"/>
<stop offset="0.9999" stop-color="#5F7791" stop-opacity="0.729673"/>
<stop offset="1" stop-color="#5F7791" stop-opacity="0"/>
</linearGradient>
<clipPath id="clip0_116_4">
<rect width="360" height="80" fill="white"/>
</clipPath>
</defs>
</svg>



