<svg width="20" height="20" viewBox="0 0 20 20" fill="none" xmlns="http://www.w3.org/2000/svg">
<path d="M5.23529 19L1 13.9828V5.0633L4.70588 1H15.2941L19 5.0633V13.9828L15.2941 19H5.23529Z" fill="url(#paint0_linear_280_1024)"/>
<path d="M11 2C20.5 2 20.5 18 11 18H9C-0.5 18 -0.5 2 9 2H11ZM4.375 0L0 4.46429V15.5357L4.375 20H15.625L20 15.5357V4.46429L15.625 0H4.375Z" fill="url(#paint1_linear_280_1024)"/>
<path d="M8.89589 8.59585C7.9131 6.64766 7.9131 5.67356 5.94751 6.64766C5.45611 6.97235 4.66987 7.81654 5.45611 8.59582C6.4389 9.56991 7.9131 15.4145 10.8615 13.9533C13.8099 12.4922 16.2669 5.67353 17.741 3.2383C19.2152 0.803062 19.7066 0.803119 18.2324 0.316071C16.7583 -0.170976 16.2669 0.803119 15.7755 1.77721L15.7755 1.77722C15.284 2.75137 10.8615 11.5182 10.3701 11.5182C9.87869 11.5182 9.87869 10.544 8.89589 8.59585Z" fill="url(#paint2_linear_280_1024)"/>
<defs>
<linearGradient id="paint0_linear_280_1024" x1="10" y1="2.28571" x2="10" y2="17.7143" gradientUnits="userSpaceOnUse">
<stop stop-color="#17181D"/>
<stop offset="0.317308" stop-color="#1D1E22"/>
<stop offset="1"/>
</linearGradient>
<linearGradient id="paint1_linear_280_1024" x1="6.5625" y1="0" x2="6.5625" y2="16.7647" gradientUnits="userSpaceOnUse">
<stop stop-color="#F8F8F8"/>
<stop offset="0.7" stop-color="#FADFAE"/>
<stop offset="1" stop-color="#FBD298"/>
</linearGradient>
<linearGradient id="paint2_linear_280_1024" x1="9.71631" y1="0.186523" x2="9.71631" y2="11.9218" gradientUnits="userSpaceOnUse">
<stop stop-color="#F8F8F8"/>
<stop offset="0.7" stop-color="#FADFAE"/>
<stop offset="1" stop-color="#FBD298"/>
</linearGradient>
</defs>
</svg>
