<svg width="20" height="20" viewBox="0 0 20 20" fill="none" xmlns="http://www.w3.org/2000/svg">
<g opacity="0.5">
<path d="M5.23529 19L1 13.9828V5.0633L4.70588 1H15.2941L19 5.0633V13.9828L15.2941 19H5.23529Z" fill="url(#paint0_linear_280_1068)"/>
<path d="M5.23529 19L1 13.9828V5.0633L4.70588 1H15.2941L19 5.0633V13.9828L15.2941 19H5.23529Z" fill="url(#paint1_linear_280_1068)"/>
<path d="M11 2C20.5 2 20.5 18 11 18H9C-0.5 18 -0.5 2 9 2H11ZM4.375 0L0 4.46429V15.5357L4.375 20H15.625L20 15.5357V4.46429L15.625 0H4.375Z" fill="url(#paint2_linear_280_1068)"/>
</g>
<defs>
<linearGradient id="paint0_linear_280_1068" x1="10" y1="1" x2="10" y2="19" gradientUnits="userSpaceOnUse">
<stop stop-color="#DD585B"/>
<stop offset="0.317308" stop-color="#E06665"/>
<stop offset="1" stop-color="#97292A"/>
</linearGradient>
<linearGradient id="paint1_linear_280_1068" x1="10" y1="2.28571" x2="10" y2="17.7143" gradientUnits="userSpaceOnUse">
<stop stop-color="#333333"/>
<stop offset="0.317308" stop-color="#383838"/>
<stop offset="1" stop-color="#1A1A1A"/>
</linearGradient>
<linearGradient id="paint2_linear_280_1068" x1="7.5" y1="0" x2="7.5" y2="16.7647" gradientUnits="userSpaceOnUse">
<stop stop-color="#F8F8F8"/>
<stop offset="0.7" stop-color="#D4D4D4"/>
<stop offset="1" stop-color="#CACACA"/>
</linearGradient>
</defs>
</svg>
