<svg width="40" height="40" viewBox="0 0 40 40" fill="none" xmlns="http://www.w3.org/2000/svg">
<path d="M24.0127 16L16.0127 8L8.0127 16L16.0127 24L24.0127 16Z" fill="url(#paint0_linear_165_4163)"/>
<path d="M0 40C0.000782013 36.8 4.68964 31.8029 9.13782 32.9633C26.9683 37.6149 37.6149 26.9684 32.9633 9.13814C31.8028 4.69009 36.8 0 40 0V30.4L30.4125 40H0Z" fill="url(#paint1_linear_165_4163)"/>
<path d="M14.2267 25.6H17.7983L25.6125 17.7858V14.214L17.7985 6.4L14.2265 6.4L6.4125 14.214V17.7858L14.2267 25.6ZM15.6135 9.74884H16.4115L22.2637 15.601V16.3988L16.4113 22.2512H15.6137L9.76134 16.3988V15.601L15.6135 9.74884Z" fill="url(#paint2_linear_165_4163)"/>
<defs>
<linearGradient id="paint0_linear_165_4163" x1="16.0127" y1="9.14286" x2="16.0127" y2="22.8571" gradientUnits="userSpaceOnUse">
<stop stop-color="#17181D"/>
<stop offset="0.317308" stop-color="#1D1E22"/>
<stop offset="1"/>
</linearGradient>
<linearGradient id="paint1_linear_165_4163" x1="29.6302" y1="0.482292" x2="29.6302" y2="38.0352" gradientUnits="userSpaceOnUse">
<stop stop-color="#F8F8F8"/>
<stop offset="0.7" stop-color="#FADFAE"/>
<stop offset="1" stop-color="#FBD298"/>
</linearGradient>
<linearGradient id="paint2_linear_165_4163" x1="29.6302" y1="0.482292" x2="29.6302" y2="38.0352" gradientUnits="userSpaceOnUse">
<stop stop-color="#F8F8F8"/>
<stop offset="0.7" stop-color="#FADFAE"/>
<stop offset="1" stop-color="#FBD298"/>
</linearGradient>
</defs>
</svg>
