<svg width="40" height="40" viewBox="0 0 40 40" fill="none" xmlns="http://www.w3.org/2000/svg">
<path d="M24.0127 24L16.0127 32L8.0127 24L16.0127 16L24.0127 24Z" fill="url(#paint0_linear_165_4157)"/>
<path d="M0 0C0.00078125 3.2 4.68964 8.1971 9.13782 7.03666C26.9683 2.38508 37.6149 13.0316 32.9633 30.8619C31.8028 35.3099 36.8 40 40 40V9.6L30.4125 0H0Z" fill="url(#paint1_linear_165_4157)"/>
<path d="M14.2267 14.4H17.7983L25.6125 22.2142V25.786L17.7985 33.6L14.2265 33.6L6.4125 25.786V22.2142L14.2267 14.4ZM15.6135 30.2512H16.4115L22.2637 24.399V23.6012L16.4113 17.7488H15.6137L9.76134 23.6012V24.399L15.6135 30.2512Z" fill="url(#paint2_linear_165_4157)"/>
<defs>
<linearGradient id="paint0_linear_165_4157" x1="16.0127" y1="30.8571" x2="16.0127" y2="17.1429" gradientUnits="userSpaceOnUse">
<stop stop-color="#17181D"/>
<stop offset="0.317308" stop-color="#1D1E22"/>
<stop offset="1"/>
</linearGradient>
<linearGradient id="paint1_linear_165_4157" x1="29.6302" y1="39.5177" x2="29.6302" y2="1.96476" gradientUnits="userSpaceOnUse">
<stop stop-color="#FBD298"/>
<stop offset="0.3" stop-color="#FADFAE"/>
<stop offset="1" stop-color="#F8F8F8"/>
</linearGradient>
<linearGradient id="paint2_linear_165_4157" x1="29.6302" y1="39.5177" x2="29.6302" y2="1.96476" gradientUnits="userSpaceOnUse">
<stop stop-color="#FBD298"/>
<stop offset="0.3" stop-color="#FADFAE"/>
<stop offset="1" stop-color="#F8F8F8"/>
</linearGradient>
</defs>
</svg>
