<svg width="40" height="40" viewBox="0 0 40 40" fill="none" xmlns="http://www.w3.org/2000/svg">
<path d="M15.9873 24L23.9873 32L31.9873 24L23.9873 16L15.9873 24Z" fill="url(#paint0_linear_165_4154)"/>
<path d="M40 0C39.9992 3.2 35.3104 8.1971 30.8622 7.03666C13.0317 2.38508 2.38509 13.0316 7.03673 30.8619C8.19716 35.3099 3.2 40 0 40V9.6L9.5875 0H40Z" fill="url(#paint1_linear_165_4154)"/>
<path d="M25.7733 14.4H22.2017L14.3875 22.2142V25.786L22.2015 33.6L25.7735 33.6L33.5875 25.786V22.2142L25.7733 14.4ZM24.3865 30.2512H23.5885L17.7363 24.399V23.6012L23.5887 17.7488H24.3863L30.2387 23.6012V24.399L24.3865 30.2512Z" fill="url(#paint2_linear_165_4154)"/>
<defs>
<linearGradient id="paint0_linear_165_4154" x1="23.9873" y1="30.8571" x2="23.9873" y2="17.1429" gradientUnits="userSpaceOnUse">
<stop stop-color="#17181D"/>
<stop offset="0.317308" stop-color="#1D1E22"/>
<stop offset="1"/>
</linearGradient>
<linearGradient id="paint1_linear_165_4154" x1="29.6302" y1="39.5177" x2="29.6302" y2="1.96476" gradientUnits="userSpaceOnUse">
<stop stop-color="#FBD298"/>
<stop offset="0.3" stop-color="#FADFAE"/>
<stop offset="1" stop-color="#F8F8F8"/>
</linearGradient>
<linearGradient id="paint2_linear_165_4154" x1="29.6302" y1="39.5177" x2="29.6302" y2="1.96476" gradientUnits="userSpaceOnUse">
<stop stop-color="#FBD298"/>
<stop offset="0.3" stop-color="#FADFAE"/>
<stop offset="1" stop-color="#F8F8F8"/>
</linearGradient>
</defs>
</svg>
