<svg width="16" height="16" viewBox="0 0 16 16" fill="none" xmlns="http://www.w3.org/2000/svg">
<path fill-rule="evenodd" clip-rule="evenodd" d="M1.02973 1.43904C1.11874 5.74704 1.78088 9.14384 3.0151 11.6245C4.07797 13.7606 5.66317 15.233 7.57569 15.8605L8.00073 16L8.4247 15.8853C10.5078 15.322 12.0169 14.0507 13.1156 11.9335C14.3422 9.56984 14.9987 5.80774 15 1.13485C15.0003 0.00285477 15 0 14.9002 0C14.8451 0 14.3918 0.052133 13.8929 0.115872C11.8142 0.381405 10.2362 0.478698 8.0074 0.478698C5.77857 0.478698 4.20055 0.381405 2.12187 0.115872C1.62297 0.052133 1.16639 0 1.10735 0H1L1.02973 1.43904ZM1.63362 1.7349C1.69299 3.67478 1.91018 5.77873 2.18638 7.08992L2.24556 7.37071L5.12648 7.38278L8.0074 7.39481V11.3723C8.0074 13.6588 8.0249 15.3498 8.04852 15.3498C8.19519 15.3498 8.97445 15.0763 9.38355 14.8813C10.0999 14.5399 10.6025 14.1811 11.1833 13.5965C12.1523 12.6211 12.8961 11.2676 13.3958 9.57022C13.578 8.9515 13.8163 7.96289 13.8669 7.6164L13.8993 7.39411H10.9534L8.0074 7.39481V4.26364V1.13322L7.18539 1.10476C5.1664 1.0348 3.23827 0.896746 2.23602 0.750361C2.06088 0.724763 1.8466 0.703423 1.75977 0.702908L1.60199 0.701972L1.63362 1.7349Z" fill="#FF0000"/>
</svg>
