<svg width="20" height="20" viewBox="0 0 20 20" fill="none" xmlns="http://www.w3.org/2000/svg">
<path fill-rule="evenodd" clip-rule="evenodd" d="M4.52795 1.10865C3.79258 1.37264 3.56287 2.09526 3.84036 3.27137C3.95268 3.74737 3.95828 3.75748 4.09142 3.72193C5.23086 3.41773 7.14938 3.63084 8.82483 4.24771C10.5021 4.86524 11.829 5.68434 13.5279 7.15091C16.5182 9.73233 17.6718 11.066 18.6333 13.0532C18.8353 13.4706 19.0003 13.7797 19 13.74C18.999 13.6004 18.7457 12.51 18.6321 12.157C18.0554 10.364 16.9052 8.51442 15.3535 6.88478C13.2273 4.65174 10.0042 2.42002 7.57354 1.49796C6.31919 1.02212 5.176 0.875978 4.52795 1.10865ZM2.11238 3.70303C1.64794 4.25831 1.21596 4.81859 1.15248 4.94809C0.397189 6.48828 2.5164 10.3165 5.99007 13.6868C6.3434 14.0296 6.63162 14.3263 6.63061 14.3461C6.62961 14.3659 6.35609 14.7024 6.02278 15.0939C5.68948 15.4855 5.4168 15.8193 5.4168 15.8358C5.4168 15.875 14.521 19.0291 14.5492 18.9998C14.5706 18.9777 10.1465 10.3575 10.07 10.2722C10.0482 10.2478 9.76215 10.5507 9.43435 10.9452C9.10654 11.3398 8.81272 11.6625 8.78138 11.6625C8.69248 11.6625 6.98611 9.84413 6.3582 9.08035C4.51748 6.84116 3.35848 4.76904 3.04733 3.16116L2.95684 2.69345L2.11238 3.70303Z" fill="url(#paint0_linear_582_4341)"/>
<defs>
<linearGradient id="paint0_linear_582_4341" x1="10" y1="1" x2="10" y2="19" gradientUnits="userSpaceOnUse">
<stop stop-color="#F8F8F8"/>
<stop offset="0.7" stop-color="#FADFAE"/>
<stop offset="1" stop-color="#FBD298"/>
</linearGradient>
</defs>
</svg>
