<svg width="16" height="16" viewBox="0 0 20 20" fill="none" xmlns="http://www.w3.org/2000/svg">
                            <g clip-path="url(#clip0_2105_278)">
                            <path d="M10 4.375C6.20875 4.375 2.99875 6.735 1.875 10C2.99875 13.265 6.20875 15.625 10 15.625C13.7912 15.625 17.0013 13.265 18.125 10C17.0013 6.735 13.7912 4.375 10 4.375Z" stroke="white" stroke-width="2" stroke-miterlimit="10" stroke-linecap="round" stroke-linejoin="round"/>
                            <path d="M10 13.125C11.7259 13.125 13.125 11.7259 13.125 10C13.125 8.27411 11.7259 6.875 10 6.875C8.27411 6.875 6.875 8.27411 6.875 10C6.875 11.7259 8.27411 13.125 10 13.125Z" stroke="white" stroke-width="2" stroke-miterlimit="10" stroke-linecap="round" stroke-linejoin="round"/>
                            <path d="M1.875 1.875L18.125 18.125" stroke="white" stroke-width="2" stroke-miterlimit="10" stroke-linecap="round" stroke-linejoin="round"/>
                            </g>
                            <defs>
                            <clipPath id="clip0_2105_278">
                            <rect width="20" height="20" fill="white"/>
                            </clipPath>
                            </defs>
                        </svg>