<svg width="20" height="20" viewBox="0 0 20 20" fill="none" xmlns="http://www.w3.org/2000/svg">
<path fill-rule="evenodd" clip-rule="evenodd" d="M9.59243 3.22816C5.97884 4.45032 3.01251 5.45773 3.00057 5.46677C2.97593 5.48552 3.75813 18.9733 3.78544 18.9999C3.80546 19.0195 16.9575 14.585 16.999 14.5448C17.0136 14.5306 16.8607 11.6841 16.6591 8.21922C16.238 0.979256 16.2389 0.993097 16.1953 1.00049C16.1773 1.00356 13.206 2.00601 9.59243 3.22816ZM14.4397 2.49117C12.122 4.18117 9.25525 5.52763 6.98208 5.99398C6.42714 6.10783 6.13832 6.13625 5.49221 6.14042C5.05139 6.14327 4.70788 6.16034 4.72888 6.17835C4.74987 6.19642 5.06987 6.40635 5.44003 6.64492L6.11297 7.07868L9.42029 5.95706C11.2393 5.34014 12.8527 4.79106 13.0056 4.73685C13.282 4.63897 13.2888 4.63094 14.1371 3.39774C14.6065 2.71542 14.9697 2.15714 14.9442 2.15714C14.9187 2.15714 14.6917 2.30749 14.4397 2.49117ZM15.5694 3.27861C15.4105 4.94906 14.811 7.63918 14.3061 8.94771L14.1218 9.42548L14.2005 10.7438C14.2438 11.469 14.2797 12.1273 14.2804 12.2068C14.2814 12.3351 14.3921 12.423 15.2629 12.9867L16.2444 13.6221V13.3686C16.2444 12.9971 15.6491 2.93624 15.6257 2.91368C15.6148 2.90312 15.5895 3.06736 15.5694 3.27861ZM12.353 5.75204C11.9371 5.89314 11.5842 6.02071 11.5689 6.03556C11.5536 6.0504 11.5811 6.21686 11.6299 6.40546C11.6788 6.5941 11.7189 6.75607 11.7189 6.76542C11.7189 6.77472 11.5356 6.78507 11.3117 6.7884C10.2741 6.80372 9.36817 7.64547 9.21245 8.73889C9.10825 9.47033 9.35683 10.1832 9.87273 10.6326C10.1516 10.8755 10.5552 11.0849 10.7444 11.0849C10.9266 11.0849 10.8543 11.2008 10.4106 11.6193C9.56456 12.4172 8.3815 12.7873 7.19511 12.6252C6.97112 12.5946 6.78165 12.5756 6.77402 12.583C6.75603 12.6004 6.87276 14.4871 6.8931 14.5084C6.90646 14.5223 13.4701 12.3078 13.5033 12.2783C13.5183 12.2648 13.1408 5.57887 13.1223 5.53C13.1151 5.51104 12.7689 5.61093 12.353 5.75204ZM4.64829 7.15724C4.84272 7.52893 5.00509 8.01542 5.13055 8.60206C5.28955 9.34561 5.32788 11.375 5.20634 12.6169C5.1106 13.5952 4.77108 15.6408 4.55483 16.5423C4.37998 17.2712 4.34225 17.4928 4.39873 17.459C4.4249 17.4433 4.82424 16.8802 5.28611 16.2076L6.12595 14.9847L5.94613 11.7538C5.84722 9.97673 5.75257 8.328 5.73583 8.08985L5.70546 7.65688L5.26348 7.37262C5.02042 7.2163 4.75134 7.04414 4.66552 6.99004L4.50942 6.89168L4.64829 7.15724ZM10.9248 7.8843C10.7024 7.97812 10.3885 8.34078 10.31 8.59456C9.97415 9.68069 10.9051 10.5214 11.7512 9.89617C11.9727 9.73246 12.199 9.32548 12.2436 9.01058C12.3051 8.57591 12.0647 8.06217 11.7188 7.88884C11.525 7.79175 11.1492 7.78958 10.9248 7.8843ZM12.4879 13.4172L11.1032 13.8887L10.6886 14.265C9.69237 15.1693 8.35146 16.1087 6.62086 17.1146C6.23101 17.3413 5.87524 17.55 5.83026 17.5784C5.71282 17.6527 6.18216 17.4975 11.0101 15.8655C13.3941 15.0597 15.4633 14.3607 15.6081 14.3122L15.8716 14.2241L15.0084 13.6675C14.5336 13.3614 14.0838 13.0737 14.0089 13.0283C13.8788 12.9495 13.8093 12.9672 12.4879 13.4172Z" fill="url(#paint0_linear_582_4362)"/>
<defs>
<linearGradient id="paint0_linear_582_4362" x1="10" y1="1" x2="10" y2="19" gradientUnits="userSpaceOnUse">
<stop stop-color="#F8F8F8"/>
<stop offset="0.7" stop-color="#FADFAE"/>
<stop offset="1" stop-color="#FBD298"/>
</linearGradient>
</defs>
</svg>
