<svg width="40" height="26" viewBox="0 0 40 26" fill="none" xmlns="http://www.w3.org/2000/svg">
<g filter="url(#filter0_d_378_709)">
<path fill-rule="evenodd" clip-rule="evenodd" d="M13.5735 0.310533C12.1094 0.571089 11.1245 1.11021 10.6708 1.89946C10.5508 2.10813 10.3741 2.67029 10.3907 2.7905C10.4017 2.87019 10.4177 2.88252 10.5511 2.91413C10.9308 3.00411 11.5736 2.91607 12.0382 2.71049C12.5567 2.48107 12.9353 2.11596 13.3897 1.40725C13.6215 1.0457 13.9734 0.412696 13.9995 0.310373C14.0146 0.251094 13.9073 0.251161 13.5735 0.310533ZM9.47175 0.362145C8.44505 1.51941 8.05701 2.5163 8.27594 3.43433C8.32875 3.65586 8.48993 4.07138 8.56799 4.18733C8.63804 4.29139 8.63666 4.29187 9.03135 4.02571C9.855 3.47029 10.1973 2.63201 10.0951 1.42066C10.065 1.0641 9.85789 0.00996035 9.81597 2.78475e-05C9.80552 -0.00244806 9.65063 0.160491 9.47175 0.362145ZM12.1887 3.22972C11.6031 3.29152 10.9575 3.42257 10.5534 3.56173C10.3878 3.61871 10.0969 3.75561 9.90689 3.8659C9.62283 4.0308 9.52793 4.10545 9.37314 4.28585C9.17403 4.51793 8.92169 4.94609 8.81409 5.23441C8.75412 5.39518 8.75388 5.41119 8.81086 5.46059C8.85333 5.4974 8.96337 5.53029 9.16858 5.56749C9.744 5.67186 10.3837 5.5552 10.9209 5.24791C11.2353 5.06812 11.4594 4.8769 11.7775 4.51706C12.2002 4.03889 12.6563 3.38027 12.6664 3.23373C12.6697 3.18486 12.6177 3.18443 12.1887 3.22972ZM7.10074 2.97915C6.95904 3.16165 6.62335 3.79732 6.47974 4.15514C6.21931 4.80413 6.10315 5.43867 6.16674 5.86503C6.18198 5.96713 6.2476 6.17786 6.31254 6.33333C6.45822 6.68194 6.79127 7.19174 6.88839 7.21475C6.97165 7.23448 7.13192 7.10921 7.37751 6.83248C7.63356 6.544 7.68955 6.42684 7.82579 5.89442C7.97088 5.32741 7.97472 5.18989 7.85935 4.6874C7.77 4.29833 7.41352 3.30539 7.26754 3.03903L7.17929 2.87801L7.10074 2.97915ZM9.85339 5.91588C8.96197 6.22737 7.99126 6.79533 7.63087 7.21626C7.38569 7.50265 7.27328 7.74527 7.13554 8.28522C6.98677 8.86844 6.9932 8.93734 7.2006 8.98393C7.46713 9.04379 8.25014 8.81335 8.65612 8.55553C9.24577 8.18111 9.53739 7.74824 9.94111 6.64824C10.1267 6.14261 10.206 5.86439 10.1735 5.83253C10.1617 5.82096 10.0177 5.85848 9.85339 5.91588ZM4.89475 6.11489C4.85832 6.2577 4.74933 7.1292 4.73595 7.3848C4.6872 8.31488 4.88321 9.07875 5.30982 9.62124C5.48493 9.84394 5.83151 10.1283 6.05243 10.2306C6.19508 10.2967 6.22175 10.3009 6.28584 10.2676C6.39292 10.2119 6.48108 10.0277 6.57302 9.66723C6.85011 8.581 6.56233 7.81846 5.42608 6.62815C4.98648 6.16764 4.90209 6.08612 4.89475 6.11489ZM8.97788 8.80591C8.60942 9.04341 8.13615 9.39317 7.89194 9.60839C7.55287 9.90725 7.15565 10.473 6.98563 10.8992C6.8756 11.175 6.86064 12.1066 6.96291 12.3126L7.0039 12.395L7.18625 12.3528C7.42671 12.297 7.92309 12.0551 8.19005 11.8636C8.46152 11.6688 8.6406 11.4758 8.80463 11.2016C8.92531 10.9998 8.9477 10.9323 9.12016 10.25C9.25523 9.71556 9.3126 9.4324 9.33082 9.21014C9.35923 8.86346 9.34954 8.66426 9.30286 8.63623C9.2853 8.62569 9.13906 8.70203 8.97788 8.80591ZM3.69285 9.87255C3.96282 10.9293 4.34092 11.6689 4.87534 12.1856C5.20484 12.5042 5.48809 12.643 6.10883 12.7901C6.45152 12.8713 6.53299 12.8636 6.56265 12.7473C6.59583 12.6173 6.56543 12.123 6.50882 11.8723C6.30536 10.9707 5.43273 10.1647 4.10761 9.65439C3.92829 9.58535 3.7372 9.51061 3.68294 9.48829L3.58428 9.44773L3.69285 9.87255ZM8.96927 11.8646C8.3293 12.3768 7.75704 12.9667 7.50827 13.3708C7.22364 13.8331 7.08907 14.3311 7.12083 14.8046C7.13876 15.0719 7.22934 15.4928 7.30392 15.6555C7.34261 15.7399 7.34367 15.7403 7.44374 15.707C7.64593 15.6398 8.34445 15.201 8.50679 15.0391C8.98503 14.5623 9.23346 13.778 9.26772 12.6369C9.27675 12.336 9.24798 11.8089 9.21799 11.7252C9.20567 11.6909 9.14122 11.727 8.96927 11.8646ZM3.50745 12.3694C3.46937 12.4222 3.57639 12.7038 3.84722 13.2634C4.27409 14.1454 4.72184 14.6974 5.26114 15.0066C5.48784 15.1366 6.46772 15.3767 6.6278 15.3414C6.77775 15.3084 6.80872 15.1916 6.75259 14.8706C6.68647 14.4926 6.60711 14.2642 6.44465 13.9846C6.26869 13.6816 6.12684 13.5156 5.8538 13.2931C5.40444 12.9269 4.90963 12.6979 4.08858 12.4761C3.60356 12.3451 3.53415 12.3324 3.50745 12.3694ZM10.0257 13.9501C9.85516 14.0496 9.44565 14.5548 9.12544 15.0607C8.61989 15.8595 8.4525 16.6102 8.62744 17.2939C8.71901 17.6517 8.93646 18.065 9.04828 18.0936C9.17239 18.1255 9.81038 17.586 10.028 17.2652C10.257 16.9276 10.4165 16.3756 10.4376 15.8479C10.4535 15.4464 10.2556 14.2517 10.1307 13.9962C10.0924 13.9177 10.086 13.9149 10.0257 13.9501ZM11.0971 16.0096C10.8198 16.5133 10.4882 17.8863 10.5137 18.4252C10.5346 18.8675 10.6881 19.3166 10.9456 19.6889C11.0918 19.9003 11.4134 20.2118 11.5087 20.2344C11.7383 20.2888 12.2044 19.4419 12.2769 18.8386C12.3621 18.1298 12.1653 17.5452 11.4402 16.3534L11.1607 15.8939L11.0971 16.0096ZM5.05229 15.4529C4.65254 15.4032 4.49531 15.4082 4.4544 15.4717C4.38158 15.5846 5.2835 16.7838 5.72954 17.167C5.95488 17.3606 6.42433 17.6445 6.70946 17.7596C6.95973 17.8606 7.21635 17.8852 7.7462 17.8591C8.1162 17.8409 8.20918 17.8172 8.22994 17.7358C8.26345 17.6044 8.08916 17.1431 7.88287 16.8171C7.71085 16.5452 7.64209 16.4677 7.4034 16.2762C6.98395 15.9399 6.75686 15.8357 6.04727 15.6542C5.65751 15.5545 5.31831 15.4859 5.05229 15.4529ZM12.761 18.5993C12.6972 18.6192 12.7302 18.8993 12.8599 19.4411C13.1177 20.5174 13.4405 21.1005 14.0444 21.5809C14.3752 21.844 14.5216 21.9135 14.9689 22.0195C15.3812 22.1172 15.4031 22.1101 15.4343 21.8689C15.4664 21.6211 15.4406 21.1751 15.3792 20.9125C15.2638 20.4201 14.9262 19.9271 14.4437 19.5466C13.9941 19.192 12.877 18.5632 12.761 18.5993ZM7.72658 18.2527C7.33897 18.2091 6.16217 18.2841 6.08488 18.3573C6.05298 18.3875 6.11156 18.4706 6.31894 18.6894C7.16987 19.5873 8.02311 20.1212 8.73556 20.2014C9.17402 20.2508 9.92002 20.1543 10.1317 20.0207L10.2244 19.9622L10.1991 19.83C10.1851 19.7573 10.1026 19.5916 10.0157 19.4618C9.72849 19.0333 9.37638 18.7093 9.03813 18.5621C8.83876 18.4754 8.04708 18.2886 7.72658 18.2527ZM10.7505 20.519C10.4418 20.5129 10.3002 20.525 10.0075 20.5822C9.57933 20.6659 8.63988 20.9554 8.35962 21.0901C8.25318 21.1412 8.25087 21.1452 8.29589 21.2C8.39885 21.3253 9.25131 21.7876 9.73202 21.9789C10.4305 22.2567 11.264 22.3176 11.7987 22.1298C12.0151 22.0538 12.78 21.656 12.7952 21.6115C12.8074 21.5757 12.3321 21.1144 12.1428 20.9783C11.7711 20.7111 11.2162 20.5281 10.7505 20.519ZM13.729 22.2878C13.0689 22.2471 12.0948 22.5194 11.297 22.9676C11.1674 23.0405 11.0571 23.1164 11.052 23.1364C11.0413 23.1784 11.218 23.2831 11.6273 23.4772C11.8844 23.5992 12.0043 23.635 12.738 23.8091C13.6427 24.0238 13.7762 24.0369 14.1633 23.9491C14.5418 23.8631 15.4007 23.4169 15.4888 23.2603C15.5585 23.1364 15.2989 22.8891 14.8178 22.6213C14.5313 22.4618 14.0221 22.3058 13.729 22.2878Z" fill="url(#paint0_linear_378_709)"/>
</g>
<g filter="url(#filter1_d_378_709)">
<path d="M19.3436 10.58C19.3436 9.99333 19.2969 9.57333 19.2036 9.32C19.1236 9.06667 18.9369 8.88667 18.6436 8.78C18.3503 8.67333 17.8636 8.62 17.1836 8.62C17.1836 8.31333 17.2169 8.06 17.2836 7.86C18.6303 7.63333 19.7636 7.30667 20.6836 6.88C20.8703 6.94667 20.9903 7.06 21.0436 7.22C21.1103 7.36667 21.1436 7.59333 21.1436 7.9V13.94C21.1436 14.5667 21.1836 15.04 21.2636 15.36C21.3569 15.6667 21.5103 15.88 21.7236 16C21.9503 16.1067 22.2836 16.1733 22.7236 16.2C22.7903 16.4133 22.8236 16.7 22.8236 17.06C21.9836 17.02 21.0969 17 20.1636 17C19.1503 17 18.2503 17.02 17.4636 17.06C17.4636 16.7 17.4969 16.4133 17.5636 16.2C18.0169 16.1733 18.3636 16.1 18.6036 15.98C18.8569 15.86 19.0436 15.6467 19.1636 15.34C19.2836 15.02 19.3436 14.5533 19.3436 13.94V10.58Z" fill="url(#paint1_linear_378_709)"/>
</g>
<g filter="url(#filter2_d_378_709)">
<path fill-rule="evenodd" clip-rule="evenodd" d="M26.4265 0.310533C27.8906 0.571089 28.8755 1.11021 29.3292 1.89946C29.4492 2.10813 29.6259 2.67029 29.6093 2.7905C29.5983 2.87019 29.5823 2.88252 29.4489 2.91413C29.0692 3.00411 28.4264 2.91607 27.9618 2.71049C27.4433 2.48107 27.0647 2.11596 26.6103 1.40725C26.3785 1.0457 26.0266 0.412696 26.0005 0.310373C25.9854 0.251094 26.0927 0.251161 26.4265 0.310533ZM30.5283 0.362145C31.555 1.51941 31.943 2.5163 31.7241 3.43433C31.6712 3.65586 31.5101 4.07138 31.432 4.18733C31.362 4.29139 31.3633 4.29187 30.9686 4.02571C30.145 3.47029 29.8027 2.63201 29.9049 1.42066C29.935 1.0641 30.1421 0.00996035 30.184 2.78475e-05C30.1945 -0.00244806 30.3494 0.160491 30.5283 0.362145ZM27.8113 3.22972C28.3969 3.29152 29.0425 3.42257 29.4466 3.56173C29.6122 3.61871 29.9031 3.75561 30.0931 3.8659C30.3772 4.0308 30.4721 4.10545 30.6269 4.28585C30.826 4.51793 31.0783 4.94609 31.1859 5.23441C31.2459 5.39518 31.2461 5.41119 31.1891 5.46059C31.1467 5.4974 31.0366 5.53029 30.8314 5.56749C30.256 5.67186 29.6163 5.5552 29.0791 5.24791C28.7647 5.06812 28.5406 4.8769 28.2225 4.51706C27.7998 4.03889 27.3437 3.38027 27.3336 3.23373C27.3303 3.18486 27.3823 3.18443 27.8113 3.22972ZM32.8993 2.97915C33.041 3.16165 33.3767 3.79732 33.5203 4.15514C33.7807 4.80413 33.8968 5.43867 33.8333 5.86503C33.818 5.96713 33.7524 6.17786 33.6875 6.33333C33.5418 6.68194 33.2087 7.19174 33.1116 7.21475C33.0283 7.23448 32.8681 7.10921 32.6225 6.83248C32.3664 6.544 32.3104 6.42684 32.1742 5.89442C32.0291 5.32741 32.0253 5.18989 32.1407 4.6874C32.23 4.29833 32.5865 3.30539 32.7325 3.03903L32.8207 2.87801L32.8993 2.97915ZM30.1466 5.91588C31.038 6.22737 32.0087 6.79533 32.3691 7.21626C32.6143 7.50265 32.7267 7.74527 32.8645 8.28522C33.0132 8.86844 33.0068 8.93734 32.7994 8.98393C32.5329 9.04379 31.7499 8.81335 31.3439 8.55553C30.7542 8.18111 30.4626 7.74824 30.0589 6.64824C29.8733 6.14261 29.794 5.86439 29.8265 5.83253C29.8383 5.82096 29.9823 5.85848 30.1466 5.91588ZM35.1053 6.11489C35.1417 6.2577 35.2507 7.1292 35.264 7.3848C35.3128 8.31488 35.1168 9.07875 34.6902 9.62124C34.5151 9.84394 34.1685 10.1283 33.9476 10.2306C33.8049 10.2967 33.7783 10.3009 33.7142 10.2676C33.6071 10.2119 33.5189 10.0277 33.427 9.66723C33.1499 8.581 33.4377 7.81846 34.5739 6.62815C35.0135 6.16764 35.0979 6.08612 35.1053 6.11489ZM31.0221 8.80591C31.3906 9.04341 31.8638 9.39317 32.1081 9.60839C32.4471 9.90725 32.8444 10.473 33.0144 10.8992C33.1244 11.175 33.1394 12.1066 33.0371 12.3126L32.9961 12.395L32.8137 12.3528C32.5733 12.297 32.0769 12.0551 31.81 11.8636C31.5385 11.6688 31.3594 11.4758 31.1954 11.2016C31.0747 10.9998 31.0523 10.9323 30.8798 10.25C30.7448 9.71556 30.6874 9.4324 30.6692 9.21014C30.6408 8.86346 30.6505 8.66426 30.6971 8.63623C30.7147 8.62569 30.8609 8.70203 31.0221 8.80591ZM36.3072 9.87255C36.0372 10.9293 35.6591 11.6689 35.1247 12.1856C34.7952 12.5042 34.5119 12.643 33.8912 12.7901C33.5485 12.8713 33.467 12.8636 33.4373 12.7473C33.4042 12.6173 33.4346 12.123 33.4912 11.8723C33.6946 10.9707 34.5673 10.1647 35.8924 9.65439C36.0717 9.58535 36.2628 9.51061 36.3171 9.48829L36.4157 9.44773L36.3072 9.87255ZM31.0307 11.8646C31.6707 12.3768 32.243 12.9667 32.4917 13.3708C32.7764 13.8331 32.9109 14.3311 32.8792 14.8046C32.8612 15.0719 32.7707 15.4928 32.6961 15.6555C32.6574 15.7399 32.6563 15.7403 32.5563 15.707C32.3541 15.6398 31.6556 15.201 31.4932 15.0391C31.015 14.5623 30.7665 13.778 30.7323 12.6369C30.7232 12.336 30.752 11.8089 30.782 11.7252C30.7943 11.6909 30.8588 11.727 31.0307 11.8646ZM36.4925 12.3694C36.5306 12.4222 36.4236 12.7038 36.1528 13.2634C35.7259 14.1454 35.2782 14.6974 34.7389 15.0066C34.5122 15.1366 33.5323 15.3767 33.3722 15.3414C33.2223 15.3084 33.1913 15.1916 33.2474 14.8706C33.3135 14.4926 33.3929 14.2642 33.5553 13.9846C33.7313 13.6816 33.8732 13.5156 34.1462 13.2931C34.5956 12.9269 35.0904 12.6979 35.9114 12.4761C36.3964 12.3451 36.4658 12.3324 36.4925 12.3694ZM29.9743 13.9501C30.1448 14.0496 30.5544 14.5548 30.8746 15.0607C31.3801 15.8595 31.5475 16.6102 31.3726 17.2939C31.281 17.6517 31.0635 18.065 30.9517 18.0936C30.8276 18.1255 30.1896 17.586 29.972 17.2652C29.743 16.9276 29.5835 16.3756 29.5624 15.8479C29.5465 15.4464 29.7444 14.2517 29.8693 13.9962C29.9076 13.9177 29.914 13.9149 29.9743 13.9501ZM28.9029 16.0096C29.1802 16.5133 29.5118 17.8863 29.4863 18.4252C29.4654 18.8675 29.3119 19.3166 29.0544 19.6889C28.9082 19.9003 28.5866 20.2118 28.4913 20.2344C28.2617 20.2888 27.7956 19.4419 27.7231 18.8386C27.6379 18.1298 27.8347 17.5452 28.5598 16.3534L28.8393 15.8939L28.9029 16.0096ZM34.9477 15.4529C35.3475 15.4032 35.5047 15.4082 35.5456 15.4717C35.6184 15.5846 34.7165 16.7838 34.2705 17.167C34.0451 17.3606 33.5757 17.6445 33.2905 17.7596C33.0403 17.8606 32.7836 17.8852 32.2538 17.8591C31.8838 17.8409 31.7908 17.8172 31.7701 17.7358C31.7365 17.6044 31.9108 17.1431 32.1171 16.8171C32.2891 16.5452 32.3579 16.4677 32.5966 16.2762C33.016 15.9399 33.2431 15.8357 33.9527 15.6542C34.3425 15.5545 34.6817 15.4859 34.9477 15.4529ZM27.239 18.5993C27.3028 18.6192 27.2698 18.8993 27.1401 19.4411C26.8823 20.5174 26.5595 21.1005 25.9556 21.5809C25.6248 21.844 25.4784 21.9135 25.0311 22.0195C24.6188 22.1172 24.5969 22.1101 24.5657 21.8689C24.5336 21.6211 24.5594 21.1751 24.6208 20.9125C24.7362 20.4201 25.0738 19.9271 25.5563 19.5466C26.0059 19.192 27.123 18.5632 27.239 18.5993ZM32.2734 18.2527C32.661 18.2091 33.8378 18.2841 33.9151 18.3573C33.947 18.3875 33.8884 18.4706 33.6811 18.6894C32.8301 19.5873 31.9769 20.1212 31.2644 20.2014C30.826 20.2508 30.08 20.1543 29.8683 20.0207L29.7756 19.9622L29.8009 19.83C29.8149 19.7573 29.8974 19.5916 29.9843 19.4618C30.2715 19.0333 30.6236 18.7093 30.9619 18.5621C31.1612 18.4754 31.9529 18.2886 32.2734 18.2527ZM29.2495 20.519C29.5582 20.5129 29.6998 20.525 29.9925 20.5822C30.4207 20.6659 31.3601 20.9554 31.6404 21.0901C31.7468 21.1412 31.7491 21.1452 31.7041 21.2C31.6011 21.3253 30.7487 21.7876 30.268 21.9789C29.5695 22.2567 28.736 22.3176 28.2013 22.1298C27.9849 22.0538 27.22 21.656 27.2048 21.6115C27.1926 21.5757 27.6679 21.1144 27.8572 20.9783C28.2289 20.7111 28.7838 20.5281 29.2495 20.519ZM26.271 22.2878C26.9311 22.2471 27.9052 22.5194 28.703 22.9676C28.8326 23.0405 28.9429 23.1164 28.948 23.1364C28.9587 23.1784 28.782 23.2831 28.3727 23.4772C28.1156 23.5992 27.9957 23.635 27.262 23.8091C26.3573 24.0238 26.2238 24.0369 25.8367 23.9491C25.4582 23.8631 24.5993 23.4169 24.5112 23.2603C24.4415 23.1364 24.7011 22.8891 25.1822 22.6213C25.4687 22.4618 25.9779 22.3058 26.271 22.2878Z" fill="url(#paint2_linear_378_709)"/>
</g>
<defs>
<filter id="filter0_d_378_709" x="2.5" y="0" width="14" height="26" filterUnits="userSpaceOnUse" color-interpolation-filters="sRGB">
<feFlood flood-opacity="0" result="BackgroundImageFix"/>
<feColorMatrix in="SourceAlpha" type="matrix" values="0 0 0 0 0 0 0 0 0 0 0 0 0 0 0 0 0 0 127 0" result="hardAlpha"/>
<feOffset dy="1"/>
<feGaussianBlur stdDeviation="0.5"/>
<feComposite in2="hardAlpha" operator="out"/>
<feColorMatrix type="matrix" values="0 0 0 0 0 0 0 0 0 0 0 0 0 0 0 0 0 0 0.25 0"/>
<feBlend mode="normal" in2="BackgroundImageFix" result="effect1_dropShadow_378_709"/>
<feBlend mode="normal" in="SourceGraphic" in2="effect1_dropShadow_378_709" result="shape"/>
</filter>
<filter id="filter1_d_378_709" x="16.1836" y="6.87988" width="7.63965" height="12.1802" filterUnits="userSpaceOnUse" color-interpolation-filters="sRGB">
<feFlood flood-opacity="0" result="BackgroundImageFix"/>
<feColorMatrix in="SourceAlpha" type="matrix" values="0 0 0 0 0 0 0 0 0 0 0 0 0 0 0 0 0 0 127 0" result="hardAlpha"/>
<feOffset dy="1"/>
<feGaussianBlur stdDeviation="0.5"/>
<feComposite in2="hardAlpha" operator="out"/>
<feColorMatrix type="matrix" values="0 0 0 0 0 0 0 0 0 0 0 0 0 0 0 0 0 0 0.25 0"/>
<feBlend mode="normal" in2="BackgroundImageFix" result="effect1_dropShadow_378_709"/>
<feBlend mode="normal" in="SourceGraphic" in2="effect1_dropShadow_378_709" result="shape"/>
</filter>
<filter id="filter2_d_378_709" x="23.5" y="0" width="14" height="26" filterUnits="userSpaceOnUse" color-interpolation-filters="sRGB">
<feFlood flood-opacity="0" result="BackgroundImageFix"/>
<feColorMatrix in="SourceAlpha" type="matrix" values="0 0 0 0 0 0 0 0 0 0 0 0 0 0 0 0 0 0 127 0" result="hardAlpha"/>
<feOffset dy="1"/>
<feGaussianBlur stdDeviation="0.5"/>
<feComposite in2="hardAlpha" operator="out"/>
<feColorMatrix type="matrix" values="0 0 0 0 0 0 0 0 0 0 0 0 0 0 0 0 0 0 0.25 0"/>
<feBlend mode="normal" in2="BackgroundImageFix" result="effect1_dropShadow_378_709"/>
<feBlend mode="normal" in="SourceGraphic" in2="effect1_dropShadow_378_709" result="shape"/>
</filter>
<linearGradient id="paint0_linear_378_709" x1="9.5" y1="0" x2="9.5" y2="24" gradientUnits="userSpaceOnUse">
<stop stop-color="#F8F8F8"/>
<stop offset="0.7" stop-color="#FFD485"/>
<stop offset="1" stop-color="#986D2F"/>
</linearGradient>
<linearGradient id="paint1_linear_378_709" x1="20" y1="2" x2="20" y2="22" gradientUnits="userSpaceOnUse">
<stop stop-color="#F8F8F8"/>
<stop offset="0.7" stop-color="#FFD485"/>
<stop offset="1" stop-color="#986D2F"/>
</linearGradient>
<linearGradient id="paint2_linear_378_709" x1="30.5" y1="0" x2="30.5" y2="24" gradientUnits="userSpaceOnUse">
<stop stop-color="#F8F8F8"/>
<stop offset="0.7" stop-color="#FFD485"/>
<stop offset="1" stop-color="#986D2F"/>
</linearGradient>
</defs>
</svg>
