<svg width="44" height="44" viewBox="0 0 44 44" fill="none" xmlns="http://www.w3.org/2000/svg">
<path d="M15.2308 3.38477H8.46161L1.69238 12.6925V31.3078L8.46161 40.6155H15.2308H28.7693H35.5385L42.3078 31.3078V12.6925L35.5385 3.38477H28.7693H15.2308Z" fill="url(#paint0_linear_582_4406)"/>
<path d="M15.2308 3.38477H8.46161L1.69238 12.6925V31.3078L8.46161 40.6155H15.2308H28.7693H35.5385L42.3078 31.3078V12.6925L35.5385 3.38477H28.7693H15.2308Z" fill="url(#paint1_linear_582_4406)"/>
<path d="M15.2308 0H9.51923L0 9.82143V34.1786L9.51923 44H15.2308H28.7692H34.4808L44 34.1786V9.82143L34.4808 0H28.7692H15.2308ZM28.7692 40.6154H15.2308C-1.71588 40.6154 -2.80811 3.38462 15.2308 3.38462H28.7692C46.8081 3.38462 45.7159 40.6154 28.7692 40.6154Z" fill="url(#paint2_linear_582_4406)"/>
<path fill-rule="evenodd" clip-rule="evenodd" d="M18.8988 14.3713L18.8846 15.7426L17.3269 15.7567L15.7692 15.7708V17.341V18.9112H14.3846H13V22V25.0888H14.3846H15.7692V26.6323V28.1759L17.3269 28.19L18.8846 28.2041L18.8988 29.6021L18.913 31H21.9734H25.0337L25.0479 29.6021L25.0621 28.2041L26.6464 28.19L28.2308 28.1759V26.6323V25.0888H29.6154H31V22V18.9112H29.6154H28.2308V17.341V15.7708L26.6464 15.7567L25.0621 15.7426L25.0479 14.3713L25.0337 13H21.9734H18.9131L18.8988 14.3713ZM19.6035 16.6479V19.6035H16.6479H13.6923V22V24.3964H16.6479H19.6035V27.3521V30.3077H21.9734H24.3432V27.3525V24.3974L27.3121 24.3836L30.2811 24.3698L30.2949 21.9867L30.3088 19.6035H27.326H24.3432V16.6479V13.6923H21.9734H19.6035V16.6479Z" fill="url(#paint3_linear_582_4406)"/>
<defs>
<linearGradient id="paint0_linear_582_4406" x1="35.6592" y1="3.38477" x2="35.6592" y2="40.6155" gradientUnits="userSpaceOnUse">
<stop stop-color="#DD585B"/>
<stop offset="0.317308" stop-color="#E06665"/>
<stop offset="1" stop-color="#97292A"/>
</linearGradient>
<linearGradient id="paint1_linear_582_4406" x1="35.6592" y1="6.04411" x2="35.6592" y2="37.9562" gradientUnits="userSpaceOnUse">
<stop stop-color="#17181D"/>
<stop offset="0.317308" stop-color="#1D1E22"/>
<stop offset="1"/>
</linearGradient>
<linearGradient id="paint2_linear_582_4406" x1="38.2885" y1="0" x2="38.2885" y2="36.8824" gradientUnits="userSpaceOnUse">
<stop stop-color="#F8F8F8"/>
<stop offset="0.7" stop-color="#FADFAE"/>
<stop offset="1" stop-color="#FBD298"/>
</linearGradient>
<linearGradient id="paint3_linear_582_4406" x1="22" y1="13" x2="22" y2="31" gradientUnits="userSpaceOnUse">
<stop stop-color="#F8F8F8"/>
<stop offset="0.7" stop-color="#FADFAE"/>
<stop offset="1" stop-color="#FBD298"/>
</linearGradient>
</defs>
</svg>
