<svg width="60" height="60" viewBox="0 0 60 60" fill="none" xmlns="http://www.w3.org/2000/svg">
<g filter="url(#filter0_dddddi_1585_3607)">
<path fill-rule="evenodd" clip-rule="evenodd" d="M28.1128 24.259C27.5619 24.4951 27.6413 24.5175 29.0508 24.5231C31.5708 24.5332 33.654 25.8063 34.823 28.05C35.2965 28.9593 35.3755 29.3712 35.3799 30.9538C35.3847 32.745 35.3937 32.7779 35.6868 32.1048C35.8527 31.7235 35.9934 30.7457 35.9994 29.9318C36.0086 28.6854 35.9113 28.2576 35.3812 27.2172C34.6835 25.8477 33.2763 24.6165 31.9535 24.2186C30.9287 23.9104 28.8757 23.9319 28.1128 24.259ZM25.4143 25.3774C25.1502 25.6424 25.2765 26.2399 25.625 26.3742C26.0767 26.5482 26.5803 26.0425 26.4071 25.589C26.2733 25.2391 25.6782 25.1123 25.4143 25.3774ZM28.195 25.9898C26.567 26.6986 25.6221 28.2174 25.6381 30.1001C25.6704 33.8844 30.0864 35.8376 32.9342 33.3272C35.3084 31.2342 34.7846 27.5446 31.9018 26.0557C30.9633 25.5712 29.2276 25.5403 28.195 25.9898ZM24.244 28.3248C23.4544 31.179 24.6195 33.9802 27.1806 35.387C28.1358 35.9117 28.5243 36.0006 29.8611 36C30.7949 35.9996 31.7119 35.8725 32.1384 35.6848C32.8456 35.373 32.8387 35.3711 31.374 35.4542C29.4288 35.5645 28.1022 35.1181 26.751 33.8984C25.2552 32.5481 24.5573 31.0101 24.5573 29.0648C24.5573 28.2262 24.5357 27.54 24.5092 27.54C24.4827 27.54 24.3633 27.8932 24.244 28.3248ZM33.9606 33.958C33.5177 34.4025 34.0038 35.1313 34.6033 34.9211C35.031 34.7715 34.9259 33.8184 34.4817 33.8184C34.2714 33.8184 34.0369 33.8812 33.9606 33.958Z" fill="url(#paint0_radial_1585_3607)"/>
</g>
<defs>
<filter id="filter0_dddddi_1585_3607" x="0" y="0" width="60" height="60" filterUnits="userSpaceOnUse" color-interpolation-filters="sRGB">
<feFlood flood-opacity="0" result="BackgroundImageFix"/>
<feColorMatrix in="SourceAlpha" type="matrix" values="0 0 0 0 0 0 0 0 0 0 0 0 0 0 0 0 0 0 127 0" result="hardAlpha"/>
<feOffset/>
<feGaussianBlur stdDeviation="2"/>
<feComposite in2="hardAlpha" operator="out"/>
<feColorMatrix type="matrix" values="0 0 0 0 0.968627 0 0 0 0 0.87451 0 0 0 0 0.439216 0 0 0 1 0"/>
<feBlend mode="normal" in2="BackgroundImageFix" result="effect1_dropShadow_1585_3607"/>
<feColorMatrix in="SourceAlpha" type="matrix" values="0 0 0 0 0 0 0 0 0 0 0 0 0 0 0 0 0 0 127 0" result="hardAlpha"/>
<feOffset/>
<feGaussianBlur stdDeviation="2"/>
<feComposite in2="hardAlpha" operator="out"/>
<feColorMatrix type="matrix" values="0 0 0 0 0.972549 0 0 0 0 0.87451 0 0 0 0 0.427451 0 0 0 1 0"/>
<feBlend mode="normal" in2="effect1_dropShadow_1585_3607" result="effect2_dropShadow_1585_3607"/>
<feColorMatrix in="SourceAlpha" type="matrix" values="0 0 0 0 0 0 0 0 0 0 0 0 0 0 0 0 0 0 127 0" result="hardAlpha"/>
<feOffset/>
<feGaussianBlur stdDeviation="5"/>
<feComposite in2="hardAlpha" operator="out"/>
<feColorMatrix type="matrix" values="0 0 0 0 0.796078 0 0 0 0 0.239216 0 0 0 0 0.0862745 0 0 0 1 0"/>
<feBlend mode="normal" in2="effect2_dropShadow_1585_3607" result="effect3_dropShadow_1585_3607"/>
<feColorMatrix in="SourceAlpha" type="matrix" values="0 0 0 0 0 0 0 0 0 0 0 0 0 0 0 0 0 0 127 0" result="hardAlpha"/>
<feOffset/>
<feGaussianBlur stdDeviation="7.5"/>
<feComposite in2="hardAlpha" operator="out"/>
<feColorMatrix type="matrix" values="0 0 0 0 0.796078 0 0 0 0 0.239216 0 0 0 0 0.0862745 0 0 0 1 0"/>
<feBlend mode="normal" in2="effect3_dropShadow_1585_3607" result="effect4_dropShadow_1585_3607"/>
<feColorMatrix in="SourceAlpha" type="matrix" values="0 0 0 0 0 0 0 0 0 0 0 0 0 0 0 0 0 0 127 0" result="hardAlpha"/>
<feOffset/>
<feGaussianBlur stdDeviation="12"/>
<feComposite in2="hardAlpha" operator="out"/>
<feColorMatrix type="matrix" values="0 0 0 0 0.796078 0 0 0 0 0.239216 0 0 0 0 0.0862745 0 0 0 1 0"/>
<feBlend mode="normal" in2="effect4_dropShadow_1585_3607" result="effect5_dropShadow_1585_3607"/>
<feBlend mode="normal" in="SourceGraphic" in2="effect5_dropShadow_1585_3607" result="shape"/>
<feColorMatrix in="SourceAlpha" type="matrix" values="0 0 0 0 0 0 0 0 0 0 0 0 0 0 0 0 0 0 127 0" result="hardAlpha"/>
<feOffset/>
<feGaussianBlur stdDeviation="0.25"/>
<feComposite in2="hardAlpha" operator="arithmetic" k2="-1" k3="1"/>
<feColorMatrix type="matrix" values="0 0 0 0 1 0 0 0 0 1 0 0 0 0 1 0 0 0 1 0"/>
<feBlend mode="normal" in2="shape" result="effect6_innerShadow_1585_3607"/>
</filter>
<radialGradient id="paint0_radial_1585_3607" cx="0" cy="0" r="1" gradientUnits="userSpaceOnUse" gradientTransform="translate(29.9999 30) scale(6.14286 6.14286)">
<stop offset="0.168269" stop-color="#F8F8F8"/>
<stop offset="0.283654" stop-color="#F8DF6D"/>
<stop offset="0.774038" stop-color="#CB3D16"/>
</radialGradient>
</defs>
</svg>
