<svg width="20" height="20" viewBox="0 0 20 20" fill="none" xmlns="http://www.w3.org/2000/svg">
<path fill-rule="evenodd" clip-rule="evenodd" d="M6.89883 2.3713L6.88462 3.7426L5.32692 3.75672L3.76923 3.77083V5.34104V6.91124H2.38462H1V10V13.0888H2.38462H3.76923V14.6323V16.1759L5.32692 16.19L6.88462 16.2041L6.89883 17.6021L6.913 19H9.97337H13.0337L13.0479 17.6021L13.0621 16.2041L14.6464 16.19L16.2308 16.1759V14.6323V13.0888H17.6154H19V10V6.91124H17.6154H16.2308V5.34104V3.77083L14.6464 3.75672L13.0621 3.7426L13.0479 2.3713L13.0337 1H9.97337H6.91305L6.89883 2.3713ZM7.60355 4.64793V7.60355H4.64793H1.69231V10V12.3964H4.64793H7.60355V15.3521V18.3077H9.97337H12.3432V15.3525V12.3974L15.3121 12.3836L18.2811 12.3698L18.2949 9.98669L18.3088 7.60355H15.326H12.3432V4.64793V1.69231H9.97337H7.60355V4.64793Z" fill="url(#paint0_linear_583_4463)"/>
<defs>
<linearGradient id="paint0_linear_583_4463" x1="10" y1="1" x2="10" y2="19" gradientUnits="userSpaceOnUse">
<stop stop-color="#F8F8F8"/>
<stop offset="0.7" stop-color="#FADFAE"/>
<stop offset="1" stop-color="#FBD298"/>
</linearGradient>
</defs>
</svg>
