<svg width="20" height="20" viewBox="0 0 20 20" fill="none" xmlns="http://www.w3.org/2000/svg">
<path fill-rule="evenodd" clip-rule="evenodd" d="M9.30645 1.1683C8.74552 1.44816 8.32275 2.04178 8.11666 2.8389C7.99782 3.29848 8.03181 4.14189 8.18867 4.62463C8.25173 4.81877 8.45034 5.19895 8.63868 5.48624L8.97581 6.00036L8.52047 6.13681C7.93351 6.31276 7.79346 6.38859 7.49225 6.6934C7.0136 7.17782 6.66892 7.96239 6.44104 9.08608C6.28847 9.83854 6.16225 11.1469 6.14188 12.1866L6.12726 12.9306L6.96526 12.9449L7.80325 12.9592L8.02254 15.8619C8.14316 17.4584 8.24335 18.8176 8.24513 18.8823L8.24843 19H10.0815H11.9147V18.8736C11.9147 18.8041 11.9971 17.506 12.098 15.989C12.1988 14.4719 12.2813 13.1637 12.2813 13.0818V12.9331H13.0931H13.9049V12.4962C13.9049 11.7082 13.7979 9.93687 13.7164 9.37656C13.4786 7.73959 12.9606 6.71124 12.1765 6.31893C12.0469 6.25407 11.7641 6.15936 11.548 6.10847C11.332 6.05758 11.1359 5.99848 11.1124 5.97719C11.0888 5.9559 11.2076 5.7285 11.3763 5.4718C11.759 4.88985 11.9182 4.42902 11.9537 3.80025C12.0604 1.90904 10.6439 0.500829 9.30645 1.1683ZM2.74539 1.13216C2.40375 1.22416 2.07573 1.43048 1.79558 1.72954C0.80355 2.78864 0.837698 4.74837 1.87189 6.10674L2.11003 6.4195L1.81417 6.73629C1.46494 7.11025 1.27345 7.47018 1.11916 8.04288C0.960097 8.63331 0.960307 9.81229 1.11963 10.7625C1.21286 11.3185 1.63945 13.2036 1.72545 13.4394C1.74142 13.4832 1.96878 13.4429 2.50724 13.3008L3.26657 13.1004L3.34235 13.3175C3.45155 13.6304 4.87981 17.7902 5.06443 18.3332L5.22009 18.7908H6.37322C7.40327 18.7908 7.52299 18.782 7.49461 18.7081C7.47711 18.6626 7.46282 18.5096 7.46282 18.3681V18.1109H6.60173C6.12292 18.1109 5.72718 18.0891 5.71031 18.0619C5.69366 18.0349 5.2424 16.7346 4.70755 15.1722C4.17265 13.6099 3.72369 12.3202 3.70987 12.3062C3.6875 12.2837 2.5184 12.5704 2.31534 12.6483C2.25113 12.6729 2.20441 12.5472 2.07374 11.9982C1.57476 9.90224 1.54983 8.51736 1.99533 7.63948C2.16958 7.29612 2.43475 7.04314 2.91948 6.75794L3.32549 6.51898L2.9915 6.25167C2.57156 5.91563 2.33807 5.63148 2.09992 5.16657C1.51192 4.01856 1.69732 2.59293 2.51059 2.00977C3.13532 1.56171 3.99065 1.71098 4.60683 2.37552C4.92155 2.715 5.09748 3.00789 5.26879 3.47776C5.37108 3.75831 5.38842 3.90616 5.38716 4.48639C5.38585 5.08917 5.36977 5.2104 5.2458 5.55465C5.16892 5.76825 5.10596 5.95993 5.10596 5.98064C5.10596 6.00135 5.38287 6.0275 5.72136 6.0388C6.21484 6.05528 6.38751 6.08237 6.59303 6.17546L6.8493 6.29152L7.09834 6.06887C7.23535 5.94644 7.34979 5.83211 7.35272 5.81485C7.36446 5.74571 6.68395 5.44848 6.38903 5.39393L6.07468 5.33572L6.07479 4.57112C6.07489 3.67709 6.00586 3.35402 5.67271 2.68932C5.41481 2.17484 4.92066 1.63713 4.47459 1.38561C3.93906 1.08362 3.28286 0.987492 2.74539 1.13216ZM16.0261 1.10977C15.4396 1.25303 14.7183 1.83007 14.3455 2.45428C13.9083 3.18608 13.7697 3.78728 13.8154 4.75287L13.8458 5.39445L13.5834 5.45062C13.4391 5.48153 13.192 5.56992 13.0343 5.64706L12.7475 5.78728L12.9186 5.92097C13.0127 5.99455 13.1335 6.10491 13.1869 6.16626C13.2838 6.27761 13.2846 6.27766 13.5426 6.1797C13.7329 6.10753 13.9396 6.08158 14.3245 6.08158C14.6122 6.08158 14.8476 6.07431 14.8476 6.06542C14.8476 6.05658 14.7718 5.85062 14.6792 5.60779C14.5215 5.19429 14.5108 5.12327 14.509 4.48639C14.507 3.73995 14.5617 3.50062 14.8671 2.91945C15.341 2.01767 16.3482 1.5194 17.0607 1.83415C17.9266 2.21662 18.3393 3.3275 18.0439 4.48069C17.8774 5.13075 17.6153 5.57212 17.0923 6.08258L16.6358 6.52818L17.0118 6.73164C17.5267 7.01019 17.7403 7.18655 17.9406 7.49816C18.2022 7.90528 18.3062 8.35428 18.3091 9.08891C18.3124 9.93169 18.1592 10.8181 17.7246 12.4712L17.6741 12.6631L16.9886 12.481C16.6117 12.3808 16.293 12.3091 16.2805 12.3216C16.268 12.3341 15.8266 13.6359 15.2995 15.2145L14.3413 18.0847L13.5279 18.0991L12.7146 18.1134L12.6817 18.3868C12.6206 18.8949 12.5075 18.8471 13.7303 18.8311L14.8128 18.8169L15.7539 15.9927C16.2716 14.4393 16.7033 13.1589 16.7134 13.1473C16.7234 13.1358 17.05 13.2102 17.4392 13.3128C17.8283 13.4153 18.1561 13.4837 18.1677 13.4646C18.2323 13.3577 18.7862 11.0242 18.8836 10.4487C19.0162 9.66422 19.0389 8.63284 18.9343 8.14748C18.7974 7.5127 18.4082 6.85831 17.9565 6.5035L17.8159 6.39309L17.9804 6.17196C18.7605 5.12337 19.0219 3.83111 18.6759 2.7343C18.4478 2.01124 17.8669 1.37923 17.2343 1.16589C16.9149 1.05815 16.3455 1.03169 16.0261 1.10977Z" fill="url(#paint0_linear_582_4343)"/>
<defs>
<linearGradient id="paint0_linear_582_4343" x1="10" y1="1" x2="10" y2="19" gradientUnits="userSpaceOnUse">
<stop stop-color="#F8F8F8"/>
<stop offset="0.7" stop-color="#FADFAE"/>
<stop offset="1" stop-color="#FBD298"/>
</linearGradient>
</defs>
</svg>
