<svg width="600" height="9" viewBox="0 0 600 9" fill="none" xmlns="http://www.w3.org/2000/svg">
<path d="M302.666 3.65791V4.65003L300.496 6.82064H299.504L297.333 4.6501V3.65785L299.504 1.4873H300.496L302.666 3.65791Z" fill="url(#paint0_linear_280_1317)"/>
<path d="M304 3.4102V4.89839L300.744 8.1543H299.256L296 4.89848V3.41011L299.256 0.154297H300.744L304 3.4102ZM297.395 3.98805V4.32054L299.834 6.75895H300.166L302.605 4.32045V3.98814L300.166 1.54965H299.834L297.395 3.98805Z" fill="url(#paint1_linear_280_1317)"/>
<path d="M0.673746 2.1543C4.09209 2.1543 293.87 3.40462 294 3.40462V4.90483C293.87 4.90483 4.08817 6.1543 0.669819 6.1543C-0.225822 4.78998 -0.222024 3.51835 0.673746 2.1543Z" fill="url(#paint2_linear_280_1317)"/>
<path d="M599.326 2.1543C595.908 2.1543 306.13 3.40462 306 3.40462V4.90483C306.13 4.90483 595.912 5.1543 599.33 5.1543C600.226 3.78998 600.222 3.51835 599.326 2.1543Z" fill="url(#paint3_linear_280_1317)"/>
<defs>
<linearGradient id="paint0_linear_280_1317" x1="300" y1="1.86826" x2="300" y2="6.43969" gradientUnits="userSpaceOnUse">
<stop stop-color="#17181D"/>
<stop offset="0.317308" stop-color="#1D1E22"/>
<stop offset="1"/>
</linearGradient>
<linearGradient id="paint1_linear_280_1317" x1="289.793" y1="-5.8457" x2="289.793" y2="10.919" gradientUnits="userSpaceOnUse">
<stop stop-color="#F8F8F8"/>
<stop offset="0.7" stop-color="#FADFAE"/>
<stop offset="1" stop-color="#FBD298"/>
</linearGradient>
<linearGradient id="paint2_linear_280_1317" x1="289.793" y1="-5.8457" x2="289.793" y2="10.919" gradientUnits="userSpaceOnUse">
<stop stop-color="#F8F8F8"/>
<stop offset="0.7" stop-color="#FADFAE"/>
<stop offset="1" stop-color="#FBD298"/>
</linearGradient>
<linearGradient id="paint3_linear_280_1317" x1="289.793" y1="-5.8457" x2="289.793" y2="10.919" gradientUnits="userSpaceOnUse">
<stop stop-color="#F8F8F8"/>
<stop offset="0.7" stop-color="#FADFAE"/>
<stop offset="1" stop-color="#FBD298"/>
</linearGradient>
</defs>
</svg>
