<svg width="18" height="18" viewBox="0 0 18 18" fill="none" xmlns="http://www.w3.org/2000/svg">
<path d="M15 7.88386V10.1161L10.1161 15H7.88372L3 10.1163V7.88372L7.88372 3H10.1161L15 7.88386Z" fill="white"/>
<path d="M15 7.88386V10.1161L10.1161 15H7.88372L3 10.1163V7.88372L7.88372 3H10.1161L15 7.88386Z" fill="url(#paint0_linear_87_1402)"/>
<path d="M18 7.32578V10.6742L10.6742 18H7.32558L0 10.6744V7.32558L7.32558 0H10.6742L18 7.32578ZM3.13953 8.62595V9.37405L8.62595 14.8605H9.37384L14.8605 9.37384V8.62616L9.37384 3.13953H8.62595L3.13953 8.62595Z" fill="url(#paint1_linear_87_1402)"/>
<defs>
<linearGradient id="paint0_linear_87_1402" x1="9" y1="3.85714" x2="9" y2="14.1429" gradientUnits="userSpaceOnUse">
<stop stop-color="#17181D"/>
<stop offset="0.317308" stop-color="#1D1E22"/>
<stop offset="1"/>
</linearGradient>
<linearGradient id="paint1_linear_87_1402" x1="14.25" y1="-19" x2="14.25" y2="27.9412" gradientUnits="userSpaceOnUse">
<stop stop-color="#F8F8F8"/>
<stop offset="0.7" stop-color="#FADFAE"/>
<stop offset="1" stop-color="#FBD298"/>
</linearGradient>
</defs>
</svg>
