<svg width="360" height="167" viewBox="0 0 360 167" fill="none" xmlns="http://www.w3.org/2000/svg">
                <path d="M33.4649 87.8884L39.4194 109.567L5.12312 109.528L33.4649 87.8884Z" fill="#1B263B" stroke="#B46B26"/>
                <path d="M192.896 5.48145C280.474 -14.7839 334.698 31.0566 355.627 66.2129C361.743 79.1428 360.341 92.4721 353.351 105.056C346.349 117.661 333.742 129.507 317.495 139.376C285.511 158.804 239.551 170.485 194.97 165.247L192.848 164.985C149.883 159.411 103.866 150.858 71.8246 137.435C55.7964 130.72 43.3355 122.814 36.4789 113.515C33.057 108.873 31.0357 103.891 30.6537 98.5342C30.2836 93.3438 31.4497 87.7669 34.4222 81.7686L34.7162 81.1865C45.6177 59.9241 63.1736 46.0817 89.0091 35.0107C114.864 23.9315 148.959 15.6482 192.896 5.48145Z" fill="#1B263B" stroke="#B46B26"/>
                <path d="M9.65133 107.587L37.5 85L44.5 109.5L27 109L9.65133 107.587Z" fill="#1B263B"/>
                <path d="M107.66 48.3594V64H105.598V50.0566H97.8847V64H95.8115V48.3594H107.66ZM110.593 58.3174V58.0703C110.593 57.2324 110.714 56.4554 110.958 55.7393C111.201 55.016 111.552 54.3893 112.011 53.8594C112.469 53.3223 113.024 52.9069 113.676 52.6133C114.327 52.3125 115.058 52.1621 115.867 52.1621C116.684 52.1621 117.418 52.3125 118.069 52.6133C118.728 52.9069 119.287 53.3223 119.745 53.8594C120.211 54.3893 120.565 55.016 120.809 55.7393C121.052 56.4554 121.174 57.2324 121.174 58.0703V58.3174C121.174 59.1553 121.052 59.9323 120.809 60.6484C120.565 61.3646 120.211 61.9912 119.745 62.5283C119.287 63.0583 118.732 63.4736 118.08 63.7744C117.436 64.068 116.705 64.2148 115.889 64.2148C115.072 64.2148 114.338 64.068 113.686 63.7744C113.035 63.4736 112.476 63.0583 112.011 62.5283C111.552 61.9912 111.201 61.3646 110.958 60.6484C110.714 59.9323 110.593 59.1553 110.593 58.3174ZM112.58 58.0703V58.3174C112.58 58.8975 112.648 59.4453 112.784 59.9609C112.92 60.4694 113.124 60.9206 113.396 61.3145C113.676 61.7083 114.023 62.0199 114.438 62.249C114.854 62.471 115.337 62.582 115.889 62.582C116.433 62.582 116.909 62.471 117.317 62.249C117.733 62.0199 118.076 61.7083 118.349 61.3145C118.621 60.9206 118.825 60.4694 118.961 59.9609C119.104 59.4453 119.176 58.8975 119.176 58.3174V58.0703C119.176 57.4974 119.104 56.9567 118.961 56.4482C118.825 55.9326 118.617 55.4779 118.338 55.084C118.066 54.6829 117.722 54.3678 117.307 54.1387C116.898 53.9095 116.419 53.7949 115.867 53.7949C115.323 53.7949 114.843 53.9095 114.428 54.1387C114.02 54.3678 113.676 54.6829 113.396 55.084C113.124 55.4779 112.92 55.9326 112.784 56.4482C112.648 56.9567 112.58 57.4974 112.58 58.0703ZM124.987 52.377H126.975L126.803 56.7275C126.76 57.8304 126.634 58.7829 126.427 59.585C126.219 60.387 125.954 61.071 125.632 61.6367C125.31 62.1953 124.948 62.6644 124.547 63.0439C124.153 63.4235 123.745 63.7422 123.322 64H122.334L122.388 62.3779L122.796 62.3672C123.032 62.0879 123.261 61.8014 123.483 61.5078C123.705 61.207 123.909 60.8525 124.096 60.4443C124.282 60.029 124.436 59.5241 124.558 58.9297C124.686 58.3281 124.769 57.5941 124.805 56.7275L124.987 52.377ZM125.481 52.377H132.475V64H130.487V54.2139H125.481V52.377ZM121.883 62.3672H133.968V67.4268H131.98V64H123.87V67.4268H121.872L121.883 62.3672ZM135.644 58.3174V58.0703C135.644 57.2324 135.765 56.4554 136.009 55.7393C136.252 55.016 136.603 54.3893 137.061 53.8594C137.52 53.3223 138.075 52.9069 138.727 52.6133C139.378 52.3125 140.109 52.1621 140.918 52.1621C141.734 52.1621 142.468 52.3125 143.12 52.6133C143.779 52.9069 144.338 53.3223 144.796 53.8594C145.261 54.3893 145.616 55.016 145.859 55.7393C146.103 56.4554 146.225 57.2324 146.225 58.0703V58.3174C146.225 59.1553 146.103 59.9323 145.859 60.6484C145.616 61.3646 145.261 61.9912 144.796 62.5283C144.338 63.0583 143.783 63.4736 143.131 63.7744C142.486 64.068 141.756 64.2148 140.939 64.2148C140.123 64.2148 139.389 64.068 138.737 63.7744C138.086 63.4736 137.527 63.0583 137.061 62.5283C136.603 61.9912 136.252 61.3646 136.009 60.6484C135.765 59.9323 135.644 59.1553 135.644 58.3174ZM137.631 58.0703V58.3174C137.631 58.8975 137.699 59.4453 137.835 59.9609C137.971 60.4694 138.175 60.9206 138.447 61.3145C138.727 61.7083 139.074 62.0199 139.489 62.249C139.905 62.471 140.388 62.582 140.939 62.582C141.484 62.582 141.96 62.471 142.368 62.249C142.783 62.0199 143.127 61.7083 143.399 61.3145C143.672 60.9206 143.876 60.4694 144.012 59.9609C144.155 59.4453 144.227 58.8975 144.227 58.3174V58.0703C144.227 57.4974 144.155 56.9567 144.012 56.4482C143.876 55.9326 143.668 55.4779 143.389 55.084C143.117 54.6829 142.773 54.3678 142.357 54.1387C141.949 53.9095 141.469 53.7949 140.918 53.7949C140.374 53.7949 139.894 53.9095 139.478 54.1387C139.07 54.3678 138.727 54.6829 138.447 55.084C138.175 55.4779 137.971 55.9326 137.835 56.4482C137.699 56.9567 137.631 57.4974 137.631 58.0703ZM156.172 47.3174H157.805C157.805 48.0192 157.697 48.5778 157.482 48.9932C157.268 49.4014 156.974 49.7165 156.602 49.9385C156.236 50.1605 155.821 50.3288 155.355 50.4434C154.897 50.5579 154.421 50.6689 153.927 50.7764C153.311 50.9053 152.738 51.1094 152.208 51.3887C151.685 51.6608 151.234 52.0475 150.854 52.5488C150.482 53.0501 150.206 53.7018 150.027 54.5039C149.855 55.306 149.809 56.2979 149.888 57.4795V58.4678H148.255V57.4795C148.255 56.1546 148.38 54.998 148.631 54.0098C148.889 53.0215 149.25 52.1872 149.716 51.5068C150.181 50.8265 150.733 50.2858 151.37 49.8848C152.015 49.4837 152.724 49.208 153.497 49.0576C154.056 48.9502 154.535 48.8356 154.936 48.7139C155.338 48.585 155.642 48.4131 155.85 48.1982C156.064 47.9834 156.172 47.6898 156.172 47.3174ZM153.819 53.043C154.578 53.043 155.255 53.1755 155.85 53.4404C156.444 53.7054 156.949 54.0742 157.364 54.5469C157.78 55.0195 158.095 55.5781 158.31 56.2227C158.532 56.86 158.643 57.5547 158.643 58.3066V58.543C158.643 59.3522 158.524 60.1042 158.288 60.7988C158.059 61.4863 157.719 62.0879 157.268 62.6035C156.824 63.112 156.279 63.5094 155.635 63.7959C154.997 64.0824 154.27 64.2256 153.454 64.2256C152.638 64.2256 151.907 64.0824 151.263 63.7959C150.625 63.5094 150.081 63.112 149.63 62.6035C149.179 62.0879 148.835 61.4863 148.599 60.7988C148.369 60.1042 148.255 59.3522 148.255 58.543V58.3066C148.255 58.1276 148.287 57.9521 148.352 57.7803C148.416 57.6084 148.495 57.4329 148.588 57.2539C148.688 57.0749 148.778 56.8851 148.856 56.6846C149.121 56.04 149.483 55.4421 149.941 54.8906C150.407 54.3392 150.962 53.8952 151.606 53.5586C152.258 53.2148 152.996 53.043 153.819 53.043ZM153.433 54.665C152.702 54.665 152.101 54.8333 151.628 55.1699C151.162 55.5065 150.815 55.9541 150.586 56.5127C150.357 57.0641 150.242 57.6621 150.242 58.3066V58.543C150.242 59.0872 150.307 59.6029 150.436 60.0898C150.564 60.5768 150.758 61.0101 151.016 61.3896C151.281 61.762 151.614 62.0557 152.015 62.2705C152.423 62.4854 152.903 62.5928 153.454 62.5928C154.006 62.5928 154.482 62.4854 154.883 62.2705C155.284 62.0557 155.613 61.762 155.871 61.3896C156.129 61.0101 156.322 60.5768 156.451 60.0898C156.58 59.6029 156.645 59.0872 156.645 58.543V58.3066C156.645 57.8197 156.58 57.3577 156.451 56.9209C156.322 56.484 156.125 56.0973 155.86 55.7607C155.603 55.4242 155.27 55.1592 154.861 54.9658C154.46 54.7653 153.984 54.665 153.433 54.665ZM167.752 62.0127V56.0293C167.752 55.571 167.659 55.1735 167.473 54.8369C167.294 54.4932 167.021 54.2282 166.656 54.042C166.291 53.8558 165.84 53.7627 165.303 53.7627C164.801 53.7627 164.361 53.8486 163.981 54.0205C163.609 54.1924 163.315 54.418 163.101 54.6973C162.893 54.9766 162.789 55.2773 162.789 55.5996H160.802C160.802 55.1842 160.909 54.7725 161.124 54.3643C161.339 53.9561 161.647 53.5872 162.048 53.2578C162.456 52.9212 162.943 52.6562 163.509 52.4629C164.082 52.2624 164.719 52.1621 165.421 52.1621C166.266 52.1621 167.011 52.3053 167.655 52.5918C168.307 52.8783 168.815 53.3115 169.181 53.8916C169.553 54.4645 169.739 55.1842 169.739 56.0508V61.4648C169.739 61.8516 169.771 62.2633 169.836 62.7002C169.908 63.137 170.011 63.513 170.147 63.8281V64H168.074C167.974 63.7708 167.895 63.4665 167.838 63.0869C167.781 62.7002 167.752 62.3421 167.752 62.0127ZM168.096 56.9531L168.117 58.3496H166.108C165.543 58.3496 165.038 58.3962 164.594 58.4893C164.15 58.5752 163.777 58.7077 163.477 58.8867C163.176 59.0658 162.947 59.2913 162.789 59.5635C162.631 59.8285 162.553 60.14 162.553 60.498C162.553 60.8633 162.635 61.1963 162.8 61.4971C162.964 61.7979 163.212 62.0378 163.541 62.2168C163.878 62.3887 164.289 62.4746 164.776 62.4746C165.385 62.4746 165.922 62.3457 166.388 62.0879C166.853 61.8301 167.222 61.515 167.494 61.1426C167.773 60.7702 167.924 60.4085 167.945 60.0576L168.794 61.0137C168.744 61.3145 168.608 61.6475 168.386 62.0127C168.164 62.3779 167.867 62.7288 167.494 63.0654C167.129 63.3949 166.692 63.6706 166.184 63.8926C165.682 64.1074 165.117 64.2148 164.486 64.2148C163.699 64.2148 163.007 64.0609 162.413 63.7529C161.826 63.445 161.367 63.0332 161.038 62.5176C160.716 61.9948 160.555 61.4111 160.555 60.7666C160.555 60.1436 160.676 59.5957 160.92 59.123C161.163 58.6432 161.514 58.2458 161.973 57.9307C162.431 57.6084 162.982 57.3649 163.627 57.2002C164.271 57.0355 164.991 56.9531 165.786 56.9531H168.096ZM178.816 57.3828V59.0156H172.865V57.3828H178.816ZM177.635 62.582C178.107 62.582 178.544 62.4854 178.945 62.292C179.346 62.0986 179.676 61.8337 179.934 61.4971C180.191 61.1533 180.338 60.763 180.374 60.3262H182.254C182.218 61.0137 181.985 61.6546 181.556 62.249C181.133 62.8363 180.578 63.3125 179.891 63.6777C179.21 64.0358 178.458 64.2148 177.635 64.2148C176.761 64.2148 175.998 64.0609 175.347 63.7529C174.695 63.445 174.154 63.0225 173.725 62.4854C173.302 61.9482 172.983 61.3324 172.769 60.6377C172.561 59.9359 172.457 59.1947 172.457 58.4141V57.9629C172.457 57.1823 172.561 56.4447 172.769 55.75C172.983 55.0482 173.306 54.4287 173.735 53.8916C174.165 53.3545 174.702 52.932 175.347 52.624C175.998 52.3161 176.757 52.1621 177.624 52.1621C178.533 52.1621 179.328 52.3483 180.009 52.7207C180.689 53.0859 181.223 53.5872 181.609 54.2246C182.003 54.8548 182.218 55.571 182.254 56.373H180.374C180.338 55.8932 180.202 55.46 179.966 55.0732C179.737 54.6865 179.422 54.3786 179.02 54.1494C178.627 53.9131 178.161 53.7949 177.624 53.7949C177.015 53.7949 176.503 53.9167 176.088 54.1602C175.68 54.3965 175.354 54.7188 175.11 55.127C174.874 55.528 174.702 55.9756 174.595 56.4697C174.494 56.9567 174.444 57.4544 174.444 57.9629V58.4141C174.444 58.9225 174.494 59.4238 174.595 59.918C174.702 60.4121 174.874 60.8597 175.11 61.2607C175.354 61.6618 175.68 61.984 176.088 62.2275C176.503 62.4639 177.019 62.582 177.635 62.582ZM189.44 52.377V64H187.442V52.377H189.44ZM193.34 52.377V53.9883H183.618V52.377H193.34ZM196.928 56.373H200.419C201.357 56.373 202.148 56.5378 202.793 56.8672C203.437 57.1895 203.924 57.637 204.254 58.21C204.59 58.7757 204.759 59.4202 204.759 60.1436C204.759 60.6807 204.666 61.1855 204.479 61.6582C204.293 62.1237 204.014 62.5319 203.642 62.8828C203.276 63.2337 202.822 63.5094 202.277 63.71C201.74 63.9033 201.121 64 200.419 64H195.478V52.377H197.465V62.3672H200.419C200.992 62.3672 201.45 62.2633 201.794 62.0557C202.138 61.848 202.385 61.5794 202.535 61.25C202.686 60.9206 202.761 60.5768 202.761 60.2188C202.761 59.8678 202.686 59.5241 202.535 59.1875C202.385 58.8509 202.138 58.5716 201.794 58.3496C201.45 58.1204 200.992 58.0059 200.419 58.0059H196.928V56.373ZM211.892 62.582C212.364 62.582 212.801 62.4854 213.202 62.292C213.603 62.0986 213.933 61.8337 214.19 61.4971C214.448 61.1533 214.595 60.763 214.631 60.3262H216.521C216.486 61.0137 216.253 61.6546 215.823 62.249C215.401 62.8363 214.846 63.3125 214.158 63.6777C213.471 64.0358 212.715 64.2148 211.892 64.2148C211.018 64.2148 210.255 64.0609 209.603 63.7529C208.959 63.445 208.422 63.0225 207.992 62.4854C207.57 61.9482 207.251 61.3324 207.036 60.6377C206.828 59.9359 206.725 59.1947 206.725 58.4141V57.9629C206.725 57.1823 206.828 56.4447 207.036 55.75C207.251 55.0482 207.57 54.4287 207.992 53.8916C208.422 53.3545 208.959 52.932 209.603 52.624C210.255 52.3161 211.018 52.1621 211.892 52.1621C212.801 52.1621 213.596 52.3483 214.276 52.7207C214.957 53.0859 215.49 53.5872 215.877 54.2246C216.271 54.8548 216.486 55.571 216.521 56.373H214.631C214.595 55.8932 214.459 55.46 214.223 55.0732C213.993 54.6865 213.678 54.3786 213.277 54.1494C212.883 53.9131 212.422 53.7949 211.892 53.7949C211.283 53.7949 210.771 53.9167 210.355 54.1602C209.947 54.3965 209.621 54.7188 209.378 55.127C209.142 55.528 208.97 55.9756 208.862 56.4697C208.762 56.9567 208.712 57.4544 208.712 57.9629V58.4141C208.712 58.9225 208.762 59.4238 208.862 59.918C208.963 60.4121 209.131 60.8597 209.367 61.2607C209.611 61.6618 209.936 61.984 210.345 62.2275C210.76 62.4639 211.276 62.582 211.892 62.582ZM221.108 58.457H223.257L219.895 64H217.746L221.108 58.457ZM222.773 52.377H227.629V64H225.642V53.9883H222.773C222.208 53.9883 221.746 54.085 221.388 54.2783C221.03 54.4645 220.768 54.708 220.603 55.0088C220.439 55.3096 220.356 55.6211 220.356 55.9434C220.356 56.2585 220.432 56.5628 220.582 56.8564C220.732 57.1429 220.969 57.3792 221.291 57.5654C221.613 57.7516 222.029 57.8447 222.537 57.8447H226.179V59.4775H222.537C221.871 59.4775 221.28 59.388 220.765 59.209C220.249 59.0299 219.812 58.7829 219.454 58.4678C219.096 58.1455 218.824 57.7695 218.638 57.3398C218.451 56.903 218.358 56.4303 218.358 55.9219C218.358 55.4134 218.455 54.9443 218.648 54.5146C218.849 54.085 219.135 53.709 219.508 53.3867C219.887 53.0645 220.349 52.8174 220.894 52.6455C221.445 52.4665 222.072 52.377 222.773 52.377ZM244.032 52.377V54.0205H238.156V52.377H244.032ZM238.446 52.377V64H236.459V52.377H238.446ZM245.794 52.377V64H243.796V52.377H245.794ZM250.972 54.6113V68.4688H248.974V52.377H250.8L250.972 54.6113ZM258.803 58.0918V58.3174C258.803 59.1624 258.702 59.9466 258.502 60.6699C258.301 61.3861 258.008 62.0091 257.621 62.5391C257.242 63.069 256.772 63.4808 256.214 63.7744C255.655 64.068 255.014 64.2148 254.291 64.2148C253.553 64.2148 252.902 64.0931 252.336 63.8496C251.77 63.6061 251.29 63.2516 250.896 62.7861C250.503 62.3206 250.187 61.762 249.951 61.1104C249.722 60.4587 249.564 59.7246 249.478 58.9082V57.7051C249.564 56.8457 249.726 56.0758 249.962 55.3955C250.198 54.7152 250.51 54.1351 250.896 53.6553C251.29 53.1683 251.767 52.7995 252.325 52.5488C252.884 52.291 253.528 52.1621 254.259 52.1621C254.989 52.1621 255.637 52.3053 256.203 52.5918C256.769 52.8711 257.245 53.2721 257.632 53.7949C258.019 54.3177 258.309 54.9443 258.502 55.6748C258.702 56.3981 258.803 57.2038 258.803 58.0918ZM256.805 58.3174V58.0918C256.805 57.5117 256.744 56.9674 256.622 56.459C256.5 55.9434 256.311 55.4922 256.053 55.1055C255.802 54.7116 255.48 54.4036 255.086 54.1816C254.692 53.9525 254.223 53.8379 253.679 53.8379C253.177 53.8379 252.741 53.9238 252.368 54.0957C252.003 54.2676 251.691 54.5003 251.434 54.7939C251.176 55.0804 250.964 55.4098 250.8 55.7822C250.642 56.1475 250.524 56.527 250.445 56.9209V59.7031C250.589 60.2044 250.789 60.6771 251.047 61.1211C251.305 61.5579 251.648 61.9124 252.078 62.1846C252.508 62.4495 253.048 62.582 253.7 62.582C254.237 62.582 254.699 62.471 255.086 62.249C255.48 62.0199 255.802 61.7083 256.053 61.3145C256.311 60.9206 256.5 60.4694 256.622 59.9609C256.744 59.4453 256.805 58.8975 256.805 58.3174ZM260.811 58.3174V58.0703C260.811 57.2324 260.933 56.4554 261.177 55.7393C261.42 55.016 261.771 54.3893 262.229 53.8594C262.688 53.3223 263.243 52.9069 263.895 52.6133C264.546 52.3125 265.277 52.1621 266.086 52.1621C266.902 52.1621 267.636 52.3125 268.288 52.6133C268.947 52.9069 269.506 53.3223 269.964 53.8594C270.429 54.3893 270.784 55.016 271.027 55.7393C271.271 56.4554 271.393 57.2324 271.393 58.0703V58.3174C271.393 59.1553 271.271 59.9323 271.027 60.6484C270.784 61.3646 270.429 61.9912 269.964 62.5283C269.506 63.0583 268.95 63.4736 268.299 63.7744C267.654 64.068 266.924 64.2148 266.107 64.2148C265.291 64.2148 264.557 64.068 263.905 63.7744C263.254 63.4736 262.695 63.0583 262.229 62.5283C261.771 61.9912 261.42 61.3646 261.177 60.6484C260.933 59.9323 260.811 59.1553 260.811 58.3174ZM262.799 58.0703V58.3174C262.799 58.8975 262.867 59.4453 263.003 59.9609C263.139 60.4694 263.343 60.9206 263.615 61.3145C263.895 61.7083 264.242 62.0199 264.657 62.249C265.073 62.471 265.556 62.582 266.107 62.582C266.652 62.582 267.128 62.471 267.536 62.249C267.951 62.0199 268.295 61.7083 268.567 61.3145C268.839 60.9206 269.044 60.4694 269.18 59.9609C269.323 59.4453 269.395 58.8975 269.395 58.3174V58.0703C269.395 57.4974 269.323 56.9567 269.18 56.4482C269.044 55.9326 268.836 55.4779 268.557 55.084C268.284 54.6829 267.941 54.3678 267.525 54.1387C267.117 53.9095 266.637 53.7949 266.086 53.7949C265.542 53.7949 265.062 53.9095 264.646 54.1387C264.238 54.3678 263.895 54.6829 263.615 55.084C263.343 55.4779 263.139 55.9326 263.003 56.4482C262.867 56.9567 262.799 57.4974 262.799 58.0703ZM279.836 57.3828V59.0156H273.885V57.3828H279.836ZM278.654 62.582C279.127 62.582 279.564 62.4854 279.965 62.292C280.366 62.0986 280.695 61.8337 280.953 61.4971C281.211 61.1533 281.358 60.763 281.394 60.3262H283.273C283.238 61.0137 283.005 61.6546 282.575 62.249C282.153 62.8363 281.598 63.3125 280.91 63.6777C280.23 64.0358 279.478 64.2148 278.654 64.2148C277.781 64.2148 277.018 64.0609 276.366 63.7529C275.714 63.445 275.174 63.0225 274.744 62.4854C274.322 61.9482 274.003 61.3324 273.788 60.6377C273.58 59.9359 273.477 59.1947 273.477 58.4141V57.9629C273.477 57.1823 273.58 56.4447 273.788 55.75C274.003 55.0482 274.325 54.4287 274.755 53.8916C275.185 53.3545 275.722 52.932 276.366 52.624C277.018 52.3161 277.777 52.1621 278.644 52.1621C279.553 52.1621 280.348 52.3483 281.028 52.7207C281.709 53.0859 282.242 53.5872 282.629 54.2246C283.023 54.8548 283.238 55.571 283.273 56.373H281.394C281.358 55.8932 281.222 55.46 280.985 55.0732C280.756 54.6865 280.441 54.3786 280.04 54.1494C279.646 53.9131 279.181 53.7949 278.644 53.7949C278.035 53.7949 277.523 53.9167 277.107 54.1602C276.699 54.3965 276.373 54.7188 276.13 55.127C275.894 55.528 275.722 55.9756 275.614 56.4697C275.514 56.9567 275.464 57.4544 275.464 57.9629V58.4141C275.464 58.9225 275.514 59.4238 275.614 59.918C275.722 60.4121 275.894 60.8597 276.13 61.2607C276.373 61.6618 276.699 61.984 277.107 62.2275C277.523 62.4639 278.038 62.582 278.654 62.582ZM287.882 52.377V64H285.895V52.377H287.882ZM295.509 52.377L289.998 59.0371H287.216L286.915 57.2969H289.192L293.092 52.377H295.509ZM293.371 64L289.096 58.7363L290.374 57.2969L295.895 64H293.371ZM302.362 52.377V64H300.364V52.377H302.362ZM306.262 52.377V53.9883H296.54V52.377H306.262ZM312.535 59.5957H310.537C310.544 58.9082 310.605 58.346 310.72 57.9092C310.841 57.4652 311.038 57.0605 311.311 56.6953C311.583 56.3301 311.944 55.9147 312.395 55.4492C312.725 55.1126 313.026 54.7975 313.298 54.5039C313.577 54.2031 313.803 53.8809 313.975 53.5371C314.146 53.1862 314.232 52.7673 314.232 52.2803C314.232 51.7861 314.143 51.36 313.964 51.002C313.792 50.6439 313.534 50.3682 313.19 50.1748C312.854 49.9814 312.435 49.8848 311.934 49.8848C311.518 49.8848 311.124 49.96 310.752 50.1104C310.38 50.2607 310.079 50.4935 309.85 50.8086C309.62 51.1165 309.502 51.5212 309.495 52.0225H307.508C307.522 51.2132 307.723 50.5186 308.109 49.9385C308.503 49.3584 309.033 48.9144 309.699 48.6064C310.365 48.2985 311.11 48.1445 311.934 48.1445C312.843 48.1445 313.617 48.3092 314.254 48.6387C314.898 48.9681 315.389 49.4408 315.726 50.0566C316.062 50.6654 316.23 51.3887 316.23 52.2266C316.23 52.8711 316.098 53.4655 315.833 54.0098C315.575 54.5469 315.242 55.0518 314.834 55.5244C314.426 55.9971 313.992 56.4482 313.534 56.8779C313.14 57.2432 312.875 57.6549 312.739 58.1133C312.603 58.5716 312.535 59.0658 312.535 59.5957ZM310.451 63.001C310.451 62.6787 310.551 62.4066 310.752 62.1846C310.952 61.9626 311.242 61.8516 311.622 61.8516C312.009 61.8516 312.302 61.9626 312.503 62.1846C312.703 62.4066 312.804 62.6787 312.804 63.001C312.804 63.3089 312.703 63.5739 312.503 63.7959C312.302 64.0179 312.009 64.1289 311.622 64.1289C311.242 64.1289 310.952 64.0179 310.752 63.7959C310.551 63.5739 310.451 63.3089 310.451 63.001Z" fill="white"/>
            </svg>