<svg width="29" height="25" viewBox="0 0 29 25" fill="none" xmlns="http://www.w3.org/2000/svg">
<path d="M13.7933 16.2592C13.7504 16.6844 14.0727 17.075 14.5 17.075C14.9273 17.075 15.2496 16.6844 15.2067 16.2592C15.0319 14.5261 15.2052 12.07 15.823 9.64386C16.1122 8.50826 15.7858 7.90584 15.1041 7.2861C14.7633 6.97635 14.2367 6.97635 13.8959 7.2861C13.2142 7.90584 12.8878 8.50826 13.177 9.64386C13.7948 12.07 13.9681 14.5261 13.7933 16.2592Z" fill="url(#paint0_linear_377_1226)"/>
<path d="M15.895 19.6424C15.895 20.4316 15.2705 21.0714 14.5001 21.0714C13.7297 21.0714 13.1051 20.4316 13.1051 19.6424C13.1051 18.8531 13.7297 18.2133 14.5001 18.2133C15.2705 18.2133 15.895 18.8531 15.895 19.6424Z" fill="url(#paint1_linear_377_1226)"/>
<path d="M15.3991 0.5C15.7548 0.5 16.0836 0.688908 16.2629 0.996122L28.206 21.4698C28.3877 21.7812 28.3877 22.1662 28.206 22.4776L27.3154 24.004C27.1362 24.3111 26.8073 24.5 26.4517 24.5H2.54787C2.19217 24.5 1.86326 24.3111 1.68405 24.0038L0.793863 22.4775C0.612271 22.1662 0.612282 21.7812 0.793892 21.4699L12.7366 0.996139C12.9158 0.688915 13.2447 0.5 13.6004 0.5H15.3991ZM5.90336 16.0789C2.81093 21.3801 3.64839 22.8158 9.83319 22.8158H19.1664C25.3511 22.8158 26.1886 21.3802 23.0963 16.079L18.4298 8.07904C15.3374 2.77776 13.6625 2.77775 10.5701 8.07897L5.90336 16.0789Z" fill="url(#paint2_linear_377_1226)"/>
<defs>
<linearGradient id="paint0_linear_377_1226" x1="14.5" y1="0.5" x2="14.5" y2="24.5" gradientUnits="userSpaceOnUse">
<stop stop-color="#F8F8F8"/>
<stop offset="0.7" stop-color="#FADFAE"/>
<stop offset="1" stop-color="#FBD298"/>
</linearGradient>
<linearGradient id="paint1_linear_377_1226" x1="14.5" y1="0.5" x2="14.5" y2="24.5" gradientUnits="userSpaceOnUse">
<stop stop-color="#F8F8F8"/>
<stop offset="0.7" stop-color="#FADFAE"/>
<stop offset="1" stop-color="#FBD298"/>
</linearGradient>
<linearGradient id="paint2_linear_377_1226" x1="14.5" y1="0.5" x2="14.5" y2="24.5" gradientUnits="userSpaceOnUse">
<stop stop-color="#F8F8F8"/>
<stop offset="0.7" stop-color="#FADFAE"/>
<stop offset="1" stop-color="#FBD298"/>
</linearGradient>
</defs>
</svg>
