<svg width="12" height="12" viewBox="0 0 12 12" fill="none" xmlns="http://www.w3.org/2000/svg">
<g opacity="0.5" clip-path="url(#clip0_1585_1613)">
<path fill-rule="evenodd" clip-rule="evenodd" d="M5.9735 0.0023546C5.95567 0.0282793 5.67089 0.504834 5.34072 1.06136C4.93524 1.74476 4.71167 2.08694 4.65191 2.11548C4.60329 2.13872 4.40012 2.22801 4.20048 2.31391C3.71261 2.52379 3.36029 2.74992 2.99908 3.0851C2.5125 3.53656 2.18312 4.01964 1.95828 4.61148L1.83564 4.93437L0.917821 5.39167L0 5.84896L0.899131 6.31655L1.79826 6.78417L1.88062 7.04562C2.03933 7.54928 2.26551 7.96903 2.60048 8.38153L2.76471 8.58372L2.89189 8.43072C2.96184 8.34656 3.08556 8.22765 3.1668 8.16649L3.31453 8.05522L3.14517 7.83962C2.92037 7.55343 2.70126 7.12227 2.60919 6.7849C2.54891 6.564 2.53439 6.39746 2.53439 5.92712C2.53439 5.40751 2.54463 5.3103 2.62781 5.04132C2.96039 3.9657 3.84221 3.13656 5.01026 2.80118C5.31999 2.71224 5.39322 2.70498 5.97827 2.70498C6.56064 2.70498 6.63733 2.71252 6.93838 2.79933C8.13075 3.14312 8.96964 3.92934 9.33607 5.04645C9.42765 5.32565 9.43681 5.40458 9.43823 5.92879C9.4396 6.42433 9.42817 6.54237 9.35625 6.77629C9.25066 7.11952 9.08915 7.45462 8.8935 7.73623L8.74078 7.95605L8.83017 8.01195C8.87931 8.04269 9.00817 8.15393 9.11651 8.25912C9.30349 8.4407 9.3163 8.44705 9.36771 8.38467C9.65648 8.03414 9.96884 7.45968 10.0823 7.07043L10.1513 6.83382L11.0619 6.36072C11.5627 6.10053 11.9847 5.87684 11.9996 5.86358C12.0145 5.85036 11.5947 5.62443 11.0666 5.36155L10.1064 4.88353L10.0394 4.68448C9.66947 3.58447 8.69234 2.62539 7.50474 2.19657L7.20689 2.089L6.60639 1.02211C6.18792 0.278594 5.9961 -0.0304788 5.9735 0.0023546ZM5.59799 3.81612C5.34281 3.89086 5.13003 4.02641 4.88904 4.26787C4.46393 4.69376 4.24702 5.26082 4.24702 5.94624C4.24702 6.60151 4.41374 7.06652 4.83688 7.59143C4.96294 7.74785 5.06611 7.88351 5.06611 7.89293C5.06611 7.90232 4.92787 7.94485 4.75895 7.98742C3.87996 8.20902 3.40389 8.50651 3.0837 9.03418C2.81363 9.4793 2.65361 10.1975 2.62505 11.0928C2.61496 11.4095 2.59959 11.7431 2.59091 11.8343L2.57512 12H6.02321H9.47125L9.44683 11.2062C9.4007 9.70648 9.21276 9.04678 8.69264 8.55881C8.4032 8.28725 8.06016 8.12692 7.4582 7.98187C7.20734 7.92144 7.00212 7.8623 7.00212 7.85044C7.00212 7.83861 7.08813 7.71935 7.19319 7.58543C7.42079 7.29537 7.60888 6.93808 7.69786 6.62663C7.79783 6.27681 7.78815 5.57537 7.67843 5.21508C7.52354 4.70674 7.20213 4.24672 6.83749 4.01162C6.49344 3.78978 5.96989 3.70719 5.59799 3.81612Z" fill="#F8F8F8"/>
</g>
<defs>
<clipPath id="clip0_1585_1613">
<rect width="12" height="12" fill="white"/>
</clipPath>
</defs>
</svg>
