<svg width="16" height="16" viewBox="0 0 16 16" fill="none" xmlns="http://www.w3.org/2000/svg">
  <path fill-rule="evenodd" clip-rule="evenodd" d="M10.2418 2.28027C10.0903 2.98439 9.97064 3.56428 9.97588 3.56888C9.98112 3.57347 10.2921 3.1867 10.6669 2.70941C11.0418 2.23211 11.4982 1.65227 11.6813 1.4208L12.0141 1H11.2656H10.5172L10.2418 2.28027ZM13.2552 3.49596C12.3069 4.55052 11.5369 5.42008 11.5442 5.42842C11.5514 5.43671 12.332 5.13291 13.2787 4.75337L15 4.06321V2.81898C15 2.13465 14.9954 1.57562 14.9898 1.57669C14.9842 1.57775 14.2036 2.44141 13.2552 3.49596ZM5.3472 2.96637C4.93068 3.11067 4.7784 3.34973 4.64151 4.07429C4.5348 4.63924 4.47818 4.80707 4.16232 5.49542C3.32826 7.31305 2.44671 8.88 1.44513 10.3253L1 10.9676V12.4936C1 13.928 1.0043 14.0184 1.07164 13.9977C1.11106 13.9856 1.35512 13.9093 1.61404 13.828C3.34209 13.2858 5.3784 12.9048 7.50877 12.7251C9.16847 12.5852 9.81951 12.5797 10.5173 12.7C11.0979 12.8 11.2878 12.7822 11.5515 12.6029C11.7867 12.443 11.9761 12.1687 12.1002 11.8082C12.2376 11.4092 12.2379 10.4529 12.1007 9.83438C11.8721 8.80339 11.3026 7.52394 10.5898 6.43966C9.39984 4.62959 7.84432 3.30141 6.50446 2.95142C6.17218 2.86463 5.62033 2.87178 5.3472 2.96637ZM5.49973 3.67976C5.01759 4.00561 4.97236 4.76051 5.36251 5.97083C6.11704 8.31148 8.30112 11.1981 9.94162 12.0229C10.5656 12.3366 10.9707 12.3549 11.2431 12.0817C11.3731 11.9513 11.3636 11.8793 11.2162 11.8793C10.9465 11.8793 10.4242 11.574 9.8324 11.0705C9.63509 10.9026 9.47368 10.757 9.47368 10.7469C9.47368 10.7367 9.56706 10.7759 9.68119 10.8339C9.96495 10.9781 10.2271 10.9641 10.3497 10.7982C10.5935 10.4682 10.2987 9.37146 9.65392 8.20975C8.50703 6.14329 6.73435 4.44517 6.24079 4.94016C6.14295 5.03828 6.1206 5.12766 6.10697 5.47489L6.09649 5.74174L5.94331 5.29015C5.69086 4.54584 5.6137 4.03792 5.70474 3.71954C5.75161 3.55574 5.69847 3.54543 5.49973 3.67976ZM13.756 7.47985C13.0831 7.69805 12.5674 7.88193 12.6098 7.8885C12.6523 7.89507 13.2029 7.97894 13.8333 8.07485L14.9795 8.24928L14.9915 7.94815C14.9981 7.7825 14.9981 7.52012 14.9915 7.36506L14.9795 7.08314L13.756 7.47985Z" fill="url(#paint0_linear_1088_1574)" />
  <defs>
    <linearGradient id="paint0_linear_1088_1574" x1="8.03132" y1="-0.102829" x2="8.03132" y2="15.1068" gradientUnits="userSpaceOnUse">
      <stop stop-color="#F8F8F8" />
      <stop offset="1" stop-color="#929292" />
    </linearGradient>
  </defs>
</svg>