<svg width="18" height="15" viewBox="0 0 18 15" fill="none" xmlns="http://www.w3.org/2000/svg">
<path fill-rule="evenodd" clip-rule="evenodd" d="M6.56799 0.414931C4.00677 0.637679 1.90141 0.83003 1.88942 0.842346C1.87744 0.854718 3.28163 3.28317 5.00991 6.23897C6.73813 9.19477 8.15988 11.6308 8.16934 11.6524C8.18216 11.6818 17.3079 10.9308 17.9842 10.8447C18.0901 10.8313 17.7254 10.1796 14.946 5.41471L11.7874 0L11.5061 0.00492619C11.3514 0.00766925 9.12921 0.192127 6.56799 0.414931ZM0.804696 1.16021C0.335112 1.55806 0 2.34051 0 3.03915C0 3.363 0.0290326 3.4954 0.153884 3.74099L0.307824 4.04362L0.405274 3.61839C0.542897 3.01777 0.81533 2.49373 1.18679 2.11524L1.50148 1.79458L1.27119 1.40053C1.14453 1.18377 1.02824 1.00676 1.01276 1.0071C0.99729 1.00749 0.903665 1.07635 0.804696 1.16021ZM1.68827 2.72028C1.13216 3.35058 0.896914 4.77244 1.22893 5.49694C1.28897 5.62794 2.26178 7.26762 3.39073 9.14058L5.44337 12.5461L5.5325 12.1533C5.65189 11.6274 5.91976 11.0971 6.25538 10.7224L6.53147 10.4143L4.27026 6.53522C3.02658 4.40179 1.97871 2.62321 1.94163 2.58291C1.88711 2.52368 1.83856 2.54999 1.68827 2.72028ZM6.77949 11.3149C6.39109 11.772 6.1585 12.61 6.20941 13.369C6.2389 13.8088 6.25988 13.8708 6.55572 14.3906C6.87007 14.9431 6.96657 15.0718 6.86287 14.8004C6.77679 14.575 6.79789 13.7666 6.89871 13.4287C7.00089 13.0863 7.25188 12.5871 7.43987 12.3524L7.56511 12.196L7.40172 11.9046C7.31181 11.7443 7.17064 11.5042 7.08804 11.3709L6.93782 11.1287L6.77949 11.3149ZM12.7305 12.084L8.44098 12.4576L8.23865 12.6512C7.79501 13.0754 7.56669 13.6744 7.60995 14.3002C7.64579 14.8186 7.73283 15 7.94563 15C8.12663 15 16.825 14.2965 17.3535 14.2392L17.6868 14.203L17.4747 14.1304C17.0404 13.9819 16.7668 13.5743 16.7668 13.0758C16.7668 12.6674 17.0362 12.1398 17.3765 11.8816L17.6195 11.6971L17.3198 11.7037C17.1549 11.7074 15.0898 11.8785 12.7305 12.084Z" fill="#F8F8F8"/>
</svg>
