<svg width="16" height="16" viewBox="0 0 16 16" fill="none" xmlns="http://www.w3.org/2000/svg">
  <path fill-rule="evenodd" clip-rule="evenodd" d="M8.25003 1.07356C7.47313 1.30452 6.86665 1.87076 6.47581 2.73005C6.05795 3.64883 5.9681 4.61649 6.1984 5.71813C6.31046 6.25418 6.31927 6.44836 6.24509 6.74536C6.1749 7.02632 6.03871 7.22381 5.84866 7.32018C5.65043 7.42069 5.51944 7.42114 5.33219 7.32195C4.90916 7.0978 4.65761 6.48328 4.65544 5.66848C4.65482 5.43592 4.66673 5.11879 4.68197 4.96374L4.70961 4.68185L4.53628 5.00236C3.93821 6.10824 3.74022 7.31563 3.98913 8.33898C4.05947 8.62821 4.29993 9.16932 4.48032 9.44421C4.75413 9.86154 5.25556 10.3402 5.71143 10.6193C5.93161 10.7541 6.38302 10.965 6.53654 11.0048L6.64019 11.0316L6.52223 10.6556C6.35808 10.1321 6.32636 9.47256 6.44576 9.06442C6.73182 8.08629 7.73608 7.62813 8.64587 8.06067C9.24068 8.34345 9.60042 9.07316 9.53586 9.86593C9.50832 10.2039 9.36023 10.8305 9.26054 11.0307L9.19834 11.1556L9.34732 11.1275C9.42926 11.112 9.64463 11.0345 9.82591 10.9552C11.362 10.2838 12.0492 8.81865 11.7293 6.89673C11.658 6.46829 11.5084 5.80697 11.4671 5.7375C11.456 5.71886 11.3883 5.88485 11.3168 6.10638C11.0773 6.84772 10.7887 7.31837 10.487 7.45964C10.3395 7.52874 10.3116 7.53071 10.223 7.47856C10.1684 7.44651 10.0873 7.34776 10.0427 7.25917C9.97245 7.11955 9.96202 7.031 9.96466 6.5947C9.9685 5.95315 10.1006 5.33444 10.424 4.44409C10.4795 4.29119 10.5183 4.15922 10.5102 4.1508C10.5021 4.14239 10.4015 4.21383 10.2867 4.30955C9.68705 4.80959 9.12625 5.04541 8.72347 4.96693C8.44121 4.91196 8.17775 4.55625 8.08573 4.10602C7.95339 3.45823 8.10784 2.31253 8.45237 1.38606C8.52532 1.18983 8.58503 1.02202 8.58503 1.0132C8.58503 0.984727 8.49352 1.0012 8.25003 1.07356ZM12.2748 8.71692C12.194 9.05194 12.1897 9.09148 12.2344 9.09148C12.2588 9.09148 12.4447 9.17581 12.6474 9.27886C12.9036 9.40914 13.0836 9.53514 13.2384 9.69236C13.594 10.0537 13.5892 10.3036 13.2202 10.6538C12.1529 11.6668 8.7353 12.1732 5.85122 11.7458C4.58599 11.5583 3.6582 11.2614 3.04071 10.8466C2.27241 10.3304 2.3808 9.80105 3.35977 9.28828C3.52508 9.2017 3.6603 9.11746 3.66026 9.10111C3.66022 9.05838 3.52582 8.69675 3.49999 8.66997C3.46781 8.63654 3.07348 8.82658 2.79222 9.01102C2.36529 9.29106 2.07283 9.6775 2.01516 10.0378C1.94463 10.4786 2.12874 11.4286 2.38972 11.9708C2.95044 13.1357 4.10275 14.0914 5.55508 14.5961C8.02547 15.4546 10.9484 14.9124 12.6728 13.2757C13.1956 12.7795 13.7197 11.9149 13.8789 11.2862C13.9734 10.913 14.0328 10.112 13.9806 9.91465C13.8696 9.49519 13.506 9.13356 12.8699 8.80979C12.3238 8.5318 12.3196 8.53116 12.2748 8.71692Z" fill="url(#paint0_linear_1088_1569)" />
  <defs>
    <linearGradient id="paint0_linear_1088_1569" x1="8.02685" y1="-0.187663" x2="8.02685" y2="16.1919" gradientUnits="userSpaceOnUse">
      <stop stop-color="#F8F8F8" />
      <stop offset="1" stop-color="#929292" />
    </linearGradient>
  </defs>
</svg>