<svg width="20" height="20" viewBox="0 0 20 20" fill="none" xmlns="http://www.w3.org/2000/svg">
  <path fill-rule="evenodd" clip-rule="evenodd" d="M16.0849 1.55276C15.0576 1.85294 14.1959 2.09271 14.17 2.08558C14.1442 2.0784 14.438 1.86134 14.8229 1.60314C15.2078 1.34499 15.5148 1.12592 15.5052 1.11636C15.455 1.06678 13.8891 1.57589 12.9895 1.93431C11.7447 2.43027 11.8888 2.32446 10.4797 3.77687C9.77606 4.50209 9.19311 5.0779 9.18426 5.0564C9.17534 5.03497 9.3616 4.63505 9.59818 4.1677C9.83471 3.70036 10.0126 3.31797 9.99364 3.31797C9.86956 3.31797 8.23729 4.42596 7.60049 4.94246L7.28146 5.20124L6.97982 6.40685C6.80984 7.0863 6.66532 7.56833 6.64862 7.5113C6.63234 7.4556 6.60266 7.10119 6.58265 6.72366C6.56269 6.34613 6.52928 6.00609 6.50847 5.96797C6.45756 5.87477 5.10904 7.25194 4.54264 7.97553C3.64792 9.11863 2.99629 10.2422 2.67155 11.2017C2.58498 11.4575 2.50173 11.6791 2.48657 11.6941C2.47136 11.7091 2.22389 11.5659 1.93661 11.3758C1.64933 11.1857 1.40485 11.0395 1.39332 11.0508C1.34908 11.0947 1.82945 12.3971 2.06155 12.8626C2.19571 13.1316 2.29119 13.3658 2.27368 13.3831C2.24828 13.4083 1.34753 13.1652 1.01195 13.0427C0.919141 13.0088 1.38643 13.6854 1.73984 14.0967C1.97397 14.3692 2.30202 14.6679 2.57442 14.8566C2.68057 14.9302 2.67891 14.9405 2.43566 15.7115C2.08257 16.8308 1.82251 17.8549 1.67884 18.6917L1.6457 18.885L1.9167 18.9425C2.06571 18.9741 2.21914 19 2.25762 19C2.30405 19 2.36767 18.8005 2.44697 18.406C2.75912 16.853 3.40419 14.78 4.05939 13.2242C5.75816 9.19018 8.74434 6.00915 12.6398 4.0838C13.29 3.7624 14.1777 3.37077 14.2558 3.37077C14.2997 3.37077 14.5639 3.90586 14.5639 3.99478C14.5639 4.0169 14.3417 4.12705 14.0702 4.23951C9.97896 5.93449 6.74895 9.06102 4.93053 13.0862C4.67196 13.6587 4.31786 14.5551 4.31743 14.6384C4.31679 14.7538 6.051 14.5846 6.21681 14.4532C6.25022 14.4268 6.3046 13.9992 6.34367 13.456C6.44768 12.0104 6.44501 12.0124 6.7142 13.1689C6.84224 13.7188 6.96541 14.189 6.98799 14.2139C7.02919 14.2593 8.01271 13.8272 8.06699 13.7399C8.08289 13.7144 7.94355 13.378 7.7574 12.9925C7.5712 12.607 7.40319 12.2427 7.38409 12.1831C7.36493 12.1234 7.61736 12.3557 7.94504 12.6992C8.27272 13.0428 8.56043 13.3309 8.58439 13.3395C8.69257 13.3782 9.20331 12.7738 9.75759 11.951C10.0902 11.4573 10.541 10.8227 10.7593 10.5408C11.559 9.50825 12.9124 8.234 13.8127 7.66606C13.9898 7.55428 14.1352 7.45005 14.1358 7.43442C14.1365 7.41874 13.8668 7.31303 13.5366 7.19946C12.2862 6.76944 12.2667 6.79526 13.8167 6.83085L15.1776 6.86211L15.7212 6.54261C16.0201 6.36688 16.2775 6.20278 16.293 6.17785C16.3179 6.13804 15.1637 6.01692 14.6679 6.00725C14.3572 6.00123 14.5992 5.92758 16.0213 5.59545C17.54 5.24079 17.444 5.29401 18.0842 4.4532C18.7046 3.63832 19.0094 2.91399 18.9998 2.27741C18.9934 1.85511 18.8664 1.55593 18.5927 1.31811C18.4013 1.1519 18.0901 0.986839 17.9945 1.00083C17.9716 1.00421 17.1122 1.25259 16.0849 1.55276Z" fill="#F8F8F8" />
</svg>