<svg width="20" height="20" viewBox="0 0 20 20" fill="none" xmlns="http://www.w3.org/2000/svg">
<path d="M16.3899 9.65158C16.3899 5.83678 13.3307 2.75701 9.5731 2.75679C5.8153 2.75679 2.7563 5.83664 2.7563 9.65158C2.75657 13.4663 5.81547 16.5464 9.5731 16.5464C11.4895 16.5463 13.2215 15.7467 14.4618 14.4559C15.6546 13.2143 16.3898 11.5208 16.3899 9.65158ZM17.8951 9.65158C17.895 10.2843 17.8254 10.9008 17.6937 11.4936C17.348 13.0486 17.1752 13.8261 17.1548 13.9687C16.9295 15.5457 16.9767 15.7094 18.0069 16.9244C18.1 17.0342 18.3167 17.2532 18.75 17.6912L17.6802 18.75C17.3259 18.3922 17.1488 18.2132 17.0827 18.1527C15.7737 16.9511 15.5291 16.8836 13.7889 17.2428C13.7011 17.2609 13.0097 17.4385 11.6269 17.7936C10.9701 17.9622 10.282 18.052 9.5731 18.052C4.96998 18.052 1.25027 14.2838 1.25 9.65158C1.25 5.01912 4.96981 1.25 9.5731 1.25C14.1762 1.25022 17.8951 5.01926 17.8951 9.65158Z" fill="url(#paint0_linear_1086_2141)"/>
<defs>
<linearGradient id="paint0_linear_1086_2141" x1="10" y1="1.25" x2="10" y2="18.75" gradientUnits="userSpaceOnUse">
<stop stop-color="#F8F8F8"/>
<stop offset="1" stop-color="#929292"/>
</linearGradient>
</defs>
</svg>
