<svg width="20" height="19" viewBox="0 0 20 19" fill="none" xmlns="http://www.w3.org/2000/svg">
<path d="M10.2174 0.0385802C6.30999 -0.302542 2.59062 1.60025 1.66667 6.47303C2.73039 5.25693 3.71203 4.11553 5.17763 3.37804C7.89256 2.01206 10.9676 2.51247 12.9932 4.64979C16.7046 8.56606 14.2453 14.9422 9.11269 15.6658C5.94106 16.1129 3.62924 14.1085 1.66667 11.8648C2.70599 16.7049 6.16068 18.6432 10.2226 18.2935C14.7907 17.9004 18.329 14.7947 19.046 10.5488C19.9833 4.99977 15.3098 0.483315 10.2174 0.0385802Z" fill="url(#paint0_linear_1603_3195)"/>
<path fill-rule="evenodd" clip-rule="evenodd" d="M0.000250014 10.0137C0.0025826 10.182 0.047516 10.2601 0.148886 10.2723C0.259417 10.2857 4.98695 10.6727 5.58289 10.6566C5.78467 10.6511 5.54945 12.2138 5.56724 12.4644C5.57788 12.6142 6.20813 12.3369 9.47013 10.7472C11.6097 9.70461 13.3482 8.82526 13.3332 8.79321C13.3112 8.74573 6.10035 5.83333 6.10035 5.83333C6.02178 6.56742 5.97164 7.30572 5.90587 8.04165C5.90587 8.04165 0.149014 9.18838 0.0191528 9.63596C0.0069205 9.71108 -0.00158922 9.88105 0.000250014 10.0137Z" fill="url(#paint1_linear_1603_3195)"/>
<defs>
<linearGradient id="paint0_linear_1603_3195" x1="9.58333" y1="0" x2="9.58333" y2="18.3333" gradientUnits="userSpaceOnUse">
<stop stop-color="#F8F8F8"/>
<stop offset="0.7" stop-color="#FADFAE"/>
<stop offset="1" stop-color="#FBD298"/>
</linearGradient>
<linearGradient id="paint1_linear_1603_3195" x1="9.58333" y1="0" x2="9.58333" y2="18.3333" gradientUnits="userSpaceOnUse">
<stop stop-color="#F8F8F8"/>
<stop offset="0.7" stop-color="#FADFAE"/>
<stop offset="1" stop-color="#FBD298"/>
</linearGradient>
</defs>
</svg>
