<svg width="18" height="17" viewBox="0 0 18 17" fill="none" xmlns="http://www.w3.org/2000/svg">
<path fill-rule="evenodd" clip-rule="evenodd" d="M14.3357 0.148312C13.9834 0.403512 13.7242 0.870812 13.7232 1.25276C13.7224 1.55211 13.8636 1.84151 14.3939 2.62776C15.5139 4.28811 15.9405 5.78476 16.007 8.28666C16.033 9.26501 15.9686 10.8943 15.8908 11.2278C15.8405 11.4432 16.0236 11.0658 16.27 10.446C17.3319 7.77541 17.4442 4.62431 16.5669 2.11876C16.2373 1.17761 15.6724 0.332762 15.2175 0.100662C14.924 -0.0490377 14.5827 -0.0306378 14.3357 0.148312ZM1.94664 0.145962C1.34214 0.420962 0.694943 1.55006 0.323393 2.97776C0.0746426 3.93361 0.00394263 4.55691 9.26313e-05 5.82776C-0.00440737 7.33131 0.154643 8.41776 0.566143 9.69411C0.783993 10.37 1.18509 11.3374 1.21289 11.254C1.22334 11.2227 1.20624 10.9003 1.17489 10.5374C1.11469 9.84051 1.09204 7.83341 1.14009 7.45276C1.15569 7.32901 1.19309 7.02526 1.22319 6.77776C1.35179 5.72031 1.68124 4.57881 2.09494 3.75731C2.21394 3.52106 2.53604 2.98601 2.81074 2.56831C3.46539 1.57291 3.52969 1.31581 3.25869 0.777762C2.94119 0.147312 2.45659 -0.0860378 1.94664 0.145962ZM4.88444 0.335012C3.98714 0.777362 3.56314 2.83281 3.89584 5.12776C4.04074 6.12731 4.35729 7.42061 4.61784 8.07776L4.71694 8.32776L4.72034 7.85276C4.72574 7.08956 4.81134 5.95776 4.91779 5.24191C5.09084 4.07831 5.29289 3.35116 5.82769 1.96696C6.19284 1.02196 6.21434 0.776962 5.95374 0.531212C5.67144 0.264962 5.20144 0.178712 4.88444 0.335012ZM11.4301 0.382912C10.9342 0.630062 10.9139 0.890462 11.3115 1.90276C12.1061 3.92551 12.4116 5.50246 12.4252 7.65276C12.4294 8.31836 12.4355 8.36471 12.4996 8.21826C12.6175 7.94896 12.9226 6.90646 13.0456 6.35276C13.302 5.19786 13.346 4.78896 13.3445 3.57776C13.3433 2.56801 13.3296 2.36981 13.2319 1.95276C12.9092 0.574262 12.2313 -0.0163377 11.4301 0.382912ZM7.17164 0.354162C6.95294 0.405262 6.75384 0.636962 6.66444 0.944512C6.55314 1.32746 6.58809 2.34856 6.74524 3.30276C6.88244 4.13606 7.18609 5.53406 7.48909 6.72776L7.65404 7.37776L7.68934 6.60731C7.73539 5.60281 7.83484 4.65861 8.05324 3.15276C8.26869 1.66731 8.29519 0.961512 8.14524 0.702762C7.98374 0.424012 7.54499 0.266912 7.17164 0.354162ZM9.45589 0.353162C9.21344 0.397562 9.02149 0.538112 8.90544 0.756312C8.77754 0.996862 8.81754 1.74746 9.03979 3.27776C9.19389 4.33911 9.26864 5.04876 9.41099 6.80276L9.44954 7.27776L9.70814 6.22776C10.2674 3.95681 10.4895 2.60696 10.4638 1.63456C10.4488 1.06771 10.4303 0.945062 10.3289 0.738912C10.1654 0.406512 9.87214 0.276912 9.45589 0.353162ZM13.4571 8.97776C13.439 9.08776 13.3767 9.47026 13.3187 9.82776C13.007 11.748 12.4634 13.2305 11.3971 15.0689C11.1215 15.544 11.0502 15.7108 11.0334 15.9189C11.0142 16.156 11.0265 16.1933 11.1795 16.3625C11.951 17.2157 12.8941 16.6671 13.4194 15.0597C13.8978 13.5956 13.9518 11.2202 13.5545 9.11911L13.49 8.77776L13.4571 8.97776ZM3.50679 8.90276C3.47239 8.98986 3.35479 9.71906 3.26494 10.4028C3.18319 11.0244 3.18409 12.9407 3.26639 13.5778C3.40514 14.6515 3.78284 15.7619 4.17999 16.2633C4.62634 16.8269 5.20424 16.9066 5.71594 16.4752C5.95729 16.2717 6.03889 16.0526 5.96949 15.7947C5.93919 15.6823 5.72764 15.2613 5.49929 14.8591C5.27094 14.4569 5.00544 13.9703 4.90924 13.7778C4.33064 12.6199 3.86424 11.0348 3.62184 9.40276C3.57489 9.08651 3.52314 8.86151 3.50679 8.90276ZM10.0533 9.97776C9.91464 10.8292 9.64884 12.0174 9.31504 13.2778C8.84699 15.0452 8.81209 15.2025 8.80514 15.5778C8.80054 15.8227 8.82419 15.975 8.88374 16.0852C8.99789 16.2961 9.33004 16.4528 9.66314 16.4528C9.88724 16.4528 9.94724 16.4303 10.098 16.2903C10.4604 15.9535 10.6027 15.1511 10.5523 13.7278C10.5203 12.8228 10.3896 11.356 10.2292 10.1028L10.1428 9.42776L10.0533 9.97776ZM6.85614 9.60276C6.82024 9.70366 6.64189 11.2274 6.54299 12.2778C6.43319 13.4446 6.43044 14.9636 6.53734 15.4467C6.64429 15.9302 6.79874 16.2403 6.99099 16.3575C7.33594 16.5678 7.95984 16.4015 8.13404 16.0528C8.30369 15.7132 8.25339 15.3701 7.76884 13.5599C7.40314 12.1936 7.15119 11.0958 6.99834 10.2028C6.93479 9.83151 6.87079 9.56151 6.85614 9.60276Z" fill="#F8F8F8"/>
</svg>
