<svg width="14" height="20" viewBox="0 0 14 20" fill="none" xmlns="http://www.w3.org/2000/svg">
<path fill-rule="evenodd" clip-rule="evenodd" d="M5.66744 0.089628C3.8185 0.498398 2.22651 1.86496 1.29032 3.84693C1.04375 4.3689 0.75067 5.19203 0.650509 5.6439L0.603994 5.85381L0.828735 5.8192C2.42964 5.57259 4.3077 5.03332 5.96555 4.34415L6.78693 4.00268L7.56683 4.37443C9.24672 5.1751 10.9486 5.68875 12.5427 5.87616L12.8489 5.91214L12.7965 5.67363C12.709 5.27505 12.3853 4.33533 12.1815 3.88822C11.8999 3.27036 11.2522 2.31941 10.7869 1.84054C9.93532 0.964234 9.08092 0.441278 8.02264 0.148665C7.40216 -0.0229152 6.3012 -0.0505171 5.66744 0.089628ZM6.10477 5.11656C4.71644 5.71548 2.73666 6.28186 1.15148 6.53362C0.65186 6.61297 0.191841 6.6874 0.129172 6.69912C0.0166935 6.72004 0.0162615 6.72552 0.0950832 7.14568C0.212586 7.77192 0.21102 9.45295 0.0923818 10.1039C0.0415448 10.3825 0 10.621 0 10.6338C0 10.6701 1.06099 11.0766 1.51269 11.2134C4.06107 11.9854 7.26791 12.1048 10.201 11.5367C11.1668 11.3496 12.5351 10.966 13.0784 10.7298L13.326 10.6222L13.1892 10.1098C13.0652 9.64573 13.0525 9.50164 13.0547 8.58415C13.0566 7.75626 13.0767 7.49492 13.1641 7.15493L13.2712 6.73882L12.6728 6.67103C10.8568 6.46527 9.09021 5.95256 7.35289 5.12702C7.04393 4.98019 6.76435 4.86272 6.73161 4.86601C6.69882 4.86924 6.41676 4.982 6.10477 5.11656ZM6.23756 6.18816C6.2233 6.22584 6.218 7.37794 6.22573 8.74845L6.23983 11.2403L6.60449 11.2565L6.96916 11.2726V8.6962V6.1197H6.61632C6.38386 6.1197 6.25463 6.14309 6.23756 6.18816ZM3.94379 8.61153V10.6702L4.30845 10.6541L4.67312 10.6379V8.61153V6.58521L4.30845 6.569L3.94379 6.55284V8.61153ZM8.48184 8.60901V10.6652H8.86066H9.23948L9.22533 8.62523L9.21117 6.58521L8.84651 6.569L8.48184 6.55284V8.60901ZM1.72878 8.74845V10.3366H2.10695H2.48513V8.74845V7.16025H2.10695H1.72878V8.74845ZM10.6811 7.19453C10.66 7.21583 10.6428 7.93151 10.6428 8.78498V10.3366H11.0488H11.4549L11.4405 8.76214L11.4262 7.18763L11.0728 7.17169C10.8783 7.16293 10.7021 7.17323 10.6811 7.19453ZM11.2549 12.084L10.4893 12.2803L10.1338 13.4808C9.93829 14.141 9.78902 14.6921 9.80209 14.7054C9.81517 14.7186 9.96714 14.6181 10.1398 14.482C10.8457 13.9257 11.5939 12.9972 12.015 12.1549C12.1061 11.9725 12.1327 11.8733 12.0889 11.8788C12.0512 11.8837 11.6759 11.976 11.2549 12.084ZM1.35061 12.0223C1.35061 12.0981 1.90058 12.9704 2.17611 13.3314C2.55266 13.8251 3.45757 14.6958 3.45757 14.5645C3.45757 14.5178 3.37658 14.237 2.93715 12.76C2.84736 12.4582 2.7761 12.3082 2.72256 12.3082C2.64936 12.3082 1.66871 12.0734 1.44515 12.0023C1.39313 11.9858 1.35061 11.9948 1.35061 12.0223ZM9.02209 12.5029C7.63004 12.6981 5.32536 12.7101 4.06118 12.5286C3.86518 12.5005 3.69527 12.4871 3.68366 12.4988C3.6721 12.5106 3.84136 13.129 4.05983 13.873L4.45702 15.2258L4.70013 15.3332C5.25329 15.5774 5.93843 15.7133 6.64501 15.7186C7.01643 15.7215 7.46192 15.6951 7.63496 15.6601C8.00335 15.5855 8.64089 15.395 8.7397 15.3301C8.83117 15.27 9.67098 12.4159 9.59469 12.4243C9.56201 12.4279 9.30437 12.4633 9.02209 12.5029ZM1.58778 14.7839C1.13187 15.3426 0.631114 16.0978 0.338517 16.6678L0.11545 17.1025L1.07066 17.1028C2.09361 17.103 2.71695 17.174 3.47134 17.3763C4.64346 17.6907 5.532 18.1545 6.38634 18.8981L6.69488 19.1667L7.03464 18.896C7.91696 18.1929 8.98881 17.7143 10.2647 17.4539C10.973 17.3093 12.2293 17.2537 12.8533 17.3392C13.1033 17.3735 13.3184 17.3908 13.3313 17.3778C13.3735 17.335 12.7497 16.3091 12.3861 15.8234C12.1902 15.5618 11.8615 15.157 11.6553 14.9238L11.2807 14.5L10.9212 14.8211C10.011 15.6346 8.95256 16.1807 7.86067 16.4006C7.33717 16.506 6.16749 16.518 5.67257 16.4231C4.98727 16.2916 4.11958 15.9531 3.51316 15.5805C3.18264 15.3775 2.52165 14.8484 2.2713 14.5865C2.13883 14.4479 2.01338 14.3345 1.99253 14.3345C1.97162 14.3345 1.78951 14.5368 1.58778 14.7839Z" fill="url(#paint0_linear_1585_3659)"/>
<defs>
<linearGradient id="paint0_linear_1585_3659" x1="6.66667" y1="0" x2="6.66667" y2="19.1667" gradientUnits="userSpaceOnUse">
<stop stop-color="#F8F8F8"/>
<stop offset="0.7" stop-color="#FADFAE"/>
<stop offset="1" stop-color="#FBD298"/>
</linearGradient>
</defs>
</svg>
