<svg width="16" height="16" viewBox="0 0 16 16" fill="none" xmlns="http://www.w3.org/2000/svg">
<path d="M13.1119 7.72127C13.1119 4.66942 10.6646 2.20561 7.65848 2.20543C4.65224 2.20543 2.20504 4.66931 2.20504 7.72127C2.20526 10.773 4.65237 13.2371 7.65848 13.2371C9.19161 13.237 10.5772 12.5974 11.5694 11.5647C12.5237 10.5715 13.1118 9.21665 13.1119 7.72127ZM14.3161 7.72127C14.316 8.22746 14.2604 8.72063 14.1549 9.19491C13.8784 10.4389 13.7402 11.0609 13.7239 11.175C13.5436 12.4365 13.5813 12.5675 14.4055 13.5395C14.48 13.6274 14.6534 13.8026 15 14.1529L14.1442 15C13.8607 14.7137 13.719 14.5706 13.6662 14.5221C12.6189 13.5609 12.4233 13.5069 11.0311 13.7943C10.9609 13.8087 10.4078 13.9508 9.30155 14.2349C8.7761 14.3698 8.22563 14.4416 7.65848 14.4416C3.97598 14.4416 1.00022 11.4271 1 7.72127C1 4.0153 3.97585 1 7.65848 1C11.341 1.00018 14.3161 4.01541 14.3161 7.72127Z" fill="url(#paint0_linear_1603_3520)"/>
<defs>
<linearGradient id="paint0_linear_1603_3520" x1="8" y1="1" x2="8" y2="15" gradientUnits="userSpaceOnUse">
<stop stop-color="#F8F8F8"/>
<stop offset="1" stop-color="#929292"/>
</linearGradient>
</defs>
</svg>
