<svg width="16" height="16" viewBox="0 0 16 16" fill="none" xmlns="http://www.w3.org/2000/svg">
  <path fill-rule="evenodd" clip-rule="evenodd" d="M3.39342 1.04957C3.41006 1.07753 3.52668 1.24504 3.65252 1.4218C4.41324 2.48998 5.05448 3.75878 5.55075 5.17779C5.75728 5.76826 6.18338 7.23277 6.18338 7.352C6.18338 7.42194 6.12065 7.42668 5.06097 7.43676L3.93855 7.44745L4.51824 8.15044C4.83706 8.53709 5.7317 9.63074 6.50637 10.5808C7.281 11.5308 7.91693 12.3081 7.91946 12.3081C7.92203 12.3081 8.43731 11.6845 9.06448 10.9222C9.69168 10.16 10.596 9.06634 11.0741 8.49189L11.9435 7.44745L10.8583 7.43676C10.1328 7.42961 9.77302 7.41202 9.77302 7.38378C9.77302 7.32203 9.96572 6.57815 10.0843 6.18206C10.6734 4.21505 11.4089 2.65344 12.3598 1.35085C12.4851 1.17924 12.5876 1.03013 12.5876 1.01944C12.5876 1.00876 12.0677 1 11.4323 1H10.2771L10.1028 1.29992C9.46431 2.39888 8.94891 3.98274 8.65224 5.75737C8.52101 6.54235 8.34532 7.76536 8.34532 7.89399C8.34532 7.94011 8.55422 7.94959 9.56907 7.94959C10.2421 7.94959 10.7928 7.96003 10.7928 7.9728C10.7928 8.01892 7.96034 11.4051 7.9304 11.3948C7.89617 11.383 5.08202 7.99755 5.08202 7.96818C5.08202 7.95794 5.65106 7.94959 6.34655 7.94959C7.04204 7.94959 7.61104 7.93601 7.611 7.91946C7.61071 7.8157 7.42789 6.50431 7.34353 6.00129C7.04486 4.21987 6.64432 2.92395 6.00472 1.66965L5.67349 1.02009L4.51832 1.0094C3.5955 1.00088 3.36927 1.00896 3.39342 1.04957ZM2.7432 11.8065C1.90588 12.0839 1.23413 12.4864 1.06235 12.8135C0.790152 13.3319 1.41773 13.8882 2.7773 14.3337C3.61895 14.6095 4.67839 14.8123 5.97943 14.9467C6.66647 15.0178 9.33072 15.0178 10.0178 14.9467C12.5275 14.6873 14.3567 14.1069 14.872 13.4064C15.092 13.1073 15.0307 12.8378 14.6701 12.5185C14.3444 12.2301 13.425 11.8099 12.812 11.6692C12.6951 11.6423 12.6969 11.6459 12.8528 11.7492C13.391 12.1059 13.533 12.4729 13.283 12.861C12.9652 13.3546 11.9674 13.7684 10.5073 14.0123C9.70812 14.1458 9.05762 14.1925 7.9986 14.1925C6.27251 14.1925 4.91636 13.9966 3.83482 13.591C3.21169 13.3574 2.82458 13.0947 2.67157 12.8018C2.48148 12.4379 2.64322 12.078 3.14369 11.7514C3.23302 11.693 3.28809 11.6456 3.26607 11.6459C3.24404 11.6462 3.00875 11.7185 2.7432 11.8065ZM5.06162 11.8354C4.86476 11.8839 4.35169 12.1035 4.17269 12.216C3.93039 12.3682 3.8431 12.5139 3.91228 12.6506C4.14667 13.1134 5.66758 13.5371 7.34594 13.607C9.26978 13.687 11.2008 13.374 11.8663 12.8741C12.1977 12.6251 12.1862 12.4432 11.8245 12.216C11.6181 12.0863 11.1071 11.8751 10.8856 11.8281L10.7542 11.8001L10.8958 11.9396C11.3905 12.4267 10.541 12.9534 8.97592 13.1299C8.50645 13.1829 7.49075 13.1829 7.02128 13.1299C5.46076 12.9539 4.60684 12.4266 5.09833 11.9426C5.23376 11.8092 5.22862 11.7943 5.06162 11.8354Z" fill="url(#paint0_linear_1088_1584)" />
  <defs>
    <linearGradient id="paint0_linear_1088_1584" x1="8.03132" y1="-0.187663" x2="8.03132" y2="16.1919" gradientUnits="userSpaceOnUse">
      <stop stop-color="#F8F8F8" />
      <stop offset="1" stop-color="#929292" />
    </linearGradient>
  </defs>
</svg>