<svg width="64" height="64" viewBox="0 0 64 64" fill="none" xmlns="http://www.w3.org/2000/svg">
<g clip-path="url(#clip0_131_70)">
<path d="M32 64C49.6731 64 64 49.6731 64 32C64 14.3269 49.6731 0 32 0C14.3269 0 0 14.3269 0 32C0 49.6731 14.3269 64 32 64Z" fill="#DC2863"/>
<path d="M44.5 39C48.6421 39 52 35.6421 52 31.5C52 27.3579 48.6421 24 44.5 24C40.3579 24 37 27.3579 37 31.5C37 35.6421 40.3579 39 44.5 39Z" fill="white"/>
<path d="M44.5 35C46.433 35 48 33.433 48 31.5C48 29.567 46.433 28 44.5 28C42.567 28 41 29.567 41 31.5C41 33.433 42.567 35 44.5 35Z" fill="#1A1A54"/>
<path d="M19.5 39C23.6421 39 27 35.6421 27 31.5C27 27.3579 23.6421 24 19.5 24C15.3579 24 12 27.3579 12 31.5C12 35.6421 15.3579 39 19.5 39Z" fill="white"/>
<path d="M19.5 35C21.433 35 23 33.433 23 31.5C23 29.567 21.433 28 19.5 28C17.567 28 16 29.567 16 31.5C16 33.433 17.567 35 19.5 35Z" fill="#1A1A54"/>
<path d="M40.7 49C39 46 35.7 44 32 44C28.3 44 25.1 46 23.3 49" stroke="#1A1A54" stroke-width="3" stroke-miterlimit="10" stroke-linecap="round" stroke-linejoin="round"/>
<path d="M4.19995 20L32 34.6L59.7999 20H4.19995Z" fill="#DC2863"/>
<path d="M36.5 30.3999L52.2 20.8999C53.5 20.0999 55.2 20.4999 56 21.7999C56.8 23.0999 56.4 24.7999 55.1 25.5999C55 25.6999 54.8 25.6999 54.7 25.7999L37.6 32.5999C37 32.7999 36.3 32.4999 36.1 31.8999C35.8 31.2999 36 30.6999 36.5 30.3999Z" fill="#1A1A54"/>
<path d="M26.5001 32.6001L9.40005 25.8001C8.00005 25.2001 7.30005 23.7001 7.90005 22.2001C8.50005 20.8001 10.0001 20.1001 11.5001 20.7001C11.6001 20.8001 11.8001 20.8001 11.9001 20.9001L27.6001 30.4001C28.2001 30.7001 28.3001 31.5001 28.0001 32.0001C27.6001 32.6001 27.0001 32.8001 26.5001 32.6001Z" fill="#1A1A54"/>
</g>
<defs>
<clipPath id="clip0_131_70">
<rect width="64" height="64" fill="white"/>
</clipPath>
</defs>
</svg>
