<svg width="64" height="64" viewBox="0 0 64 64" fill="none" xmlns="http://www.w3.org/2000/svg">
<g clip-path="url(#clip0_131_58)">
<path d="M32 64C49.6731 64 64 49.6731 64 32C64 14.3269 49.6731 0 32 0C14.3269 0 0 14.3269 0 32C0 49.6731 14.3269 64 32 64Z" fill="#FFBF0B"/>
<path d="M32 64C49.6731 64 64 49.6731 64 32C64 14.3269 49.6731 0 32 0C14.3269 0 0 14.3269 0 32C0 49.6731 14.3269 64 32 64Z" fill="#FFBF0B"/>
<path d="M10 55.2C13.1 58.2 16.9 60.5 21 62V19.7L10 20.7V55.2Z" fill="#0B85FF"/>
<path d="M54.1 55.2C51 58.2 47.2 60.5 43.1 62V19.7L54.1 20.7V55.2Z" fill="#0B85FF"/>
<path d="M26.8 40C26.4 40.1 26 39.8001 26 39.4001C26 37.8001 26 34.2001 26 34.2001C26 30.5001 28.7 27.8 32 27.8H32.1C35.4 27.8 38 30.4001 38 33.7001C38 35.9001 38 38.2 38 39.3C38 39.7 37.6 40.0001 37.2 39.9001C33.7 39.0001 30.3 39 26.8 40Z" fill="#1A1A54"/>
<path d="M32 34.8999C29.8 34.8999 27.8 35.9999 26 38.0999C26 38.5999 26 39.0999 26 39.4999C26 39.8999 26.4 40.1999 26.8 40.0999C30.3 39.0999 33.8 39.0999 37.2 40.0999C37.6 40.1999 38 39.8999 38 39.4999C38 39.0999 38 38.6999 38 38.0999C36.2 36.0999 34.2 34.8999 32 34.8999Z" fill="#DC2863"/>
<path d="M9.30005 20.6001C10.3 19.3001 11.6 18.5001 13 17.9001C14.4 17.3001 16 17.1001 17.5 17.1001C19 17.2001 20.5 17.5001 21.9 18.1001C22.6 18.4001 23.2 18.8001 23.8 19.2001C24.4 19.6001 24.9 20.1001 25.4 20.7001C25.7 21.1001 25.7 21.7001 25.3 22.0001C25.1 22.1001 24.9 22.2001 24.7 22.2001H24.6C23.9 22.2001 23.2 22.1001 22.6 22.1001C22 22.1001 21.4 22.0001 20.8 21.9001C19.6 21.8001 18.5 21.8001 17.3 21.7001C16.2 21.7001 15.1 21.8001 13.9 21.9001C12.8 22.0001 11.5 22.2001 10.3 22.3001H10C9.40005 22.4001 8.90005 21.9001 8.80005 21.3001C9.00005 21.1001 9.10005 20.9001 9.30005 20.6001Z" fill="#1A1A54"/>
<path d="M53.5 22.4C52.3 22.3 51.1 22.1 49.9 22C48.8 21.9 47.6 21.7999 46.5 21.7999C45.4 21.7999 44.2 21.8 43 22C42.4 22 41.8 22.1 41.2 22.2C40.6 22.2 39.9 22.3999 39.2 22.2999H39.1C38.6 22.2999 38.2 21.9 38.2 21.4C38.2 21.2 38.3 20.9999 38.4 20.7999C38.9 20.1999 39.4 19.6999 40 19.2999C40.6 18.8999 41.2 18.5 41.9 18.2C43.3 17.6 44.8 17.3 46.3 17.2C47.8 17.2 49.4 17.4 50.8 18C52.2 18.6 53.5 19.4 54.5 20.7C54.9 21.2 54.8 21.9 54.3 22.2C54.1 22.4 53.8 22.4 53.5 22.4Z" fill="#1A1A54"/>
</g>
<defs>
<clipPath id="clip0_131_58">
<rect width="64" height="64" fill="white"/>
</clipPath>
</defs>
</svg>
