<svg width="512" height="512" viewBox="0 0 512 512" fill="none" xmlns="http://www.w3.org/2000/svg">
<path d="M465.325 374.15C465.325 394.74 448.625 411.44 428.045 411.44H381.015C401.605 411.44 418.295 428.13 418.295 448.72C418.295 469.3 401.605 486 381.015 486H187.245L46.675 430.99V210.97H125.515C125.515 210.97 142.835 139.27 237.355 106.67L318.035 26C318.035 26 387.865 49.63 348.055 105.85L287.475 187.75H410.705C431.285 187.75 447.985 204.45 447.985 225.03C447.985 245.62 431.285 262.31 410.705 262.31H428.045C448.625 262.31 465.325 279.01 465.325 299.59C465.325 320.18 448.625 336.87 428.045 336.87C448.625 336.87 465.325 353.57 465.325 374.15Z" fill="#FCB556"/>
<path d="M428.045 349.37H287.475C280.571 349.37 274.975 343.773 274.975 336.87C274.975 329.967 280.571 324.37 287.475 324.37H428.045C434.949 324.37 440.545 329.967 440.545 336.87C440.545 343.773 434.948 349.37 428.045 349.37Z" fill="#E87A31"/>
<path d="M410.705 274.81H287.475C280.571 274.81 274.975 269.213 274.975 262.31C274.975 255.407 280.571 249.81 287.475 249.81H410.705C417.609 249.81 423.205 255.407 423.205 262.31C423.205 269.213 417.609 274.81 410.705 274.81Z" fill="#E87A31"/>
<path d="M381.015 423.941H287.475C280.571 423.941 274.975 418.344 274.975 411.441C274.975 404.538 280.571 398.941 287.475 398.941H381.015C387.919 398.941 393.515 404.538 393.515 411.441C393.515 418.344 387.919 423.941 381.015 423.941Z" fill="#E87A31"/>
</svg>
