<svg width="512" height="512" viewBox="0 0 512 512" fill="none" xmlns="http://www.w3.org/2000/svg">
<path d="M465.325 137.85C465.325 117.26 448.625 100.56 428.045 100.56H381.015C401.605 100.56 418.295 83.87 418.295 63.28C418.295 42.7 401.605 26 381.015 26H187.245L46.675 81.01V301.031H125.515C125.515 301.031 142.835 372.731 237.355 405.331L318.035 486.001C318.035 486.001 387.865 462.371 348.055 406.151L287.475 324.251H410.705C431.285 324.251 447.985 307.551 447.985 286.971C447.985 266.381 431.285 249.691 410.705 249.691H428.045C448.625 249.691 465.325 232.991 465.325 212.411C465.325 191.821 448.625 175.131 428.045 175.131C448.625 175.13 465.325 158.43 465.325 137.85Z" fill="#FCB556"/>
<path d="M428.045 162.63H287.475C280.571 162.63 274.975 168.227 274.975 175.13C274.975 182.033 280.571 187.63 287.475 187.63H428.045C434.949 187.63 440.545 182.033 440.545 175.13C440.545 168.227 434.948 162.63 428.045 162.63Z" fill="#E87A31"/>
<path d="M410.705 237.191H287.475C280.571 237.191 274.975 242.788 274.975 249.691C274.975 256.594 280.571 262.191 287.475 262.191H410.705C417.609 262.191 423.205 256.594 423.205 249.691C423.205 242.787 417.609 237.191 410.705 237.191Z" fill="#E87A31"/>
<path d="M381.015 88.0601H287.475C280.571 88.0601 274.975 93.6571 274.975 100.56C274.975 107.463 280.571 113.06 287.475 113.06H381.015C387.919 113.06 393.515 107.463 393.515 100.56C393.515 93.6571 387.919 88.0601 381.015 88.0601Z" fill="#E87A31"/>
</svg>
