<svg width="48" height="48" viewBox="0 0 48 48" fill="none" xmlns="http://www.w3.org/2000/svg">
<g clip-path="url(#clip0_127_21)">
<path d="M13.1487 12.63C13.1487 12.63 11.3587 21.62 12.1887 24.1C12.1887 24.1 13.2887 10.5 23.8587 0C23.8587 0 23.5187 8.79 29.0087 13.25C34.4987 17.71 35.7387 24.65 35.7387 24.65C35.7387 24.65 36.3587 19.91 34.4987 12.32C34.4987 12.32 46.1687 24.44 40.8187 37.97C40.8187 37.97 34.3687 52.87 15.8987 46.35C-2.57127 39.83 9.84873 14.97 13.1487 12.63Z" fill="#F6AF62"/>
<path d="M32.8588 24.1201C33.0288 27.9301 31.3088 28.9301 29.9188 29.1301C29.0288 29.2601 28.1288 29.0301 27.3488 28.6001C19.6988 24.4501 23.6288 14.3101 23.6288 14.3101C18.6188 19.1001 21.2288 29.0501 21.2288 29.0501C21.2288 29.0501 22.7788 34.6901 19.6088 35.1801C18.0188 35.4301 17.2788 34.7901 16.9388 34.1001C16.6288 33.4601 16.6288 32.7101 16.8988 32.0501C19.0488 26.7101 17.2088 23.6901 17.2088 23.6901C16.1788 26.7501 15.0888 28.7701 14.2988 29.9801C13.1788 31.7001 12.4688 33.6601 12.3688 35.7101C12.0088 43.3501 18.4088 46.4001 18.4088 46.4001C28.9188 51.7601 33.6388 41.9601 33.6388 41.9601C39.0688 31.5201 32.8588 24.1201 32.8588 24.1201Z" fill="#FBD872"/>
</g>
<defs>
<clipPath id="clip0_127_21">
<rect width="48" height="48" fill="white"/>
</clipPath>
</defs>
</svg>
