<svg width="20" height="20" viewBox="0 0 20 20" fill="none" xmlns="http://www.w3.org/2000/svg">
<path fill-rule="evenodd" clip-rule="evenodd" d="M1 1.43828V1.87701L1.66522 2.28105C2.84487 2.99761 4.35332 4.08971 5.51304 5.06677C5.7713 5.28439 6.02779 5.49721 6.08304 5.53967C6.1383 5.5822 5.89433 5.25303 5.5409 4.80825C4.65791 3.69705 3.65398 2.34627 3.16574 1.6126L2.75779 0.999553H1.87892H1V1.43828ZM7.67826 1.02042C7.67826 1.03195 7.77468 1.2491 7.89259 1.50303C8.41177 2.62164 9.03457 4.14486 9.29341 4.92898C9.35795 5.12453 9.41685 5.27714 9.42437 5.26811C9.43188 5.25908 9.39457 4.89955 9.34151 4.46912C9.19783 3.30454 9.03489 1.70734 9.03405 1.45561C9.03254 0.985884 9.05383 0.999553 8.32433 0.999553C7.96903 0.999553 7.67826 1.00894 7.67826 1.02042ZM13.5255 1.63868C13.4274 1.99018 13.234 2.61658 13.0958 3.03058C12.9577 3.44463 12.851 3.78966 12.8587 3.79733C12.8663 3.80505 12.9996 3.58367 13.1549 3.30543C13.3101 3.02719 13.6562 2.43047 13.9239 1.97933C14.1917 1.52823 14.4246 1.12326 14.4414 1.07933C14.4672 1.01218 14.4112 0.999553 14.088 0.999553H13.7041L13.5255 1.63868ZM17.3266 1.63868C16.5801 2.90599 15.4283 4.5166 14.3345 5.82251C14.0475 6.16514 13.847 6.42434 13.8889 6.39856C13.9309 6.37279 14.2 6.16107 14.487 5.92811C15.9482 4.74183 17.6801 3.46388 18.5435 2.93479L19 2.65503V1.82729V0.999553H18.3515H17.7031L17.3266 1.63868ZM12.2192 2.37136C11.1802 5.66025 10.4838 6.77724 9.37788 6.92886C8.87247 6.99809 8.20939 6.60168 7.31915 5.69797C7.02082 5.39515 6.79016 5.1826 6.80654 5.22564C6.82292 5.26868 6.9077 5.47039 6.99494 5.67387C7.45986 6.75846 7.40336 7.35835 6.82819 7.44387C6.40694 7.50653 5.36967 7.18931 3.91428 6.55279C3.62315 6.42548 3.37068 6.32181 3.3533 6.32239C3.33593 6.32301 3.48609 6.42971 3.68696 6.55957C5.4219 7.68074 5.91755 8.04674 5.98381 8.25559C6.03123 8.40486 5.96023 8.46345 5.66503 8.5186C5.31744 8.58355 4.5149 8.49914 2.88066 8.22569C2.12153 8.0987 1.4933 8.00187 1.48464 8.01053C1.47598 8.01924 1.61581 8.06974 1.79534 8.12286C1.97487 8.17597 2.36826 8.30995 2.66957 8.42056C4.81506 9.20834 6.00275 10.0111 6.22078 10.8209C6.34412 11.2788 6.02216 11.7482 4.63297 13.1357C3.67057 14.097 3.64459 14.1283 3.90838 14.0104C4.59896 13.7017 5.61061 13.5735 6.00995 13.744C6.40209 13.9115 6.58287 14.2515 6.58224 14.8204C6.58172 15.301 6.45244 15.7915 5.9079 17.3786C5.6477 18.137 5.43478 18.7688 5.43478 18.7826C5.43478 18.7963 5.65887 18.4834 5.93278 18.0872C7.44504 15.8995 8.34802 14.892 8.7544 14.9391C8.87424 14.953 8.90769 14.989 8.93962 15.1387C8.98876 15.369 8.91901 15.9551 8.72101 16.975C8.63576 17.4141 8.56767 17.8087 8.56965 17.8517C8.57164 17.8948 8.68574 17.6013 8.82327 17.1996C9.48369 15.2704 10.1291 14.2579 10.9404 13.8783C11.8355 13.4594 12.5228 13.6698 14.1166 14.8506C14.6015 15.2099 15.0111 15.5039 15.0268 15.5039C15.0425 15.5039 14.9838 15.4276 14.8963 15.3343C14.4477 14.8556 13.8677 14.1592 13.749 13.9567C13.6352 13.7624 13.6255 13.7154 13.6845 13.6443C13.8032 13.5013 14.3168 13.5915 15.3601 13.9387C15.8842 14.1132 16.4998 14.3255 16.728 14.4105C16.9562 14.4955 17.1206 14.5453 17.0932 14.5209C17.0659 14.4966 16.6652 14.2142 16.2028 13.8932C15.3121 13.275 14.8631 12.8821 14.8896 12.7442C14.9391 12.4874 15.9879 12.4745 17.6696 12.7102C19.2504 12.9317 19.2428 12.9399 17.9043 12.4629C15.4672 11.5944 14.6919 11.2182 14.1873 10.6597C13.4629 9.8579 13.6401 9.13576 14.8721 7.86914L15.2696 7.46046L14.6957 7.74919C14.0132 8.09254 13.6148 8.20957 13.3395 8.14748C12.7831 8.02201 12.6671 7.46348 12.9759 6.39778C13.0802 6.03778 13.7261 4.34421 14.0695 3.52999C14.2056 3.20729 14.1045 3.35035 13.4796 4.36477C12.8385 5.40543 12.5622 5.79679 12.3511 5.96281C12.1216 6.14338 12.086 6.04649 12.0937 5.26174C12.099 4.73614 12.1578 4.19244 12.3426 2.96145C12.4757 2.07481 12.5773 1.34213 12.5685 1.33321C12.5595 1.32434 12.4024 1.7915 12.2192 2.37136ZM18.5043 7.29658C17.805 7.65574 15.4077 8.64063 14.9671 8.74983C14.6085 8.83874 14.9322 8.80962 15.8456 8.67084C16.3896 8.5882 17.2574 8.47101 17.7739 8.41044C18.2904 8.34992 18.7776 8.28757 18.8565 8.27192L19 8.24343V7.67369C19 7.25129 18.9831 7.10458 18.9348 7.10646C18.8989 7.10787 18.7052 7.19343 18.5043 7.29658ZM10.8843 8.75004C10.5637 8.90828 10.4438 9.33788 10.6316 9.65573C10.7318 9.8254 10.9846 9.97347 11.1739 9.97347C11.3633 9.97347 11.616 9.8254 11.7162 9.65573C11.9062 9.33408 11.7824 8.90343 11.4553 8.74821C11.2464 8.64914 11.0878 8.64961 10.8843 8.75004ZM8.92224 8.77216C8.45863 8.9122 8.18821 9.25305 8.15743 9.73602C8.13489 10.0903 8.2095 10.3027 8.44501 10.5547C8.57195 10.6905 8.57252 10.695 8.48283 10.8678C8.20344 11.406 8.59214 12.0604 9.1913 12.0604C9.79569 12.0604 10.2005 11.4166 9.92649 10.8911L9.82005 10.687L9.95398 10.5531C10.4771 10.0299 10.3357 9.20479 9.66452 8.86477C9.37918 8.7202 9.17743 8.69505 8.92224 8.77216ZM1 9.90392V10.613L1.31847 10.577C2.09017 10.4897 2.85943 10.4444 3.63478 10.4407L4.46957 10.4368L3.81739 10.2295C2.83537 9.91733 1.91117 9.58879 1.43043 9.38093L1 9.19482V9.90392ZM10.7378 10.3334C10.4026 10.5544 10.3057 10.902 10.4936 11.21C10.7541 11.6374 11.3328 11.6374 11.5934 11.21C11.9304 10.6574 11.2711 9.98176 10.7378 10.3334ZM4.75652 11.5461C4.51997 11.6421 3.34271 11.9533 2.71167 12.0865C2.21216 12.192 1.14635 12.3735 1.02645 12.3735C1.0119 12.3735 1 12.7981 1 13.3171V14.2608L1.40435 13.9254C2.14313 13.3126 3.39332 12.4445 4.45652 11.8059C4.95504 11.5065 5.0441 11.4293 4.75652 11.5461ZM3.8381 15.9767C3.15238 16.5236 2.23443 17.2221 1.79821 17.5289L1.00517 18.0865L1.00256 18.543L1 18.9996H1.54668H2.0933L2.46927 18.4387C3.1395 17.4388 3.94203 16.3784 4.71984 15.4648C4.94586 15.1994 5.12043 14.9822 5.10781 14.9822C5.09523 14.9822 4.52383 15.4297 3.8381 15.9767ZM13.2619 15.6045C13.3618 15.7316 13.7433 16.2129 14.1096 16.6741C14.476 17.1353 15.016 17.8463 15.3096 18.2541L15.8435 18.9956L16.9365 18.9976C17.5377 18.9987 18.0073 18.9798 17.98 18.9557C17.9528 18.9317 17.6722 18.7524 17.3565 18.5573C16.2893 17.8979 14.8662 16.8572 13.7563 15.9247C13.0946 15.3687 13.0578 15.3448 13.2619 15.6045ZM10.913 16.0308C10.913 16.1293 10.8537 16.7026 10.7811 17.3047C10.7086 17.9069 10.6349 18.5345 10.6172 18.6996L10.5851 18.9996H10.9565H11.3278L11.303 18.8561C11.2345 18.459 11.1092 17.4251 11.0431 16.7101C10.9727 15.9497 10.913 15.6379 10.913 16.0308ZM12.1695 16.5327C12.1992 16.6107 12.4478 17.1976 12.7219 17.837L13.2204 18.9996H13.635C13.9527 18.9996 14.0405 18.9843 14.0107 18.9343C13.9892 18.8985 13.722 18.5404 13.4168 18.1387C13.1115 17.7369 12.7033 17.1794 12.5096 16.8996C12.3159 16.6197 12.1481 16.3909 12.1365 16.3909C12.125 16.3909 12.1399 16.4547 12.1695 16.5327ZM8.51716 18.0387C8.51967 18.0995 8.53203 18.1118 8.54868 18.0702C8.56376 18.0326 8.56188 17.9875 8.54456 17.9702C8.52724 17.9529 8.51492 17.9837 8.51716 18.0387Z" fill="url(#paint0_linear_583_4583)"/>
<defs>
<linearGradient id="paint0_linear_583_4583" x1="10" y1="0.999512" x2="10" y2="18.9996" gradientUnits="userSpaceOnUse">
<stop offset="0.3" stop-color="#F69090"/>
<stop offset="1" stop-color="#97292A"/>
</linearGradient>
</defs>
</svg>
