<svg width="40" height="26" viewBox="0 0 40 26" fill="none" xmlns="http://www.w3.org/2000/svg">
<g filter="url(#filter0_d_378_723)">
<path fill-rule="evenodd" clip-rule="evenodd" d="M13.0735 0.310533C11.6094 0.571089 10.6245 1.11021 10.1708 1.89946C10.0508 2.10813 9.87412 2.67029 9.89068 2.7905C9.90166 2.87019 9.91767 2.88252 10.0511 2.91413C10.4308 3.00411 11.0736 2.91607 11.5382 2.71049C12.0567 2.48107 12.4353 2.11596 12.8897 1.40725C13.1215 1.0457 13.4734 0.412696 13.4995 0.310373C13.5146 0.251094 13.4073 0.251161 13.0735 0.310533ZM8.97175 0.362145C7.94505 1.51941 7.55701 2.5163 7.77594 3.43433C7.82875 3.65586 7.98993 4.07138 8.06799 4.18733C8.13804 4.29139 8.13666 4.29187 8.53135 4.02571C9.355 3.47029 9.69732 2.63201 9.59514 1.42066C9.56504 1.0641 9.35789 0.00996035 9.31597 2.78475e-05C9.30552 -0.00244806 9.15063 0.160491 8.97175 0.362145ZM11.6887 3.22972C11.1031 3.29152 10.4575 3.42257 10.0534 3.56173C9.88782 3.61871 9.59688 3.75561 9.40689 3.8659C9.12283 4.0308 9.02793 4.10545 8.87314 4.28585C8.67403 4.51793 8.42169 4.94609 8.31409 5.23441C8.25412 5.39518 8.25388 5.41119 8.31086 5.46059C8.35333 5.4974 8.46337 5.53029 8.66858 5.56749C9.244 5.67186 9.88369 5.5552 10.4209 5.24791C10.7353 5.06812 10.9594 4.8769 11.2775 4.51706C11.7002 4.03889 12.1563 3.38027 12.1664 3.23373C12.1697 3.18486 12.1177 3.18443 11.6887 3.22972ZM6.60074 2.97915C6.45904 3.16165 6.12335 3.79732 5.97974 4.15514C5.71931 4.80413 5.60315 5.43867 5.66674 5.86503C5.68198 5.96713 5.7476 6.17786 5.81254 6.33333C5.95822 6.68194 6.29127 7.19174 6.38839 7.21475C6.47165 7.23448 6.63192 7.10921 6.87751 6.83248C7.13356 6.544 7.18955 6.42684 7.32579 5.89442C7.47088 5.32741 7.47472 5.18989 7.35935 4.6874C7.27 4.29833 6.91352 3.30539 6.76754 3.03903L6.67929 2.87801L6.60074 2.97915ZM9.35339 5.91588C8.46197 6.22737 7.49126 6.79533 7.13087 7.21626C6.88569 7.50265 6.77328 7.74527 6.63554 8.28522C6.48677 8.86844 6.4932 8.93734 6.7006 8.98393C6.96713 9.04379 7.75014 8.81335 8.15612 8.55553C8.74577 8.18111 9.03739 7.74824 9.44111 6.64824C9.62669 6.14261 9.70596 5.86439 9.67348 5.83253C9.6617 5.82096 9.51768 5.85848 9.35339 5.91588ZM4.39475 6.11489C4.35832 6.2577 4.24933 7.1292 4.23595 7.3848C4.1872 8.31488 4.38321 9.07875 4.80982 9.62124C4.98493 9.84394 5.33151 10.1283 5.55243 10.2306C5.69508 10.2967 5.72175 10.3009 5.78584 10.2676C5.89292 10.2119 5.98108 10.0277 6.07302 9.66723C6.35011 8.581 6.06233 7.81846 4.92608 6.62815C4.48648 6.16764 4.40209 6.08612 4.39475 6.11489ZM8.47788 8.80591C8.10942 9.04341 7.63615 9.39317 7.39194 9.60839C7.05287 9.90725 6.65565 10.473 6.48563 10.8992C6.3756 11.175 6.36064 12.1066 6.46291 12.3126L6.5039 12.395L6.68625 12.3528C6.92671 12.297 7.42309 12.0551 7.69005 11.8636C7.96152 11.6688 8.1406 11.4758 8.30463 11.2016C8.42531 10.9998 8.4477 10.9323 8.62016 10.25C8.75523 9.71556 8.8126 9.4324 8.83082 9.21014C8.85923 8.86346 8.84954 8.66426 8.80286 8.63623C8.7853 8.62569 8.63906 8.70203 8.47788 8.80591ZM3.19285 9.87255C3.46282 10.9293 3.84092 11.6689 4.37534 12.1856C4.70484 12.5042 4.98809 12.643 5.60883 12.7901C5.95152 12.8713 6.03299 12.8636 6.06265 12.7473C6.09583 12.6173 6.06543 12.123 6.00882 11.8723C5.80536 10.9707 4.93273 10.1647 3.60761 9.65439C3.42829 9.58535 3.2372 9.51061 3.18294 9.48829L3.08428 9.44773L3.19285 9.87255ZM8.46927 11.8646C7.8293 12.3768 7.25704 12.9667 7.00827 13.3708C6.72364 13.8331 6.58907 14.3311 6.62083 14.8046C6.63876 15.0719 6.72934 15.4928 6.80392 15.6555C6.84261 15.7399 6.84367 15.7403 6.94374 15.707C7.14593 15.6398 7.84445 15.201 8.00679 15.0391C8.48503 14.5623 8.73346 13.778 8.76772 12.6369C8.77675 12.336 8.74798 11.8089 8.71799 11.7252C8.70567 11.6909 8.64122 11.727 8.46927 11.8646ZM3.00745 12.3694C2.96937 12.4222 3.07639 12.7038 3.34722 13.2634C3.77409 14.1454 4.22184 14.6974 4.76114 15.0066C4.98784 15.1366 5.96772 15.3767 6.1278 15.3414C6.27775 15.3084 6.30872 15.1916 6.25259 14.8706C6.18647 14.4926 6.10711 14.2642 5.94465 13.9846C5.76869 13.6816 5.62684 13.5156 5.3538 13.2931C4.90444 12.9269 4.40963 12.6979 3.58858 12.4761C3.10356 12.3451 3.03415 12.3324 3.00745 12.3694ZM9.52565 13.9501C9.35516 14.0496 8.94565 14.5548 8.62544 15.0607C8.11989 15.8595 7.9525 16.6102 8.12744 17.2939C8.21901 17.6517 8.43646 18.065 8.54828 18.0936C8.67239 18.1255 9.31038 17.586 9.528 17.2652C9.75704 16.9276 9.91655 16.3756 9.93755 15.8479C9.95351 15.4464 9.75556 14.2517 9.63066 13.9962C9.59236 13.9177 9.586 13.9149 9.52565 13.9501ZM10.5971 16.0096C10.3198 16.5133 9.9882 17.8863 10.0137 18.4252C10.0346 18.8675 10.1881 19.3166 10.4456 19.6889C10.5918 19.9003 10.9134 20.2118 11.0087 20.2344C11.2383 20.2888 11.7044 19.4419 11.7769 18.8386C11.8621 18.1298 11.6653 17.5452 10.9402 16.3534L10.6607 15.8939L10.5971 16.0096ZM4.55229 15.4529C4.15254 15.4032 3.99531 15.4082 3.9544 15.4717C3.88158 15.5846 4.7835 16.7838 5.22954 17.167C5.45488 17.3606 5.92433 17.6445 6.20946 17.7596C6.45973 17.8606 6.71635 17.8852 7.2462 17.8591C7.6162 17.8409 7.70918 17.8172 7.72994 17.7358C7.76345 17.6044 7.58916 17.1431 7.38287 16.8171C7.21085 16.5452 7.14209 16.4677 6.9034 16.2762C6.48395 15.9399 6.25686 15.8357 5.54727 15.6542C5.15751 15.5545 4.81831 15.4859 4.55229 15.4529ZM12.261 18.5993C12.1972 18.6192 12.2302 18.8993 12.3599 19.4411C12.6177 20.5174 12.9405 21.1005 13.5444 21.5809C13.8752 21.844 14.0216 21.9135 14.4689 22.0195C14.8812 22.1172 14.9031 22.1101 14.9343 21.8689C14.9664 21.6211 14.9406 21.1751 14.8792 20.9125C14.7638 20.4201 14.4262 19.9271 13.9437 19.5466C13.4941 19.192 12.377 18.5632 12.261 18.5993ZM7.22658 18.2527C6.83897 18.2091 5.66217 18.2841 5.58488 18.3573C5.55298 18.3875 5.61156 18.4706 5.81894 18.6894C6.66987 19.5873 7.52311 20.1212 8.23556 20.2014C8.67402 20.2508 9.42002 20.1543 9.63166 20.0207L9.72441 19.9622L9.69908 19.83C9.68514 19.7573 9.6026 19.5916 9.51566 19.4618C9.22849 19.0333 8.87638 18.7093 8.53813 18.5621C8.33876 18.4754 7.54708 18.2886 7.22658 18.2527ZM10.2505 20.519C9.94184 20.5129 9.80018 20.525 9.50753 20.5822C9.07933 20.6659 8.13988 20.9554 7.85962 21.0901C7.75318 21.1412 7.75087 21.1452 7.79589 21.2C7.89885 21.3253 8.75131 21.7876 9.23202 21.9789C9.93047 22.2567 10.764 22.3176 11.2987 22.1298C11.5151 22.0538 12.28 21.656 12.2952 21.6115C12.3074 21.5757 11.8321 21.1144 11.6428 20.9783C11.2711 20.7111 10.7162 20.5281 10.2505 20.519ZM13.229 22.2878C12.5689 22.2471 11.5948 22.5194 10.797 22.9676C10.6674 23.0405 10.5571 23.1164 10.552 23.1364C10.5413 23.1784 10.718 23.2831 11.1273 23.4772C11.3844 23.5992 11.5043 23.635 12.238 23.8091C13.1427 24.0238 13.2762 24.0369 13.6633 23.9491C14.0418 23.8631 14.9007 23.4169 14.9888 23.2603C15.0585 23.1364 14.7989 22.8891 14.3178 22.6213C14.0313 22.4618 13.5221 22.3058 13.229 22.2878Z" fill="url(#paint0_linear_378_723)"/>
</g>
<g filter="url(#filter1_d_378_723)">
<path d="M23.7841 14.32C23.7575 14.5467 23.7441 14.8533 23.7441 15.24C23.7441 15.7867 23.7908 16.22 23.8841 16.54C23.8308 16.6867 23.7441 16.8067 23.6241 16.9C23.5041 16.98 23.3841 17.02 23.2641 17.02L20.4641 17L16.3441 17.02C16.1841 16.7933 16.1041 16.4467 16.1041 15.98L17.1841 15C17.8508 14.4133 18.4041 13.9133 18.8441 13.5C19.2975 13.0733 19.7175 12.6333 20.1041 12.18C20.5041 11.7133 20.7908 11.2867 20.9641 10.9C21.1508 10.5133 21.2441 10.1133 21.2441 9.7C21.2441 9.1 21.0775 8.64667 20.7441 8.34C20.4241 8.03333 19.9775 7.88 19.4041 7.88C18.8708 7.88 18.4441 8.04 18.1241 8.36C17.8175 8.68 17.6175 9.23333 17.5241 10.02C17.0975 10.02 16.7441 9.96 16.4641 9.84C16.5041 9.52 16.5241 9.18 16.5241 8.82C16.5241 8.35333 16.4975 7.95333 16.4441 7.62C17.5108 7.16667 18.6308 6.94 19.8041 6.94C20.9108 6.94 21.7641 7.14 22.3641 7.54C22.9641 7.92667 23.2641 8.48667 23.2641 9.22C23.2641 9.64667 23.1641 10.0533 22.9641 10.44C22.7641 10.8267 22.5108 11.1867 22.2041 11.52C21.8975 11.8533 21.4508 12.3 20.8641 12.86C19.9708 13.7133 19.2175 14.4667 18.6041 15.12H21.3641C21.7375 15.12 22.0108 15.1 22.1841 15.06C22.3575 15.02 22.4841 14.94 22.5641 14.82C22.6441 14.6867 22.7108 14.48 22.7641 14.2C23.1375 14.1733 23.4775 14.2133 23.7841 14.32Z" fill="url(#paint1_linear_378_723)"/>
</g>
<g filter="url(#filter2_d_378_723)">
<path fill-rule="evenodd" clip-rule="evenodd" d="M26.9265 0.310533C28.3906 0.571089 29.3755 1.11021 29.8292 1.89946C29.9492 2.10813 30.1259 2.67029 30.1093 2.7905C30.0983 2.87019 30.0823 2.88252 29.9489 2.91413C29.5692 3.00411 28.9264 2.91607 28.4618 2.71049C27.9433 2.48107 27.5647 2.11596 27.1103 1.40725C26.8785 1.0457 26.5266 0.412696 26.5005 0.310373C26.4854 0.251094 26.5927 0.251161 26.9265 0.310533ZM31.0283 0.362145C32.055 1.51941 32.443 2.5163 32.2241 3.43433C32.1712 3.65586 32.0101 4.07138 31.932 4.18733C31.862 4.29139 31.8633 4.29187 31.4686 4.02571C30.645 3.47029 30.3027 2.63201 30.4049 1.42066C30.435 1.0641 30.6421 0.00996035 30.684 2.78475e-05C30.6945 -0.00244806 30.8494 0.160491 31.0283 0.362145ZM28.3113 3.22972C28.8969 3.29152 29.5425 3.42257 29.9466 3.56173C30.1122 3.61871 30.4031 3.75561 30.5931 3.8659C30.8772 4.0308 30.9721 4.10545 31.1269 4.28585C31.326 4.51793 31.5783 4.94609 31.6859 5.23441C31.7459 5.39518 31.7461 5.41119 31.6891 5.46059C31.6467 5.4974 31.5366 5.53029 31.3314 5.56749C30.756 5.67186 30.1163 5.5552 29.5791 5.24791C29.2647 5.06812 29.0406 4.8769 28.7225 4.51706C28.2998 4.03889 27.8437 3.38027 27.8336 3.23373C27.8303 3.18486 27.8823 3.18443 28.3113 3.22972ZM33.3993 2.97915C33.541 3.16165 33.8767 3.79732 34.0203 4.15514C34.2807 4.80413 34.3968 5.43867 34.3333 5.86503C34.318 5.96713 34.2524 6.17786 34.1875 6.33333C34.0418 6.68194 33.7087 7.19174 33.6116 7.21475C33.5283 7.23448 33.3681 7.10921 33.1225 6.83248C32.8664 6.544 32.8104 6.42684 32.6742 5.89442C32.5291 5.32741 32.5253 5.18989 32.6407 4.6874C32.73 4.29833 33.0865 3.30539 33.2325 3.03903L33.3207 2.87801L33.3993 2.97915ZM30.6466 5.91588C31.538 6.22737 32.5087 6.79533 32.8691 7.21626C33.1143 7.50265 33.2267 7.74527 33.3645 8.28522C33.5132 8.86844 33.5068 8.93734 33.2994 8.98393C33.0329 9.04379 32.2499 8.81335 31.8439 8.55553C31.2542 8.18111 30.9626 7.74824 30.5589 6.64824C30.3733 6.14261 30.294 5.86439 30.3265 5.83253C30.3383 5.82096 30.4823 5.85848 30.6466 5.91588ZM35.6053 6.11489C35.6417 6.2577 35.7507 7.1292 35.764 7.3848C35.8128 8.31488 35.6168 9.07875 35.1902 9.62124C35.0151 9.84394 34.6685 10.1283 34.4476 10.2306C34.3049 10.2967 34.2783 10.3009 34.2142 10.2676C34.1071 10.2119 34.0189 10.0277 33.927 9.66723C33.6499 8.581 33.9377 7.81846 35.0739 6.62815C35.5135 6.16764 35.5979 6.08612 35.6053 6.11489ZM31.5221 8.80591C31.8906 9.04341 32.3638 9.39317 32.6081 9.60839C32.9471 9.90725 33.3444 10.473 33.5144 10.8992C33.6244 11.175 33.6394 12.1066 33.5371 12.3126L33.4961 12.395L33.3137 12.3528C33.0733 12.297 32.5769 12.0551 32.31 11.8636C32.0385 11.6688 31.8594 11.4758 31.6954 11.2016C31.5747 10.9998 31.5523 10.9323 31.3798 10.25C31.2448 9.71556 31.1874 9.4324 31.1692 9.21014C31.1408 8.86346 31.1505 8.66426 31.1971 8.63623C31.2147 8.62569 31.3609 8.70203 31.5221 8.80591ZM36.8072 9.87255C36.5372 10.9293 36.1591 11.6689 35.6247 12.1856C35.2952 12.5042 35.0119 12.643 34.3912 12.7901C34.0485 12.8713 33.967 12.8636 33.9373 12.7473C33.9042 12.6173 33.9346 12.123 33.9912 11.8723C34.1946 10.9707 35.0673 10.1647 36.3924 9.65439C36.5717 9.58535 36.7628 9.51061 36.8171 9.48829L36.9157 9.44773L36.8072 9.87255ZM31.5307 11.8646C32.1707 12.3768 32.743 12.9667 32.9917 13.3708C33.2764 13.8331 33.4109 14.3311 33.3792 14.8046C33.3612 15.0719 33.2707 15.4928 33.1961 15.6555C33.1574 15.7399 33.1563 15.7403 33.0563 15.707C32.8541 15.6398 32.1556 15.201 31.9932 15.0391C31.515 14.5623 31.2665 13.778 31.2323 12.6369C31.2232 12.336 31.252 11.8089 31.282 11.7252C31.2943 11.6909 31.3588 11.727 31.5307 11.8646ZM36.9925 12.3694C37.0306 12.4222 36.9236 12.7038 36.6528 13.2634C36.2259 14.1454 35.7782 14.6974 35.2389 15.0066C35.0122 15.1366 34.0323 15.3767 33.8722 15.3414C33.7223 15.3084 33.6913 15.1916 33.7474 14.8706C33.8135 14.4926 33.8929 14.2642 34.0553 13.9846C34.2313 13.6816 34.3732 13.5156 34.6462 13.2931C35.0956 12.9269 35.5904 12.6979 36.4114 12.4761C36.8964 12.3451 36.9658 12.3324 36.9925 12.3694ZM30.4743 13.9501C30.6448 14.0496 31.0544 14.5548 31.3746 15.0607C31.8801 15.8595 32.0475 16.6102 31.8726 17.2939C31.781 17.6517 31.5635 18.065 31.4517 18.0936C31.3276 18.1255 30.6896 17.586 30.472 17.2652C30.243 16.9276 30.0835 16.3756 30.0624 15.8479C30.0465 15.4464 30.2444 14.2517 30.3693 13.9962C30.4076 13.9177 30.414 13.9149 30.4743 13.9501ZM29.4029 16.0096C29.6802 16.5133 30.0118 17.8863 29.9863 18.4252C29.9654 18.8675 29.8119 19.3166 29.5544 19.6889C29.4082 19.9003 29.0866 20.2118 28.9913 20.2344C28.7617 20.2888 28.2956 19.4419 28.2231 18.8386C28.1379 18.1298 28.3347 17.5452 29.0598 16.3534L29.3393 15.8939L29.4029 16.0096ZM35.4477 15.4529C35.8475 15.4032 36.0047 15.4082 36.0456 15.4717C36.1184 15.5846 35.2165 16.7838 34.7705 17.167C34.5451 17.3606 34.0757 17.6445 33.7905 17.7596C33.5403 17.8606 33.2836 17.8852 32.7538 17.8591C32.3838 17.8409 32.2908 17.8172 32.2701 17.7358C32.2365 17.6044 32.4108 17.1431 32.6171 16.8171C32.7891 16.5452 32.8579 16.4677 33.0966 16.2762C33.516 15.9399 33.7431 15.8357 34.4527 15.6542C34.8425 15.5545 35.1817 15.4859 35.4477 15.4529ZM27.739 18.5993C27.8028 18.6192 27.7698 18.8993 27.6401 19.4411C27.3823 20.5174 27.0595 21.1005 26.4556 21.5809C26.1248 21.844 25.9784 21.9135 25.5311 22.0195C25.1188 22.1172 25.0969 22.1101 25.0657 21.8689C25.0336 21.6211 25.0594 21.1751 25.1208 20.9125C25.2362 20.4201 25.5738 19.9271 26.0563 19.5466C26.5059 19.192 27.623 18.5632 27.739 18.5993ZM32.7734 18.2527C33.161 18.2091 34.3378 18.2841 34.4151 18.3573C34.447 18.3875 34.3884 18.4706 34.1811 18.6894C33.3301 19.5873 32.4769 20.1212 31.7644 20.2014C31.326 20.2508 30.58 20.1543 30.3683 20.0207L30.2756 19.9622L30.3009 19.83C30.3149 19.7573 30.3974 19.5916 30.4843 19.4618C30.7715 19.0333 31.1236 18.7093 31.4619 18.5621C31.6612 18.4754 32.4529 18.2886 32.7734 18.2527ZM29.7495 20.519C30.0582 20.5129 30.1998 20.525 30.4925 20.5822C30.9207 20.6659 31.8601 20.9554 32.1404 21.0901C32.2468 21.1412 32.2491 21.1452 32.2041 21.2C32.1011 21.3253 31.2487 21.7876 30.768 21.9789C30.0695 22.2567 29.236 22.3176 28.7013 22.1298C28.4849 22.0538 27.72 21.656 27.7048 21.6115C27.6926 21.5757 28.1679 21.1144 28.3572 20.9783C28.7289 20.7111 29.2838 20.5281 29.7495 20.519ZM26.771 22.2878C27.4311 22.2471 28.4052 22.5194 29.203 22.9676C29.3326 23.0405 29.4429 23.1164 29.448 23.1364C29.4587 23.1784 29.282 23.2831 28.8727 23.4772C28.6156 23.5992 28.4957 23.635 27.762 23.8091C26.8573 24.0238 26.7238 24.0369 26.3367 23.9491C25.9582 23.8631 25.0993 23.4169 25.0112 23.2603C24.9415 23.1364 25.2011 22.8891 25.6822 22.6213C25.9687 22.4618 26.4779 22.3058 26.771 22.2878Z" fill="url(#paint2_linear_378_723)"/>
</g>
<defs>
<filter id="filter0_d_378_723" x="2" y="0" width="14" height="26" filterUnits="userSpaceOnUse" color-interpolation-filters="sRGB">
<feFlood flood-opacity="0" result="BackgroundImageFix"/>
<feColorMatrix in="SourceAlpha" type="matrix" values="0 0 0 0 0 0 0 0 0 0 0 0 0 0 0 0 0 0 127 0" result="hardAlpha"/>
<feOffset dy="1"/>
<feGaussianBlur stdDeviation="0.5"/>
<feComposite in2="hardAlpha" operator="out"/>
<feColorMatrix type="matrix" values="0 0 0 0 0 0 0 0 0 0 0 0 0 0 0 0 0 0 0.25 0"/>
<feBlend mode="normal" in2="BackgroundImageFix" result="effect1_dropShadow_378_723"/>
<feBlend mode="normal" in="SourceGraphic" in2="effect1_dropShadow_378_723" result="shape"/>
</filter>
<filter id="filter1_d_378_723" x="15.1045" y="6.93994" width="9.7793" height="12.0801" filterUnits="userSpaceOnUse" color-interpolation-filters="sRGB">
<feFlood flood-opacity="0" result="BackgroundImageFix"/>
<feColorMatrix in="SourceAlpha" type="matrix" values="0 0 0 0 0 0 0 0 0 0 0 0 0 0 0 0 0 0 127 0" result="hardAlpha"/>
<feOffset dy="1"/>
<feGaussianBlur stdDeviation="0.5"/>
<feComposite in2="hardAlpha" operator="out"/>
<feColorMatrix type="matrix" values="0 0 0 0 0 0 0 0 0 0 0 0 0 0 0 0 0 0 0.25 0"/>
<feBlend mode="normal" in2="BackgroundImageFix" result="effect1_dropShadow_378_723"/>
<feBlend mode="normal" in="SourceGraphic" in2="effect1_dropShadow_378_723" result="shape"/>
</filter>
<filter id="filter2_d_378_723" x="24" y="0" width="14" height="26" filterUnits="userSpaceOnUse" color-interpolation-filters="sRGB">
<feFlood flood-opacity="0" result="BackgroundImageFix"/>
<feColorMatrix in="SourceAlpha" type="matrix" values="0 0 0 0 0 0 0 0 0 0 0 0 0 0 0 0 0 0 127 0" result="hardAlpha"/>
<feOffset dy="1"/>
<feGaussianBlur stdDeviation="0.5"/>
<feComposite in2="hardAlpha" operator="out"/>
<feColorMatrix type="matrix" values="0 0 0 0 0 0 0 0 0 0 0 0 0 0 0 0 0 0 0.25 0"/>
<feBlend mode="normal" in2="BackgroundImageFix" result="effect1_dropShadow_378_723"/>
<feBlend mode="normal" in="SourceGraphic" in2="effect1_dropShadow_378_723" result="shape"/>
</filter>
<linearGradient id="paint0_linear_378_723" x1="9" y1="0" x2="9" y2="24" gradientUnits="userSpaceOnUse">
<stop stop-color="#F8F8F8"/>
<stop offset="0.7" stop-color="#D4D4D4"/>
<stop offset="1" stop-color="#636363"/>
</linearGradient>
<linearGradient id="paint1_linear_378_723" x1="20" y1="2" x2="20" y2="22" gradientUnits="userSpaceOnUse">
<stop stop-color="#F8F8F8"/>
<stop offset="0.7" stop-color="#D4D4D4"/>
<stop offset="1" stop-color="#636363"/>
</linearGradient>
<linearGradient id="paint2_linear_378_723" x1="31" y1="0" x2="31" y2="24" gradientUnits="userSpaceOnUse">
<stop stop-color="#F8F8F8"/>
<stop offset="0.7" stop-color="#D4D4D4"/>
<stop offset="1" stop-color="#636363"/>
</linearGradient>
</defs>
</svg>
