<svg width="16" height="16" viewBox="0 0 16 16" fill="none" xmlns="http://www.w3.org/2000/svg">
  <path fill-rule="evenodd" clip-rule="evenodd" d="M6.15045 1.05775C6.01349 1.09142 5.89633 1.12302 5.89007 1.128C5.88384 1.13298 5.95373 1.41497 6.04541 1.75465C6.13713 2.09433 6.21225 2.39263 6.21242 2.41755C6.21258 2.44243 6.13335 2.48614 6.03632 2.51463C5.57012 2.65165 4.7262 3.1261 4.2583 3.5143L4.06776 3.67239L3.5953 3.19892L3.12283 2.7255L2.9242 2.92104L2.72552 3.11652L3.20584 3.5977C3.64207 4.03471 3.67967 4.08422 3.61588 4.13714C3.50723 4.22725 3.09287 4.79017 2.92602 5.07432C2.75528 5.36511 2.49705 5.92445 2.45513 6.09419C2.43965 6.15689 2.40678 6.20823 2.38213 6.20823C2.33648 6.20823 1.27567 5.93192 1.17901 5.89488C1.14332 5.8812 1.10335 5.95904 1.05666 6.13321C1.01852 6.27545 0.993658 6.3982 1.00142 6.40596C1.00918 6.41371 1.29053 6.49267 1.62666 6.58146C1.96279 6.67025 2.24272 6.74854 2.2487 6.75547C2.25472 6.76239 2.23393 6.90804 2.20255 7.0791C2.12867 7.48148 2.12008 8.45573 2.18653 8.89527C2.21512 9.08446 2.22907 9.24872 2.21753 9.26025C2.20599 9.27182 1.93249 9.35223 1.60981 9.43899C1.28708 9.52574 1.01541 9.60437 1.00607 9.61374C0.968259 9.65152 1.12497 10.1064 1.17581 10.1064C1.20565 10.1064 1.47559 10.0399 1.77565 9.95869C2.07572 9.87745 2.34349 9.81951 2.37072 9.82996C2.39794 9.84041 2.44451 9.92995 2.47423 10.029C2.56263 10.3238 2.87087 10.9336 3.11079 11.2883L3.33524 11.6201L2.65319 12.8151C2.27804 13.4723 1.97769 14.0161 1.98566 14.0233C1.99367 14.0305 2.53826 13.7303 3.19592 13.3561L4.39161 12.6756L4.73152 12.9002C5.14036 13.1703 5.64877 13.4281 5.97407 13.5302C6.1053 13.5713 6.21271 13.6157 6.21271 13.6288C6.21271 13.6418 6.13896 13.9217 6.04885 14.2507C5.95875 14.5797 5.89251 14.8611 5.90173 14.8759C5.92182 14.9084 6.37843 15.014 6.40109 14.9914C6.40985 14.9826 6.486 14.715 6.57038 14.3967C6.65471 14.0784 6.73481 13.806 6.74838 13.7913C6.76191 13.7767 6.9224 13.7897 7.10502 13.8202C7.55412 13.8953 8.38928 13.8936 8.86432 13.8167C9.07864 13.782 9.25809 13.7587 9.26311 13.765C9.2681 13.7713 9.34326 14.0471 9.43012 14.3778C9.51699 14.7085 9.59422 14.9868 9.60174 14.9962C9.62282 15.0224 10.0736 14.9072 10.0968 14.8696C10.1137 14.8423 9.86217 13.8219 9.79609 13.6498C9.78364 13.6174 9.85789 13.5717 9.99701 13.5261C10.5108 13.3578 11.4296 12.819 11.7851 12.4777L11.9414 12.3277L12.4181 12.8027L12.8948 13.2776L13.0912 13.0813L13.2877 12.885L12.8156 12.412L12.3435 11.9389L12.5109 11.738C12.9019 11.2686 13.3172 10.5306 13.4948 9.98954C13.5405 9.85053 13.5862 9.77634 13.6187 9.78878C13.8006 9.85854 14.8224 10.1081 14.8627 10.0927C14.9227 10.0697 15.0261 9.64658 14.9811 9.60822C14.9635 9.59321 14.6719 9.50816 14.3331 9.41924L13.7172 9.25756L13.744 9.09105C13.8531 8.41426 13.8524 7.86118 13.7412 6.97265L13.7149 6.76256L14.3475 6.59087C14.6954 6.49645 14.9882 6.41102 14.9981 6.40111C15.0156 6.38365 14.9062 5.92134 14.8793 5.89874C14.872 5.89264 14.5765 5.96629 14.2227 6.06242C13.8689 6.15855 13.5675 6.23087 13.5529 6.22312C13.5383 6.21536 13.5137 6.15751 13.4981 6.09456C13.4236 5.79279 13.0011 4.97222 12.7636 4.66787C12.6987 4.58477 12.6456 4.49212 12.6456 4.46202C12.6456 4.43191 12.947 3.87887 13.3154 3.23305C13.6838 2.58729 13.9779 2.05307 13.9691 2.04602C13.9602 2.03893 13.4146 2.33975 12.7566 2.71456L11.5604 3.39595L11.3248 3.23152C11.0019 3.00605 10.4426 2.70933 10.0932 2.57804C9.93343 2.51803 9.79696 2.46321 9.78995 2.45624C9.78294 2.44927 9.85295 2.1635 9.94559 1.82121C10.0382 1.47892 10.114 1.18253 10.114 1.16263C10.114 1.12041 9.61942 0.983893 9.59937 1.02059C9.59198 1.03415 9.51512 1.31582 9.42859 1.64654C9.34205 1.97726 9.25988 2.26112 9.24597 2.27738C9.23203 2.2936 9.04348 2.27995 8.82688 2.24702C8.34508 2.17375 7.64609 2.17292 7.14652 2.24503C6.94108 2.27469 6.76727 2.29413 6.76025 2.28829C6.75324 2.28244 6.67198 1.99103 6.57967 1.64069C6.48741 1.2904 6.4091 1.00214 6.40569 1.00011C6.40225 0.998117 6.28741 1.02404 6.15045 1.05775ZM10.2058 5.80531L7.95628 8.05306L7.33498 7.43329C6.99325 7.09241 6.70564 6.82194 6.6958 6.83227C6.63753 6.89344 3.44377 12.5358 3.45867 12.5513C3.46867 12.5618 4.48935 11.5587 5.72688 10.3223L7.9769 8.07433L8.58795 8.6849C8.98347 9.0801 9.21323 9.28128 9.23929 9.25515C9.30117 9.19315 12.4873 3.58945 12.4703 3.57249C12.4621 3.56427 11.4431 4.56905 10.2058 5.80531ZM7.60305 3.87099C6.59524 3.97719 5.66512 4.42855 4.9802 5.14378C4.46258 5.68434 4.1704 6.18944 3.94475 6.93395C3.84012 7.27915 3.83161 7.36172 3.83161 8.03291C3.83161 8.70563 3.83991 8.78588 3.94537 9.13186C4.05361 9.48692 4.23817 9.94052 4.27436 9.94052C4.28366 9.94052 4.74687 9.13945 5.30372 8.16039L6.31613 6.38021L8.11445 5.35739C9.1035 4.79485 9.90649 4.32832 9.89885 4.32069C9.84274 4.26462 9.09802 4.00116 8.85635 3.95189C8.53217 3.88579 7.86892 3.84299 7.60305 3.87099ZM10.6519 7.90924L9.63668 9.6932L7.83642 10.716L6.0362 11.7387L6.25932 11.8376C7.87829 12.5552 9.75882 12.1899 10.9729 10.922C11.4906 10.3815 11.7827 9.87637 12.0084 9.13186C12.113 8.78666 12.1215 8.7041 12.1215 8.03291C12.1215 7.36018 12.1132 7.27994 12.0078 6.93395C11.9031 6.59046 11.7153 6.12529 11.6814 6.12529C11.6735 6.12529 11.2102 6.92807 10.6519 7.90924Z" fill="url(#paint0_linear_1088_1564)" />
  <defs>
    <linearGradient id="paint0_linear_1088_1564" x1="8.03132" y1="-0.187663" x2="8.03132" y2="16.1919" gradientUnits="userSpaceOnUse">
      <stop stop-color="#F8F8F8" />
      <stop offset="1" stop-color="#929292" />
    </linearGradient>
  </defs>
</svg>