<svg width="16" height="16" viewBox="0 0 16 16" fill="none" xmlns="http://www.w3.org/2000/svg">
  <path fill-rule="evenodd" clip-rule="evenodd" d="M7.57172 1.01283C5.85375 1.11306 4.2803 1.82295 3.04627 3.05461C2.14379 3.95531 1.50459 5.07896 1.20081 6.29883C1.11828 6.63026 0.978323 7.4866 1.00284 7.51014C1.01019 7.51719 1.25362 7.34189 1.54385 7.12062C3.27456 5.80117 4.97433 5.05247 6.82077 4.79619C7.47629 4.7052 8.57778 4.70499 9.21568 4.7957C11.1621 5.07256 13.0854 5.96128 14.8072 7.37941L15 7.53822V7.39031C15 7.16684 14.9235 6.70472 14.8154 6.2748C14.5054 5.04222 13.8931 3.96585 12.9857 3.05837C11.5445 1.61715 9.62756 0.892873 7.57172 1.01283ZM7.12521 1.58126C6.63799 1.66151 6.11305 1.79512 5.76664 1.92703C3.94136 2.62206 2.55811 4.01689 1.90304 5.82297C1.82673 6.03343 1.7695 6.22007 1.77583 6.23781C1.7822 6.25552 2.01504 6.12474 2.29329 5.94714C3.69277 5.05388 5.19686 4.48602 6.73959 4.26843C7.39413 4.17611 8.64423 4.17481 9.27657 4.2658C10.8383 4.49052 12.2926 5.03873 13.7373 5.94734C13.9741 6.0963 14.1915 6.23243 14.2202 6.24989C14.2972 6.29648 14.2502 6.13495 14.0248 5.57803C13.3069 3.80437 11.8559 2.44988 10.0339 1.85277C9.33652 1.62424 8.74543 1.5343 7.97763 1.53989C7.63159 1.54245 7.248 1.56104 7.12521 1.58126ZM7.38905 5.3017C6.58221 5.36332 6.36878 5.41635 6.09536 5.62308C5.3011 6.22351 4.84586 7.33322 4.97344 8.35794C5.05625 9.02307 5.31859 9.58874 5.77188 10.0797C6.14508 10.4839 6.28646 10.5674 6.70711 10.6327C7.24999 10.717 8.25776 10.7478 8.76552 10.6957C9.58413 10.6117 9.68967 10.5829 9.95173 10.3722C10.4362 9.98264 10.8758 9.27494 11.0017 8.682C11.1922 7.78441 10.9655 6.79567 10.411 6.10611C10.2194 5.8679 9.87392 5.54514 9.7258 5.46602C9.51025 5.35088 8.07047 5.24964 7.38905 5.3017ZM4.6897 5.93336C3.64893 6.34975 2.26987 7.18937 1.48511 7.88439L1.30517 8.04377L1.64776 8.3165C2.23732 8.78583 3.17783 9.38578 3.81418 9.69849C4.36497 9.96915 5.08779 10.2664 5.11916 10.235C5.12586 10.2284 5.07593 10.1412 5.00827 10.0415C4.68159 9.56002 4.48472 9.02793 4.40305 8.40566C4.29381 7.57334 4.55056 6.57382 5.04143 5.92032C5.16471 5.7562 5.12919 5.75754 4.6897 5.93336ZM11.0242 5.97408C11.2022 6.23234 11.4494 6.7733 11.5272 7.07476C11.7851 8.07488 11.6048 9.16916 11.0455 9.99747C10.9644 10.1176 10.9059 10.2236 10.9155 10.2332C10.9482 10.2659 11.8113 9.90774 12.2996 9.65887C12.9383 9.33331 13.5898 8.91794 14.2166 8.43674C14.626 8.12244 14.713 8.0383 14.6689 7.99921C13.9798 7.38775 13.0885 6.78842 12.191 6.33294C11.7506 6.10947 11.0016 5.78865 10.9201 5.78865C10.9071 5.78865 10.9539 5.87211 11.0242 5.97408ZM7.76875 6.27594C7.42774 6.3173 7.03688 6.51698 6.77705 6.78262C6.39959 7.1685 6.25155 7.56374 6.28025 8.10928C6.34504 9.3415 7.6842 10.1226 8.7818 9.56837C9.50157 9.20493 9.9055 8.37176 9.71942 7.63435L9.67522 7.45905L9.49978 7.63411C9.0933 8.0398 8.45601 7.9454 8.20483 7.44228C8.02829 7.08877 8.09657 6.70435 8.37779 6.46817C8.44793 6.40926 8.50533 6.35157 8.50533 6.34003C8.50533 6.32042 8.33594 6.28691 8.09941 6.25977C8.04359 6.25337 7.89479 6.26062 7.76875 6.27594ZM1.01011 8.64983C1.02273 8.71388 1.05317 8.91215 1.07777 9.0904C1.38806 11.3392 2.99171 13.4429 5.11592 14.3878C6.08955 14.8209 6.91774 14.9968 7.99793 15C9.21081 15.0034 10.1928 14.7664 11.265 14.2113C11.8996 13.8827 12.4153 13.5074 12.9292 12.9998C13.8006 12.1392 14.3855 11.1771 14.7317 10.035C14.871 9.57541 15 8.91587 15 8.66324V8.53903L14.7814 8.71344C13.8267 9.47503 13.3008 9.84012 12.6118 10.2198C11.0914 11.0574 9.59501 11.4604 8.00495 11.4604C6.47529 11.4604 5.23526 11.1481 3.7358 10.3853C2.9206 9.97053 2.3882 9.61977 1.46266 8.88768C0.979987 8.50589 0.981976 8.50694 1.01011 8.64983ZM1.80769 9.88472C1.80769 10.0501 2.21377 10.9683 2.46321 11.3669C3.51364 13.0457 5.15513 14.1255 7.10491 14.4203C7.52252 14.4834 8.51393 14.4834 8.93154 14.4203C11.0813 14.0952 12.8581 12.805 13.8425 10.8539C13.9734 10.5945 14.2288 9.9474 14.2288 9.87504C14.2288 9.85839 13.9656 10.0144 13.6439 10.2217C12.2336 11.1306 10.6634 11.7332 9.19538 11.929C8.52672 12.0182 7.36778 12.0094 6.69899 11.91C5.16548 11.6822 3.65713 11.0798 2.24405 10.131C2.00404 9.96992 1.80769 9.85904 1.80769 9.88472Z" fill="url(#paint0_linear_1088_1579)" />
  <defs>
    <linearGradient id="paint0_linear_1088_1579" x1="8.03132" y1="-0.187663" x2="8.03132" y2="16.1919" gradientUnits="userSpaceOnUse">
      <stop stop-color="#F8F8F8" />
      <stop offset="1" stop-color="#929292" />
    </linearGradient>
  </defs>
</svg>